<svg version="1.1" id="Layer_1" xmlns="http://www.w3.org/2000/svg" x="0px" y="0px" viewBox="0 0 120 121" style="width: 150px;opacity: 05;padding-top: 10px;" xml:space="preserve"><g><path class="st1" style="fill:none;stroke:#FFE203;/*noinspection CssInvalidPropertyValue*/stroke-width:2;stroke-miterlimit:10;" d="M31.7,43.3C39.3,43.2,46.6,43,54,43c6.5,0,13,0.1,19.5,0c1.6,0,2.9,0.4,3.5,1.9c0.7,1.6,0,2.7-1.1,3.8 C68,56.7,60.1,64.6,52.2,72.5C51.1,73.6,50,74,48.5,74c-5.5,0-10.9,0.1-16.5,0.2c0,0.4,0,1,0,1.5c0,5.3,0,10.5,0.1,15.8 c0,1.4-0.4,2.5-1.4,3.4c-8.2,8.1-16.3,16.3-24.4,24.4c-1.1,1.1-2.3,1.7-3.9,1.1c-1.5-0.6-1.8-1.9-1.9-3.4C0.3,79.2,0.1,41.4,0,3.6 c0-2.8,1-3.8,3.7-3.8C41.3,0,78.9,0.1,116.5,0.3c1,0,2.1,0.3,2.9,0.9c1.5,1.2,1.2,3.1-0.3,4.7c-4.1,4.1-8.1,8.2-12.2,12.2 c-3.5,3.5-7.1,7-10.5,10.6c-1.2,1.2-2.4,1.7-4.1,1.7c-18.8-0.1-37.5-0.2-56.3-0.2c-0.4,0-0.8,0-1.2,0c-1.8,0.1-2.9,1.2-2.9,3 C31.7,36.3,31.7,39.5,31.7,43.3z"></path></g></svg>
