<svg version="1.1" id="Layer_1" xmlns="http://www.w3.org/2000/svg" x="0px" y="0px" viewBox="0 0 128 121" style="width: 150px; opacity: 5; padding-top: 10px; float: right; margin-right: -3px; visibility: visible; animation-delay: 0.5s;" xml:space="preserve" class="animated undefined" data-delay=".5"><g><path class="st0" style="fill:none;stroke:#5C8FC1;/*noinspection CssInvalidPropertyValue*/stroke-width:2;stroke-miterlimit:10;" d="M81.2,31.8c0.1,7.6,0.2,14.9,0.3,22.3c0,6.5-0.1,13,0,19.5c0,1.6-0.4,2.9-1.9,3.5c-1.6,0.7-2.7,0-3.8-1.1 C67.8,68.1,59.9,60.2,52,52.3c-1.1-1.1-1.5-2.2-1.5-3.7c0-5.5-0.1-10.9-0.2-16.5c-0.4,0-1,0-1.5,0c-5.3,0-10.5,0-15.8,0.1 c-1.4,0-2.5-0.4-3.4-1.4C21.5,22.5,13.3,14.4,5.1,6.2C4,5.1,3.4,4,4.1,2.4C4.7,0.9,6,0.5,7.5,0.5c37.8-0.1,75.6-0.3,113.4-0.4 c2.8,0,3.8,1,3.8,3.7c-0.1,37.6-0.3,75.2-0.4,112.8c0,1-0.3,2.1-0.9,2.9c-1.2,1.5-3.1,1.2-4.7-0.3c-4.1-4.1-8.2-8.1-12.2-12.2 c-3.5-3.5-7-7.1-10.6-10.5c-1.2-1.2-1.7-2.4-1.7-4.1c0.1-18.8,0.2-37.5,0.2-56.3c0-0.4,0-0.8,0-1.2c-0.1-1.8-1.2-2.9-3-2.9 C88.2,31.8,85,31.9,81.2,31.8z"></path></g></svg>
