<svg xmlns="http://www.w3.org/2000/svg" version="1.1" width="600px" height="600px" xlink="http://www.w3.org/1999/xlink" style="overflow:hidden!important;"><g id="svga-group-wrapper" transform="scale(3 3)"><g id="svga-group-backs-single"></g><g id="svga-group-subwrapper" transform="matrix(0.84999948 0 0 0.84999948 14.984903045544414 17.392688582713774)"><g id="svga-group-hair-back" ><path id="SvgjsPath5265" d="M100.5,100.5h-1v-1h1V100.5z" fill="#a46c47" stroke-width="none" opacity="1" stroke="none"></path></g><g id="svga-group-humanbody-single"><path id="SvgjsPath5108" d="M190.858 199.866c-6.008-10.158-13.474-11.973-19.628-13.936 -6.323-2.016-19.346-3.178-26.449-4.6 -6.86-1.373-23.153-5.789-23.339-13.488 -0.192-8.066 4.291-40.09 4.291-40.09H74.005c0 0 4.487 32.023 4.294 40.09 -0.184 7.699-16.48 12.115-23.341 13.488 -7.104 1.422-20.125 2.584-26.448 4.6 -6.156 1.963-13.624 3.777-19.632 13.936 -3.644 6.16-6.008 16.133-6.008 27.133h194C196.869 215.999 194.509 206.026 190.858 199.866z" fill="#cda184" stroke-width="none" opacity="1" stroke="none"></path><path id="SvgjsPath5109" d="M121.442 167.843c2.495 10.929 18.165 13.698 26.293 15.325 21.909 4.379 33.772 5.134 42.297 19.539 2.903 4.916 5.459 15.864 5.962 24.153 1.835 0.291 0.531-17.432-5.136-26.994 -9.742-16.472-29.089-15.135-46.077-18.535C137.921 179.958 121.628 175.542 121.442 167.843L121.442 167.843zM78.558 167.843c-0.186 7.699-16.479 12.115-23.339 13.488 -16.988 3.4-36.335 2.063-46.077 18.535 -5.667 9.563-6.971 27.285-5.136 26.994 0.503-8.289 3.059-19.237 5.962-24.153 8.524-14.405 20.388-15.16 42.297-19.539C60.393 181.541 76.063 178.771 78.558 167.843L78.558 167.843z" fill="#dcbaa4" stroke-width="none" opacity="1" stroke="none"></path><path id="SvgjsPath5110" d="M51.206 189.513c0 0 28.641 0.299 33.473 1.885 2.314 0.758 8.372 5.633 8.372 5.633s-6.556-3.17-8.658-3.758C79.51 191.909 51.206 189.513 51.206 189.513zM99.795 199.999c2.053-0.041 7.887-3.799 7.887-3.799s-5.574 2.059-7.342 2.16c-1.491 0.086-6.366-1.238-6.366-1.238S98.112 200.032 99.795 199.999zM117.008 192.757c6.75-1.818 29.786-3.23 29.786-3.23s-23.791-0.516-30.51 1.725c-2.252 0.752-7.562 5.16-7.562 5.16S114.786 193.354 117.008 192.757z" fill="#be8a67" stroke-width="none" opacity="1" stroke="none"></path><path id="SvgjsPath5111" d="M190.858 199.866c-9.741-16.471-29.122-15.142-46.077-18.535 -6.86-1.373-23.153-5.789-23.339-13.488 -0.192-8.066 4.291-40.09 4.291-40.09H74.005c0 0 4.487 32.023 4.294 40.09 -0.184 7.699-16.48 12.115-23.341 13.488 -7.104 1.422-20.125 2.584-26.448 4.6 -6.156 1.963-13.624 3.777-19.632 13.936 -3.644 6.16-6.008 16.133-6.008 27.133h194C196.869 215.999 194.509 206.026 190.858 199.866z" fill="none" stroke="#9f6037" stroke-width="1.5" opacity="1"></path></g><g id="svga-group-chinshadow-single"><path id="SvgjsPath5389" d="M74.767 128.517c0.729 5.276 4.358 31.969 4.182 39.342 -0.001 0.048-0.011 0.094-0.013 0.141 5.877 2.477 12.865 4.005 21.167 4 8.141 0.005 14.977-1.448 20.719-3.824 -0.008-0.105-0.026-0.209-0.029-0.315 -0.175-7.381 3.45-34.068 4.179-39.343l0.017-0.113H74.751L74.767 128.517z" fill="url(#SvgjsLinearGradient5390)" opacity="1"></path></g><g id="svga-group-clothes-single" ><path id="SvgjsPath5375" d="M1.509 238.026c0.211-43.783 8.946-50.671 43.101-55.823 13.099-1.976 25.278-3.824 31.798-13.197 -1.371-1.441-1.8-3.341-0.473-4.779 -0.706-1.084-0.696-3.223 1.426-3.401 0.198 1.43-0.4 0.875 2.776 2.219 19.874 8.397 27.911 4.119 39.35 0.265 2.39-0.809 2.695-0.969 2.955-2.997 0.506 0.199 0.846 0.559 0.891 0.712 0.56 0.894-0.327 2.033-0.483 2.944 1.049 1.008 0.442 2.331-0.431 3.502 15.514 25.709 65.877 1.542 74.242 44.425 1.391 12.381 1.61 25.702 1.626 26.956C197.287 238.851 66.557 239.192 1.509 238.026z" fill="#39557e" stroke-width="none" opacity="1" stroke="none"></path><path id="SvgjsPath5376" d="M191.032 202.707c5.877 8.853 4.81 18.807 6.837 24.292 0-11-2.36-20.973-6.011-27.133 -9.742-16.472-26.089-14.936-43.077-18.336 -16.079-3.218-21.88-6.521-25.599-12.503C135.104 189.31 175.119 178.735 191.032 202.707zM76.817 169.027c-3.719 5.981-9.52 9.285-25.599 12.503 -16.988 3.4-33.335 1.864-43.077 18.336 -3.65 6.16-6.011 16.133-6.011 27.133 2.027-5.485 0.96-15.439 6.837-24.292C24.881 178.735 64.896 189.31 76.817 169.027z" fill="#4e688d" stroke-width="none" opacity="1" stroke="none"></path><path id="SvgjsPath5377" d="M75.177 165.438c-2.58 9.201 40.672 8.591 30.123 8.857C96.484 174.524 72.865 172.321 75.177 165.438zM111.789 173.288c10.395-3.424 11.681-7.793 11.681-7.793 -0.05 0.053-0.198 0.512-0.668 0.945 -0.907 0.995-10.79 6.722-12.128 7.167C110.674 173.607 111.118 173.52 111.789 173.288zM105.973 171.604c14.206-1.792 16.845-7.246 16.845-7.246 -4.313 6.62-29.991 10.398-46.95-0.03C83.98 170.032 94.415 173.021 105.973 171.604z" fill="#27446f" stroke-width="none" opacity="1" stroke="none"></path><path id="SvgjsPath5378" d="M196.759 211.875c-8.383-42.978-59.187-18.908-74.22-44.399 0.885-1.192 1.451-2.551 0.38-3.58 0.405-0.852 1.035-2.112 0.51-2.9 -0.061-0.205-0.485-0.629-1.069-0.819l-0.061 0.46c0 0 0 0 0.001 0 -0.278 2.326-1.229 1.798-5.961 3.72 -18.553 7.739-31.947 0.168-38.58-2.399 -0.25-0.07-0.261-0.64-0.261-1.008 -0.002 0.003-0.014 0.005-0.018 0.007l-0.033-0.235c-0.613 0.026-1.382 0.307-1.728 0.886 0 0.01-0.01 0.01-0.01 0.02 -0.357 0.559-0.442 1.75 0.1 2.591 -1.129 1.227-1.058 3.197 0.47 4.8 -15.166 21.719-62.593 2.866-72.31 39.14 -2.093 9.049-2.56 28.104-2.56 29.97 0 0 62.375 1.143 196.89 0.82 0.03-0.01 0.061-0.01 0.09 0C198.389 237.945 198.151 224.264 196.759 211.875zM1.519 237.766c0.27-5.87 0.85-15.73 2.22-25.79 9.012-40.5 55.892-18.97 72.77-42.73 5.653 5.751 24.777 6.521 31.05 4.851 -9.29 1.206-36.968-2.302-31.61-9.7 0.315 0.445 1.567 1.588 2.135 1.629 -0.039 0.077 0.044-0.082 0.002-0.004 -0.227-0.319-1.636-1.794-1.727-2.025 -0.338-0.42-0.451-1.741-0.17-2.21 0.144-0.283 0.475-0.453 0.774-0.562 0.359 2.418-0.533 1.245 7.996 4.361 19.91 7.275 28.574 0.224 35.76-2.25 1.653-0.534 1.917-1.917 1.959-2.43 0.063 0.048 0.118 0.095 0.132 0.14 0.643 0.79 0.121 1.876-0.19 2.841 -0.01 0.01-0.01 0.029-0.02 0.04 -0.213 0.564-0.601 1.341-0.949 1.841 0.569-0.422 0.846-1.043 1.148-1.621 2.183 2.98-8.034 7.582-11.37 9.25 1.98-0.792 7.546-1.585 10.921-5.69 16.262 27.701 70.326-0.145 74.72 52.261 0.903 10.771 0.804 9.778 1.22 18.81C95.539 237.251 111.997 237.184 1.519 237.766z" fill="#0c2850" stroke-width="none" opacity="1" stroke="none"></path></g><g id="svga-group-head" ><g id="svga-group-ears-left" style="display:none;"><path id="SvgjsPath5245" d="M47.001 83.974c-1.376-2.313-5.638-7.997-9.98-6.603 -2.749 0.882-3.293 3.765-3.735 6.311 -0.588 3.386 0.471 10.083 1.389 12.503 0.881 2.325 3.533 6.816 5.264 8.527 2.13 2.1 4.775 8.793 5.194 9.487 0.66 1.097 1.536 2.745 4.122 2.538 2.853-0.229 4.584-1.742 5.856-1.999C58.253 114.109 50.582 89.995 47.001 83.974z" fill="#cda184" stroke="#9f6037" stroke-width="1.5" opacity="1"></path><path id="SvgjsPath5246" d="M44.197 97.997c-0.132-0.548 0.007-1.47 0.142-2.362 0.124-0.812 0.24-1.579 0.169-2.121 -0.267-2.032-1.773-5.893-2.757-7.985 -1.132-2.407-2.963-5.439-5.262-6.221 -0.95-0.324-1.575 0.063-1.938 0.456 -0.266 0.289-0.325 0.627-0.238 0.667 0.086 0.04 0.285-0.24 0.572-0.504 0.235-0.216 0.579-0.402 1.051-0.363 -0.19 1.011-1.167 6.49-0.744 10.225 0.333 2.938 1.593 5.131 1.79 5.46 0.029 0.346 0.077 0.685 0.148 1.014 0.929 4.287 4.971 9.163 6.378 10.758 0.259 0.295 0.531 0.47 0.598 0.398 0.066-0.072-0.094-0.364-0.353-0.66 -1.388-1.585-5.391-6.442-6.289-10.579 -0.952-4.389 2.318-10.896 3.048-12.272 0.371 0.646 0.687 1.267 0.93 1.785 0.19 0.406 0.402 0.881 0.619 1.395 -0.429 0.718-3.434 5.958-2.338 10.153 0.406 1.546 2.235 3.54 3.447 4.086 0.667 0.301 0.919 0.75 1.209 1.271 0.336 0.604 0.718 1.288 1.828 1.784 0.225 0.102 0.429 0.142 0.61 0.142 0.313 0 0.551-0.126 0.725-0.276 0.018 0.266 0.017 0.604 0.009 0.917 -0.012 0.404 0.042 0.737 0.137 0.745 0.094 0.008 0.196-0.313 0.207-0.717 0.016-0.496 0.013-1.11-0.072-1.403 -0.248-0.865-1.008-1.841-1.813-2.875C45.221 99.896 44.403 98.844 44.197 97.997zM36.95 94.196c-2.177-6.731 0.656-12.54 1.144-13.464 0.85 0.775 1.6 1.811 2.21 2.824C39.86 84.365 37.041 89.669 36.95 94.196zM46.341 104.042c-1.004-0.447-1.339-1.051-1.666-1.633 -0.293-0.527-0.598-1.072-1.369-1.42 -0.168-0.075-0.352-0.191-0.542-0.323 -2.486-5.906 0.272-8.488 0.963-9.017 0.211 0.722 0.369 1.384 0.439 1.915 0.063 0.488-0.052 1.263-0.167 2.012 -0.142 0.929-0.286 1.89-0.137 2.512 0.226 0.926 1.069 2.009 1.884 3.057 0.723 0.929 1.466 1.888 1.721 2.67C47.359 103.972 47.017 104.345 46.341 104.042z" fill="#9f6037" stroke-width="none" opacity="1" stroke="none"></path></g><g id="svga-group-ears-right" style="display:none;"><path id="SvgjsPath5247" d="M152.736 83.974c1.377-2.313 5.639-7.997 9.98-6.603 2.75 0.882 3.293 3.765 3.736 6.311 0.588 3.386-0.471 10.083-1.389 12.503 -0.881 2.325-3.533 6.816-5.266 8.527 -2.129 2.1-4.775 8.793-5.193 9.487 -0.658 1.097-1.535 2.745-4.121 2.538 -2.854-0.229-4.584-1.742-5.857-1.999C141.484 114.109 149.156 89.995 152.736 83.974z" fill="#cda184" stroke="#9f6037" stroke-width="1.5" opacity="1"></path><path id="SvgjsPath5248" d="M153.727 100.913c-0.805 1.033-1.564 2.009-1.813 2.875 -0.086 0.293-0.088 0.907-0.072 1.403 0.012 0.404 0.113 0.725 0.207 0.717s0.148-0.341 0.137-0.745c-0.008-0.313-0.008-0.651 0.01-0.917 0.174 0.15 0.412 0.276 0.725 0.276 0.182 0 0.385-0.04 0.609-0.142 1.109-0.496 1.492-1.18 1.828-1.784 0.289-0.52 0.543-0.969 1.209-1.271 1.213-0.546 3.041-2.54 3.447-4.086 1.096-4.194-1.908-9.435-2.338-10.153 0.217-0.513 0.43-0.988 0.619-1.395 0.244-0.518 0.559-1.139 0.93-1.785 0.73 1.377 4 7.883 3.049 12.272 -0.896 4.137-4.9 8.994-6.289 10.579 -0.258 0.296-0.418 0.588-0.352 0.66 0.066 0.071 0.338-0.104 0.598-0.398 1.406-1.596 5.449-6.471 6.379-10.758 0.07-0.329 0.117-0.668 0.146-1.014 0.197-0.329 1.459-2.523 1.791-5.46 0.422-3.735-0.555-9.214-0.744-10.225 0.473-0.039 0.814 0.146 1.051 0.363 0.287 0.264 0.486 0.544 0.572 0.504s0.027-0.378-0.238-0.667c-0.363-0.393-0.988-0.779-1.938-0.456 -2.299 0.782-4.131 3.814-5.262 6.221 -0.984 2.093-2.49 5.953-2.758 7.985 -0.072 0.542 0.045 1.309 0.17 2.121 0.135 0.892 0.273 1.814 0.141 2.362C155.336 98.844 154.518 99.896 153.727 100.913zM159.434 83.555c0.611-1.013 1.361-2.049 2.211-2.824 0.488 0.925 3.32 6.733 1.145 13.464C162.697 89.669 159.879 84.365 159.434 83.555zM152.27 103.816c0.254-0.782 0.998-1.741 1.721-2.67 0.816-1.048 1.658-2.131 1.885-3.057 0.148-0.622 0.004-1.583-0.137-2.512 -0.115-0.749-0.23-1.524-0.166-2.012 0.068-0.531 0.227-1.193 0.438-1.915 0.691 0.529 3.449 3.111 0.965 9.017 -0.191 0.132-0.375 0.248-0.543 0.323 -0.771 0.348-1.074 0.893-1.369 1.42 -0.326 0.582-0.662 1.186-1.666 1.633C152.721 104.345 152.379 103.972 152.27 103.816z" fill="#9f6037" stroke-width="none" opacity="1" stroke="none"></path></g><g id="svga-group-faceshape-wrap" ><g id="svga-group-faceshape-single" ><path id="SvgjsPath5386" d="M100.103 0.867C66.481 0.814 39.286 27.899 39.234 61.374c-0.008 5.316 0.669 10.473 1.953 15.389l0.004 0c0.011 0.053 6.322 32.098 11.785 46.085 4.253 10.89 10.61 37.576 47.125 37.555 36.515 0.021 42.872-26.665 47.125-37.555 5.463-13.987 11.773-46.032 11.785-46.085l0.005 0c1.283-4.916 1.961-10.072 1.952-15.389C160.919 27.899 133.723 0.814 100.103 0.867z" fill="#cda184" stroke-width="none" opacity="1"></path><path id="SvgjsPath5387" d="M150.307 27.3c5.293 9.096 8.347 19.746 8.364 31.14 0.008 5.316-0.645 10.473-1.883 15.389l-0.004 0c-0.012 0.053-5.969 32.098-11.234 46.085 -4.1 10.89-10.353 37.576-45.547 37.555 -35.195 0.021-41.448-26.665-45.547-37.555 -5.266-13.987-11.223-46.032-11.234-46.085l-0.004 0c-1.237-4.916-1.891-10.072-1.882-15.389 0.017-11.394 3.071-22.043 8.362-31.139 -6.647 9.702-10.543 21.43-10.563 34.072 -0.008 5.316 0.669 10.473 1.953 15.389l0.004 0c0.011 0.053 6.322 32.098 11.785 46.085 4.253 10.89 10.61 37.576 47.125 37.555 36.515 0.021 42.873-26.665 47.125-37.555 5.463-13.987 11.773-46.032 11.785-46.085l0.005 0c1.283-4.916 1.961-10.072 1.952-15.389C160.852 48.73 156.954 37.002 150.307 27.3z" fill="#c59575" stroke-width="none" opacity="1"></path><path id="SvgjsPath5388" d="M100.103 0.867C66.481 0.814 39.286 27.899 39.234 61.374c-0.008 5.316 0.669 10.473 1.953 15.389l0.004 0c0.011 0.053 6.322 32.098 11.785 46.085 4.253 10.89 10.61 37.576 47.125 37.555 36.515 0.021 42.872-26.665 47.125-37.555 5.463-13.987 11.773-46.032 11.785-46.085l0.005 0c1.283-4.916 1.961-10.072 1.952-15.389C160.919 27.899 133.723 0.814 100.103 0.867z" fill="none" stroke="#9f6037" stroke-width="1.5" opacity="1"></path></g></g><g id="svga-group-mouth-single" ><path id="SvgjsPath5363" d="M100.002 141.248c-4.158 0-5.133-3.404-5.133-3.404 5.5 2.12 10.267-0.146 10.267-0.146S103.659 141.248 100.002 141.248z" fill="url(#SvgjsLinearGradient5364)" opacity="1"></path><path id="SvgjsPath5367" d="M86.803 131.94c2.756-0.951 6.973-2.692 9.166-2.789 1.133-0.052 2.351 0.87 3.574 1.165 0.851 0.206 3.264-1.156 4.13-1.165 2.272-0.024 7.06 1.838 9.502 2.789 0.135 0.054 0 0 0 0s-5.789 6.953-13.185 6.953C91.618 138.894 86.803 131.94 86.803 131.94S86.666 131.989 86.803 131.94z" fill="#fecd70" stroke="#efb851" stroke-width="0.75" opacity="1"></path><path id="SvgjsPath5368" d="M113.541 131.736c-0.048-0.164-0.482-0.367-0.653-0.359 -0.311 0.017-0.672 0.396-1.313 0.41 -0.742 0.018-4.679 0.61-5.736 0.54 -2.129-0.142-3.824 0.666-5.848 0.666 -2.025 0-3.868-0.882-5.996-0.739 -1.057 0.072-4.847-0.448-5.591-0.467 -0.643-0.015-0.892-0.411-1.166-0.464 -0.192-0.036-0.663 0.166-0.757 0.338 -0.083 0.149 0.092 0.67 0.209 0.794 0.285 0.297 1.136 0.242 1.698 0.256 0.777 0.017 4.577 0.538 5.65 0.466 2.081-0.141 3.936 0.822 5.952 0.822s3.725-0.889 5.806-0.748c1.071 0.071 5.015-0.524 5.793-0.54 0.563-0.014 1.366-0.061 1.654-0.292C113.379 132.311 113.59 131.904 113.541 131.736z" fill="#d0921d" stroke-width="none" opacity="1" stroke="none"></path><path id="SvgjsPath5369" d="M99.989 137.352c-3.37 0-6.645-1.153-9.241-3.305 1.307-0.072 2.652-0.277 3.961-0.22 1.613 0.07 3.144 0.707 4.756 0.813 1.742 0.116 3.358-0.487 5.064-0.694 1.422-0.17 3.664-0.674 5.091-0.622C107.068 135.28 103.244 137.352 99.989 137.352zM104.562 131.739c1.314-0.037 3.414-0.532 4.724-0.437 -1.405-0.759-3.657-0.941-5.243-1.247 -1.366-0.266-2.738 0.791-4.081 0.968 -1.514 0.199-2.65-1.239-4.119-1.288 -1.593 0.017-3.233 0.991-4.634 1.65 1.284-0.034 2.607-0.176 3.886-0.012 1.566 0.199 3.069 0.817 4.655 0.87C101.373 132.299 102.939 131.782 104.562 131.739z" fill="#ffd78a" stroke-width="none" opacity="1" stroke="none"></path><path id="SvgjsPath5370" d="M99.941 136.4c-2.029 0-4.007-0.702-5.707-2.002 0.38-0.038 0.764-0.067 1.133-0.067 0.117 0 0.234 0.004 0.351 0.011 0.609 0.032 1.209 0.207 1.846 0.393 0.618 0.178 1.256 0.363 1.923 0.42 0.132 0.01 0.264 0.015 0.395 0.015 0.819 0 1.596-0.204 2.348-0.4 0.477-0.125 0.928-0.243 1.392-0.313 0.253-0.04 0.527-0.059 0.837-0.059 0.268 0 0.544 0.015 0.818 0.036C103.862 135.485 102.03 136.4 99.941 136.4z" fill="#ffdfa3" stroke-width="none" opacity="1" stroke="none"></path></g><g id="svga-group-eyes-left" ><g id="svga-group-eyesback-left"><path id="SvgjsPath5289" d="M60.632 83.957c1.226-1.179 9.091-2.674 13.631-2.075 7.183 0.947 13 7.285 13 7.285s-4.836 3.083-13.61 3.56C67.873 93.042 62.061 89.309 60.632 83.957z" fill="url(#SvgjsRadialGradient5290)" opacity="1"></path></g><g id="svga-group-eyesiriswrapper-left" transform="translate(-1 0.25)"><g id="svga-group-eyesiriscontrol-left" ><g id="svga-group-eyesiris-left" ><path id="SvgjsPath5347" d="M83.199 89.25c-1.231 4.522-5.896 7.187-10.429 5.944 -4.528-1.241-7.203-5.918-5.97-10.442 1.23-4.526 5.905-7.19 10.434-5.947C81.761 80.045 84.433 84.723 83.199 89.25z" fill="#66724e" stroke="#36441a" stroke-width="0.5" opacity="1"></path><path id="SvgjsPath5348" d="M81.878 89.354c-1.202 3.473-4.827 5.499-8.357 4.531 -3.258-0.894-5.315-4.02-5.048-7.325 1.209-0.096 2.532-0.124 3.904-0.056 -0.014 0.047-0.039 0.087-0.051 0.136 -0.434 1.594 0.576 3.265 2.256 3.726 1.685 0.461 3.401-0.462 3.835-2.056 0.055-0.208 0.085-0.417 0.093-0.623C79.66 88.108 80.792 88.651 81.878 89.354z" fill="#788165" stroke-width="none" opacity="1" stroke="none"></path><path id="SvgjsPath5349" d="M76.151 84.464c-1.703-0.487-3.44 0.485-3.88 2.181 -0.44 1.687 0.584 3.454 2.286 3.942 1.705 0.489 3.443-0.484 3.884-2.173C78.884 86.719 77.855 84.953 76.151 84.464zM76.523 90.46c-0.708 0.22-1.441-0.072-1.636-0.655 -0.188-0.582 0.231-1.228 0.945-1.443 0.712-0.22 1.442 0.073 1.639 0.651C77.665 89.593 77.241 90.24 76.523 90.46z" fill="#000000" stroke-width="none" opacity="0.9"></path><path id="SvgjsPath5350" d="M70.482 91.476c-0.523 0.314-1.307 0.034-1.754-0.633 -0.448-0.66-0.381-1.451 0.145-1.767 0.521-0.311 1.311-0.03 1.755 0.632C71.07 90.37 71.006 91.162 70.482 91.476z" fill="#ffffff" stroke-width="none" opacity="0.6"></path><path id="SvgjsPath5351" d="M81.673 86.632c-1.198 0.718-2.999 0.072-4.02-1.445 -1.02-1.518-0.867-3.331 0.332-4.047 1.196-0.721 3-0.074 4.015 1.444C83.019 84.101 82.871 85.913 81.673 86.632z" fill="#ffffff" stroke-width="none" opacity="0.9"></path></g></g></g><g id="svga-group-eyesfront-left"><path id="SvgjsPath5314" d="M55.332 88c0 13.808 8.06 24.999 18 24.999s18-11.191 18-24.999c0-13.809-8.06-25.001-18-25.001S55.332 74.191 55.332 88zM60.632 83.957c1.226-1.179 9.091-2.674 13.631-2.075 7.183 0.947 13 7.285 13 7.285s-4.836 3.083-13.61 3.56C67.873 93.042 62.061 89.309 60.632 83.957z" fill="#cda184" stroke-width="none" opacity="1" stroke="none"></path><path id="SvgjsPath5315" d="M74.182 96.592c9.412 2.223 18.451-1.61 20.194-8.565 1.738-6.956-4.478-14.395-13.892-16.622 -9.414-2.224-18.453 1.609-20.195 8.565C58.55 86.927 64.765 94.365 74.182 96.592zM60.632 83.957c1.226-1.179 9.091-2.674 13.631-2.075 7.183 0.947 13 7.285 13 7.285s-4.836 3.083-13.61 3.56C67.873 93.042 62.061 89.309 60.632 83.957z" fill="url(#SvgjsRadialGradient5316)" opacity="1"></path><path id="SvgjsPath5320" d="M60.632 83.957c1.226-1.179 9.091-2.674 13.631-2.075 7.183 0.947 13 7.285 13 7.285s-4.836 3.083-13.61 3.56C67.873 93.042 62.061 89.309 60.632 83.957z" fill="url(#SvgjsRadialGradient5321)" opacity="1"></path><path id="SvgjsPath5324" d="M87.433 83.657c-6.502-4.251-4.054-3.09-16.23-6.703 3.344 0.5 9.572 2.066 11.707 3.32C84.073 80.928 86.433 82.783 87.433 83.657z" fill="#9f6037" stroke-width="none" opacity="1" stroke="none"></path><path id="SvgjsPath5325" d="M55.34 82.979c0 0 2.084 1.306 3.713 1.307 0.129 0.766 2.241 4.259 5.873 6.344 5.49 3.154 11.897 2.18 18.014 0.643 2.995-0.746 2.81-1.52 7.773-2.07 -3.897-1.57-3.485-2.497-8.891-5.423 2.468 0.471 5.783 2.315 5.783 2.315 -1.237-1.452-9.917-6.796-23.826-7.508 0 0 4.649 1.088 6.399 1.769 -8.05 1.097-10.242-0.113-10.669-0.435 0.357 0.302 1.188 1.24 3.004 1.852 -1.878 0.143-5.312-0.867-5.312-0.867s0.867 0.826 2.628 1.965C58.323 83.595 55.34 82.979 55.34 82.979zM60.632 84.074c1.226-1.137 9.091-2.58 13.631-2.001 7.183 0.913 13 7.026 13 7.026s-4.836 2.974-13.61 3.434C67.873 92.836 62.061 89.236 60.632 84.074z" fill="#2e0914" stroke-width="none" opacity="1" stroke="none"></path></g></g><g id="svga-group-eyes-right" ><g id="svga-group-eyesback-right"><path id="SvgjsPath5297" d="M139.368 83.957c-1.226-1.179-9.091-2.674-13.631-2.075 -7.183 0.947-13 7.285-13 7.285s4.836 3.083 13.61 3.56C132.127 93.042 137.939 89.309 139.368 83.957z" fill="url(#SvgjsRadialGradient5298)" opacity="1"></path></g><g id="svga-group-eyesiriswrapper-right" transform="translate(1 0.25)"><g id="svga-group-eyesiriscontrol-right" ><g id="svga-group-eyesiris-right" ><path id="SvgjsPath5352" d="M133.199 89.25c-1.231 4.522-5.896 7.187-10.429 5.944 -4.528-1.241-7.203-5.918-5.97-10.442 1.23-4.526 5.905-7.19 10.434-5.947C131.761 80.045 134.433 84.723 133.199 89.25z" fill="#66724e" stroke="#36441a" stroke-width="0.5" opacity="1"></path><path id="SvgjsPath5353" d="M131.878 89.354c-1.202 3.473-4.827 5.499-8.357 4.531 -3.258-0.894-5.315-4.02-5.048-7.325 1.209-0.096 2.532-0.124 3.904-0.056 -0.014 0.047-0.039 0.087-0.051 0.136 -0.434 1.594 0.576 3.265 2.256 3.726 1.685 0.461 3.401-0.462 3.835-2.056 0.055-0.208 0.085-0.417 0.093-0.623C129.66 88.108 130.792 88.651 131.878 89.354z" fill="#788165" stroke-width="none" opacity="1" stroke="none"></path><path id="SvgjsPath5354" d="M126.151 84.464c-1.703-0.487-3.44 0.485-3.88 2.181 -0.44 1.687 0.584 3.454 2.286 3.942 1.705 0.489 3.443-0.484 3.884-2.173C128.884 86.719 127.855 84.953 126.151 84.464zM126.523 90.46c-0.708 0.22-1.441-0.072-1.636-0.655 -0.188-0.582 0.231-1.228 0.945-1.443 0.712-0.22 1.442 0.073 1.639 0.651C127.665 89.593 127.241 90.24 126.523 90.46z" fill="#000000" stroke-width="none" opacity="0.9"></path><path id="SvgjsPath5355" d="M120.482 91.476c-0.523 0.314-1.307 0.034-1.754-0.633 -0.448-0.66-0.381-1.451 0.145-1.767 0.521-0.311 1.311-0.03 1.755 0.632C121.07 90.37 121.006 91.162 120.482 91.476z" fill="#ffffff" stroke-width="none" opacity="0.6"></path><path id="SvgjsPath5356" d="M131.673 86.632c-1.198 0.718-2.999 0.072-4.02-1.445 -1.02-1.518-0.867-3.331 0.332-4.047 1.196-0.721 3-0.074 4.015 1.444C133.019 84.101 132.871 85.913 131.673 86.632z" fill="#ffffff" stroke-width="none" opacity="0.9"></path></g></g></g><g id="svga-group-eyesfront-right"><path id="SvgjsPath5335" d="M126.668 62.999c-9.94 0-18 11.193-18 25.001 0 13.808 8.06 24.999 18 24.999s18-11.191 18-24.999C144.668 74.191 136.608 62.999 126.668 62.999zM126.348 92.727c-8.774-0.476-13.61-3.56-13.61-3.56s5.817-6.338 13-7.285c4.54-0.6 12.405 0.896 13.631 2.075C137.939 89.309 132.127 93.042 126.348 92.727z" fill="#cda184" stroke-width="none" opacity="1" stroke="none"></path><path id="SvgjsPath5336" d="M139.711 79.971c-1.742-6.956-10.781-10.79-20.195-8.565 -9.414 2.227-15.63 9.666-13.892 16.622 1.743 6.955 10.782 10.788 20.194 8.565C135.235 94.365 141.45 86.927 139.711 79.971zM126.348 92.727c-8.774-0.476-13.61-3.56-13.61-3.56s5.817-6.338 13-7.285c4.54-0.6 12.405 0.896 13.631 2.075C137.939 89.309 132.127 93.042 126.348 92.727z" fill="url(#SvgjsRadialGradient5337)" opacity="1"></path><path id="SvgjsPath5341" d="M139.368 83.957c-1.226-1.179-9.091-2.674-13.631-2.075 -7.183 0.947-13 7.285-13 7.285s4.836 3.083 13.61 3.56C132.127 93.042 137.939 89.309 139.368 83.957z" fill="url(#SvgjsRadialGradient5342)" opacity="1"></path><path id="SvgjsPath5345" d="M112.567 83.657c6.502-4.251 4.054-3.09 16.23-6.703 -3.344 0.5-9.572 2.066-11.707 3.32C115.927 80.928 113.567 82.783 112.567 83.657z" fill="#9f6037" stroke-width="none" opacity="1" stroke="none"></path><path id="SvgjsPath5346" d="M140.17 82.871c1.761-1.139 2.628-1.965 2.628-1.965s-3.434 1.009-5.312 0.867c1.815-0.612 2.646-1.55 3.004-1.852 -0.427 0.321-2.619 1.531-10.669 0.435 1.75-0.681 6.399-1.769 6.399-1.769 -13.909 0.712-22.589 6.056-23.826 7.508 0 0 3.315-1.844 5.783-2.315 -5.405 2.926-4.993 3.854-8.891 5.423 4.964 0.551 4.778 1.325 7.773 2.07 6.116 1.537 12.523 2.511 18.014-0.643 3.632-2.085 5.744-5.579 5.873-6.344 1.629-0.001 3.713-1.307 3.713-1.307S141.677 83.595 140.17 82.871zM126.348 92.533c-8.774-0.459-13.61-3.434-13.61-3.434s5.817-6.113 13-7.026c4.54-0.579 12.405 0.864 13.631 2.001C137.939 89.236 132.127 92.836 126.348 92.533z" fill="#2e0914" stroke-width="none" opacity="1" stroke="none"></path></g></g><g id="svga-group-facehighlight-single" ><path id="SvgjsPath5100" d="M140.204 113.007c0.035 22.275-17.995 40.365-40.273 40.396 -22.274 0.036-40.361-17.993-40.396-40.272C59.501 90.857 77.53 72.77 99.808 72.735 122.083 72.701 140.171 90.73 140.204 113.007z" fill="url(#SvgjsRadialGradient5101)" opacity="1"></path><path id="SvgjsPath5104" d="M135,55.999c0,19.329-15.671,35-35,35c-19.329,0-35-15.671-35-35s15.671-35,35-35C119.329,20.999,135,36.67,135,55.999z" fill="url(#SvgjsRadialGradient5105)" opacity="1"></path></g><g id="svga-group-eyebrows-left" ><path id="SvgjsPath5357" d="M52.39 76.804c16.406-19.451 43.626-14.324 38.065-11.7C88.527 66.014 68.692 62.075 52.39 76.804z" fill="#a46c47" stroke-width="none" opacity="1" stroke="none"></path></g><g id="svga-group-eyebrows-right" ><path id="SvgjsPath5358" d="M147.619 76.796c-10.422-9.39-21.831-11.612-35.751-11.554 -4.2 0.015-3.035-1.712-1.846-2.059C113.752 62.098 133.915 60.618 147.619 76.796z" fill="#a46c47" stroke-width="none" opacity="1" stroke="none"></path></g><g id="svga-group-nose-single" ><path id="SvgjsPath5371" d="M93.787 116.99c0 0 1.319-0.969 5.75-0.969 5.24 0 6.685 0.759 6.685 0.759s-3.71 2.4-6.937 1.925C96.513 118.295 93.787 116.99 93.787 116.99z" fill="#be8a67" stroke-width="none" opacity="1" stroke="none"></path><path id="SvgjsPath5372" d="M100.06 120.097c-1.181 0-2.382-0.529-3.423-1.045 -0.423-0.208-0.838-0.374-1.304-0.461 -0.582-0.109-1.656 0.086-2.085-0.356 -0.457-0.473-0.085-1.217 0.54-1.244 0.771 0.012 1.551 0.067 2.298 0.267 1.309 0.35 2.427 1.254 3.814 1.366 1.051 0.084 2.219-0.58 3.159-0.977 0.738-0.312 3.209-1.475 3.805-0.457 0.369 0.629-0.222 1.075-0.789 1.107 -0.702 0.039-1.394 0.277-2.043 0.534C102.777 119.327 101.441 120.097 100.06 120.097z" fill="#ae744d" stroke-width="none" opacity="1" stroke="none"></path><path id="SvgjsPath5373" d="M99.989 116.076c0.556 0 1.853-0.647 1.64-1.902 -1.26-7.41-1.64-20.245-1.64-20.245s-0.964 15.033-1.788 20.245C98.001 115.443 99.36 116.076 99.989 116.076z" fill="#ecd5c7" stroke-width="none" opacity="0.2" stroke="none"></path></g><g id="svga-group-hair-front" ><path id="SvgjsPath5267" d="M57.629 133.691c-6.612-3.867-29.401-70.178-20.907-93.456 8.577-23.509 59.988-6.272 63.479-5.339 5.216 1.394 57.592-6.205 59.595-1.426 15.27 36.439-0.262 64.927-15.002 99.421 10.664 14.58-5.301 16.382-4.299 15.942 1.534-0.672 3.152-2.714 2.253-4.937 -1.435-3.541-9.337-2.81-0.948-16.064 5.208-8.226 6.732-19.776 6.704-22.499 -1.836 2.651-4.881 6.507-7.36 8.521 2.591-5.767 3.497-14.369 3.957-19.014 0.236-2.495 0.911-0.171-5.716-9.971 -4.734-7.01-10.655-17.373-14.39-27.647 -2.289 7.581-0.315 17.827 1.54 25.841C108.48 71.151 99.915 47.771 98.145 44.738c0.165 8.301 4.133 20.484 7.891 29.271 -9.71-8.269-18.747-16.72-22.333-29.279 -4.13 15.52-1.364 35.925 6.667 55.27C70.88 80.628 75.271 56.426 76.036 50.397c-3.372 4.796-18.619 26.506-14.329 53.511 -0.994-1.937-2.046-5.675-2.942-7.781 -4.324-2.457-6.563-4.633-9.199-7.761 -0.53 17.986 2.282 21.945 4.545 31.428 2.186 9.158 10.366 12.117 10.875 12.883 1.083 1.632 1.007 3.749-0.197 5.525 -1.391 2.051-4.354 2.473-6.022 4.591 -2.175 2.761-0.206 4.587 1.102 6.041C61.555 150.709 49.869 148.834 57.629 133.691z" fill="#a46c47" stroke-width="none" opacity="0.1" stroke="none"></path><path id="SvgjsPath5268" d="M61.75 161.102c-2.981-2.862-6.501-7.189-6.797-11.334 -3.167-1.262-4.874-3.618-4.569-6.304 0.455-4.001 3.883-5.615 5.786-10.632 -6.844-4.002-11.052-10.324-13.432-17.465 -19.063-18.333-17-55.181-8.208-79.279C43.406 11.752 69.174-6.6 94.468-6.6c4.017 0 7.888 0.49 11.502 1.456 5.399 1.443 1.841 0.187 9.986 0.187 14.863 0 29.215 6.956 37.447 18.154 3.812 5.183 6.447 10.941 8.521 15.889 7.763 18.525 9.767 32.241 7.654 52.414 -2.904 27.719-11.465 32.103-12.689 34.706 -2.408 5.098-5.998 10.588-10.273 14.284 -0.761 0.66-0.814 0.695-0.221 1.515 3.078 4.173 4.189 6.233 4.585 8.313 1.146 6.041-5.797 8.527-6.807 9.094l-0.314 0.019c0.824 8.229-0.423 10.485-7.871 11.144 9.562-9.181-2.143-9.896 5.657-13.314 1.588-0.694 3.564-1.559 2.633-3.86 -1.484-3.663-9.665-2.908-0.981-16.631 5.392-8.514 6.969-20.472 6.939-23.289 -1.901 2.744-5.052 6.735-7.618 8.821 2.681-5.969 3.618-12.804 4.095-17.613 0.246-2.583 0.943-0.177-5.915-10.322 -4.902-7.256-11.029-16.949-14.896-27.585l-0.979 0.136c-0.603 7.955-0.991 15.73 0.76 23.296C106.994 67.88 99.94 45.235 98.108 42.095c0.17 8.593 2.145 19.269 6.034 28.366 -10.051-8.559-16.24-14.763-19.953-27.764 -4.275 16.066-3.942 33.111 4.371 53.136C68.388 75.779 75.511 54.06 76.302 47.82c-3.364 4.785-7.067 10.404-9.17 14.275 -4.99 9.181-8.57 27.128-6.811 38.203 -1.03-2.005-2.049-4.171-2.975-6.352 -4.477-2.544-6.793-4.797-9.523-8.034 -0.548 18.62 2.361 22.718 4.705 32.535 2.262 9.478 10.73 12.542 11.257 13.335 1.121 1.689 1.043 3.881-0.204 5.72 -1.44 2.123-4.506 2.562-6.233 4.752 -2.252 2.858 1.259 4.932 2.613 6.438 1.745 1.94 1.19 3.583 0.656 5.17C59.761 156.395 60.04 157.312 61.75 161.102z" fill="#a46c47" stroke-width="none" opacity="1" stroke="none"></path><path id="SvgjsPath5269" d="M161.924 29.085c-0.062-0.147-6.606-10.937-6.669-11.085 9.52 18.403 12.946 48.244 8.745 67 0-12 1.119-27.515-4.893-39.076 2.421 14.992 3.554 29.455-2.236 41.624 0.939-15.687 0.108-34.531-10.277-48.315 1.946 8.449 2.892 15.427 1.912 27.012 -1.62-8.098-5.73-13.827-12.693-20.603C139.813 55.642 138 60 139 71c-4-13-10.329-25.513-5.104-40.418C125.896 36.582 122 44 122 54c-6-10-7.131-18.808-5-33 -8.692 11.971-5.677 25.533-1.965 38.886C107.418 48.284 102.262 36.513 101 22c-1.688 7.597-5.508 13.772-7.862 20.925C91.393 34.602 91 25.831 91 18c-0.822 7.396-5.691 13.442-9.067 20.356C82.438 34.237 83.416 30.119 85 26c-12.479 9.805-17.909 25.266-23.878 39.821 0.901-12.124 7.522-24.509 13.645-35.085C61 37.958 52 55 49 71c-4-16-3.059-33.616 3.07-49C38.07 36 40 58 36 76c-4.214-20.229 2.938-39.748 9.482-58.556 -20.211 23.94-25.154 76.372-2.745 97.923 2.38 7.141 6.588 13.463 13.432 17.465 -1.903 5.017-5.331 6.631-5.786 10.632 -0.305 2.686 1.402 5.042 4.569 6.304 0.296 4.145 3.816 8.472 6.797 11.334 -1.709-3.79-1.989-4.707-1.133-7.24 0.535-1.587 1.089-3.229-0.656-5.17 -1.436-1.597-6.407-4.529-0.608-8.125 0.647-2.882 4.153-6.311 0.648-7.566 -10.881-5.015-16.631-40.015-12.229-44.641 0.011-0.79 0.026-1.599 0.051-2.447 2.73 3.237 5.046 5.49 9.523 8.034 0.926 2.181 1.945 4.346 2.975 6.352 -1.523-9.588-1.806-16.874-1.162-22.47 1.154-10.04 9.484-22.401 17.144-30.008 -1.853 14.888 3.415 33.161 10.997 44.832 -6.189-16.326-7.171-34.835-2.542-52.236 0.343 5.191 9.116 17.557 18.385 27.045 -1.077-2.52-0.993-2.165-1.779-4.849 -2.051-7.006-4.08-15.606-3.255-22.517 4.636 10.154 12.939 23.72 27.574 40.116 -2.043-8.826-1.298-19.285-0.087-28.317 0.915 5.381 21.176 41.105 22.296 39.515 -0.477 4.809-2.594 14.921-5.274 20.89 5.702-4.636 6.839-8.812 9.164-12.299 0.092 4.507 0.827 7.33 0.305 11.733 -1.546 13.021-9.388 19.206-9.808 22.38C141.971 136.438 147 144 145 145c-1.945 1.945-4.358 3.184-6.215 4.745 -0.045 2 4.079 4.224-2.798 10.827 7.448-0.658 8.695-2.915 7.871-11.144l0.314-0.019c1.01-0.566 7.952-3.053 6.807-9.094 -0.396-2.079-1.507-4.14-4.585-8.313 -0.594-0.819-0.54-0.854 0.221-1.515 4.275-3.696 7.865-9.187 10.273-14.284 1.225-2.604 9.785-6.987 12.689-34.706C171.69 61.327 169.687 47.611 161.924 29.085z" fill="#955932" stroke-width="none" opacity="1" stroke="none"></path><path id="SvgjsPath5270" d="M116.331 15.911c27.883 5.279 38.779 28.461 38.74 56.792C155.353 75.736 155.179 25.249 116.331 15.911zM55.224 39.538c11.383-17.409 19.6-25.868 42.357-33.47C78.476 9.979 62.101 21.038 55.224 39.538zM115.455 61.433c1.223 1.665 1.982 2.651 1.837 2.452 -8.13-12.431-12.066-37.167-6.56-50.214C103.728 27.391 107.434 47.709 115.455 61.433z" fill="#85481f" stroke-width="none" opacity="1" stroke="none"></path><path id="SvgjsPath5271" d="M55.277 28.081C58.86 11.696 75.536 7.805 82.56 5.426 83.56 5.115 60.156 11.478 55.277 28.081zM85.206-0.777c-5.39 1.675-19.758 4.601-25.099 14.965C65.867 4.612 87.224-1.345 85.206-0.777zM48.44 66.409c2.135-12.675 6.822-27.444 17.719-34.26C49.273 40.875 48.199 67.409 48.44 66.409zM85.903 21.953c-1.513 1.412-8.565 3.983-12.548 15.405C77.955 27.436 86.903 21.199 85.903 21.953zM97.256 25.688c2.316-4.29 3.218-13.392 3.048-12.391 -3.959 15.553-5.708 13.756-7.069 20.74C94.323 30.282 95.766 28.565 97.256 25.688zM107.613 39.32c-0.023-0.065-4.192-18.694-4.409-22.083C102.832 27.073 107.87 40.32 107.613 39.32zM100.198 9.625C82.971 14.02 78.703 19.02 71.132 27.032 81.036 18.328 89.728 12.961 100.198 9.625zM142.973 10.317c1.316 0.855 2.118 1.371 1.963 1.264C131.648 1.616 124.671-0.495 107.07 3 121.639 1.087 130.441 2.439 142.973 10.317zM148.181 29.157c-3.91-8.005-15.645-17.562-37.848-21.723C124.505 11.221 139.298 17.625 148.181 29.157zM121.308 41.448c-0.119 2.197-0.222 4.204-0.208 4.025 2.366-15.428 3.443-14.75 6.214-17.704C122.563 31.155 121.587 35.683 121.308 41.448zM143.806 50.151c0.316 2.253 0.466 4.354 0.465 4.164 -0.37-3.783 1.774-12.464-6.8-18.022C141.469 39.107 142.943 43.598 143.806 50.151zM148.253 101.28c0.352-1.571 8.625-12.909 2.194-33.467C155.32 88.135 147.832 102.28 148.253 101.28zM33.111 86.875c0.239 8.471 3.932 14.917 3.452 13.826 -3.363-8.695-2.721-16.015-3.531-24.3C33.114 80.761 33 84.753 33.111 86.875zM47.346 118.432c1.779 4.057 5.413 8.021 4.629 7.032 -2.057-4.475-8.883-9.73-8.056-34.409 -0.023-1.896-0.091-3.388-0.115-4.061C43.456 96.875 41.083 103.958 47.346 118.432zM151.818 117.633c2.697-4.391 2.674-7.602 3.082-9.792 0.174-1 0.752-9.81 1.549-11.164C154.204 100.718 154.725 113.745 151.818 117.633zM146.972 145.028c0.033-0.082 0.514-0.981 0.839-2.011 1.17-3.478-0.008-6.069-1.493-6.983C149.753 139.279 146.437 146.139 146.972 145.028zM54.677 146.42c0.651 1.356 1.38 2.517 1.323 2.407 -0.06-0.105-0.626-1.371-1.083-2.734 -2.345-6.632 0.589-8.037 1.549-9.037C52.87 139.399 52.782 142.607 54.677 146.42zM50.68 44.15c1.049-3.877 1.082-13.003 12.174-22.999C49.391 31.723 50.591 45.15 50.68 44.15zM45.839 71.672c2.536 7.313 5.401 12.11 5.041 11.381 -4.983-11.22-6.331-20.062-7.061-32.261C43.731 57.64 43.769 65.068 45.839 71.672z" fill="#b38160" stroke-width="none" opacity="1" stroke="none"></path><path id="SvgjsPath5272" d="M162.39 28.89c-2.34-5.58-4.981-11.101-8.579-15.993 -9.956-13.54-27.921-19.924-43.237-18.034 -2.844 0.351-0.772 0.494-4.474-0.495C80.189-12.556 45.134 5.539 34.055 35.915c-8.02 21.979-11.963 60.397 8.243 79.732 2.147 6.442 7.023 13.698 13.569 17.234 -1.386 3.654-5.504 6.291-5.985 10.522 -0.367 3.22 1.829 5.617 4.884 6.832 0 0-0.207 5.388 8.204 12.659 -0.676-2.535-2.872-5.17-2.181-7.887 0.454-1.786 1.905-4.034-0.453-6.654 -1.434-1.598-4.527-3.329-2.592-5.787 1.648-2.09 4.725-2.523 6.255-4.782 1.291-1.9 1.447-4.288 0.206-6.281 -1.002-1.609-4.499-2.601-7.917-6.589 -3.229-5.582-4.885-13.804-4.827-13.553 -1.069-4.619-3.577-10.359-3.171-24.114 2.413 2.865 5.402 5.2 8.659 7.052 1.488 3.492 3.236 6.972 4.759 9.608 -3.563-10.35 0.415-31.537 5.869-41.572 2.38-4.382 5.115-8.56 7.982-12.638 -4.456 17.954-0.244 34.771 14.438 48.198 -8.866-20.063-9.707-38.563-5.789-53.299 4.031 14.112 15.203 22.396 21.296 27.69 -4.063-8.899-6.776-18.665-6.971-28.479 5.402 14.943 15.374 29.721 27.947 37.51 -2.1-7.947-1.667-16.252-1.053-24.368 3.575 9.837 9.111 19.053 14.951 27.695 6.811 10.073 6.06 7.634 5.83 9.988 -0.645 6.535-1.892 13.59-4.99 19.363 3.345-2.392 6.196-5.299 8.537-8.677 -0.508 3.692-2.669 13.719-4.604 17.366 -3.176 5.99-9.864 12.83-4.158 18.1 0.903 0.834 2.336 1.615 2.815 2.8 1.538 3.796-6.441 2.563-5.353 7.087 0.514 2.117 3.698 3.725-3.864 10.504 9.149-0.515 10.656-2.949 9.769-11.801 5.477-1.64 7.765-5.732 7.115-9.155 -0.589-3.118-2.894-5.619-4.953-8.411 -0.603-0.819-0.697-0.259 1.308-2.167 6.722-6.366 9.543-13.409 9.686-13.564 5.021-5.484 10.325-13.163 12.564-34.528C172.303 60.341 169.715 46.366 162.39 28.89zM158.574 112.768c1.661-5.271 2.03-10.921 2.794-16.366 0.896-6.387 1.843-10.166 0.44-17.234 0.565 5.189-0.134 10.053-1.259 15.117 -3.18 14.343-4.411 29.346-18.271 39.829 1.24-0.833 2.435-1.734 3.567-2.707 2 3.382 5.05 7.096 4.246 11.309 -1.061 5.587-7.55 6.776-8.561 7.25 0.642-0.309 1.411-0.166 2.081-0.385 -0.058 6.452-0.738 9.236-6.829 10.548 7.247-6.441 2.124-8.645 3.333-10.931 0.601-0.869 2.277-0.854 3.177-1.268 2.404-1.096 3.169-4.17 1.593-6.247 -0.65-0.857-1.505-1.529-2.274-2.273 -5.171-4.993 3.805-12.551 5.271-19.341 4.563-21.111 1.171-13.085 4.276-18.594 11.841-20.99 13.175-45.767 0.97-72.153 -5.279-11.41-10.628-14.715-20.317-20.93 4.786 3.485 9.736 6.784 13.518 11.421 7.229 8.865 11.533 28.412 12.177 33.916 2.722 23.318-4.577 45.709-13.428 55.394 6.54-16.273 5.033-42.682-8.518-62.19 8.791 14.386 11.366 31.02 9.932 44.338 -0.675-1.027-21.199-33.052-20.847-36.851 0.714-7.752 2.072-15.83 6.944-21.854 -5.18 5.642-6.914 13.307-7.919 20.692 -1.357 9.937-2.328 16.275 0.059 25.525 -8.288-6.677-20.146-21.677-26.207-37.479 0.051-4.832 0.538-9.673 1.203-14.477 -3.002 15.009-3.305 27.538 2.606 40.984C75.75 39.377 86.684 47.906 90.561 19.241c-3.842 19.629-19.459 40.447-4.022 73.432 -19.058-24.849-8.68-49.005-3.536-64.129 -9.467 22.398-4.172 15.077-9.085 21.599 -2.896 3.842-5.744 7.767-8.241 11.911 -5.444 9.521-7.562 24.729-5.84 35.559C47.935 69.202 54.137 54.737 73.941 31 47.894 58.183 48.266 73.21 56.321 92.786c-21.693-14.969-19.012-57.08-0.556-74.949C41.977 29.782 37.037 52.599 39.162 66.678c1.638 10.852 8.192 19.83 8.192 19.83 -1.28 14.277 1.008 19.091 2.357 25.23 0.493 2.243 1.729 6.635 2.379 8.874 1.766 6.076 8.313 10.572 9.051 11.04 8.5 5.389-8.639 7.313-4.613 14.558 1.521 2.735 4.081 2.396 3.302 6.821 -0.301 1.711-0.717 3.248-0.094 4.936 -1.451-1.892-4.611-5.343-4.459-8.239 -8.529-7.013-0.6-10.765 0.983-16.634 1.566 0.837 3.204 1.54 4.87 2.153 -9.07-4.363-14.533-8.839-18.78-24.976 -2.253-8.563-2.969-26.577-2.76-35.943 -0.838 10.653-1.098 30.079 2.091 39.621 -16.431-17.284-13.2-48.36-6.951-71.432C44.655 5.873 82.039-11.93 107.514-4.642c-6.264 1.298-10.079 3.359-15.194 7.244C108.736-8.911 128.94-5.2 142.166 4.05 169.61 23.234 175.418 90.133 158.574 112.768z" fill="#763810" stroke-width="none" opacity="1" stroke="none"></path></g><g id="svga-group-glasses-single" ><path id="SvgjsPath5359" d="M148.02 85.54c-0.11 1.96-0.35 4.05-0.59 6.25 -1.04 9.74-5.26 12.49-24.57 11.1 -6.3-0.45-11.06-4.04-13.41-10.1 -0.99-2.55-1.87-5.52-2.37-8.48C116.7 77.81 139.4 77.62 148.02 85.54zM51.98 85.54c0.11 1.96 0.35 4.05 0.59 6.25 1.04 9.74 5.26 12.49 24.57 11.1 6.3-0.45 11.06-4.04 13.41-10.1 0.99-2.55 1.87-5.52 2.37-8.48C83.3 77.81 60.6 77.62 51.98 85.54z" fill="#ffffff" stroke-width="none" opacity="0.2"></path><path id="SvgjsPath5360" d="M148.02 85.54c-8.62-7.92-31.33-7.73-40.93-1.23 -0.36-2.11-0.52-4.22-0.36-6.16h0c0.66-7.81 13.45-6.88 20.98-7.17C146.33 70.26 148.56 76.34 148.02 85.54zM93.27 78.14L93.27 78.14c-0.66-7.81-13.45-6.88-20.99-7.17 -18.61-0.71-20.85 5.37-20.31 14.56 8.62-7.92 31.33-7.73 40.93-1.23C93.26 82.19 93.43 80.09 93.27 78.14z" fill="#ffffff" stroke-width="none" opacity="0.4"></path><path id="SvgjsPath5361" d="M149.91 75.08c-0.62-1.42-1.48-2.7-2.56-3.65 -2.47-2.16-7.08-2.46-11.39-2.71 -4.19-0.23-12.15-0.42-17.46-0.08 -13.8 0.9-13.57 7-13.57 7 -1.81 0-8.03 0-9.84 0 0 0 0.23-6.11-13.57-7 -5.32-0.34-13.27-0.16-17.46 0.08 -4.31 0.24-8.93 0.55-11.39 2.71 -1.09 0.95-1.94 2.22-2.56 3.65l-8.19-1.58v3.99c7.17 1.38 9.02 1.82 10.02 1.76 -0.25 3.01-0.36 8.35 0.29 12.59 1.54 10.07 5.78 12.78 24.94 11.4 6.36-0.46 11.35-4.23 13.72-10.33 1.86-4.8 3.14-9.09 2.81-14.28h12.64c-0.33 5.19 0.95 9.49 2.81 14.28 2.36 6.1 7.36 9.87 13.72 10.33 19.17 1.38 23.41-1.33 24.94-11.4 0.65-4.24 0.54-9.58 0.29-12.59 1 0.06 2.85-0.38 10.02-1.76V73.5L149.91 75.08zM90.07 92.61c-2.27 5.87-6.88 9.35-12.98 9.78 -19.08 1.37-22.61-1.33-24.04-10.68 -0.76-5.01-0.35-11.52-0.25-12.52 0.19-0.03 0.31-0.06 0.32-0.1 1.09-6.36 6.45-8.42 29.02-7.35 3.73 0.18 6.92 0.88 8.69 2.75 1.04 1.09 2.04 2.66 1.95 4.17l0.04 0C93.02 81.2 92.44 86.5 90.07 92.61zM146.94 91.72c-1.43 9.35-4.96 12.05-24.04 10.68 -6.1-0.44-10.71-3.92-12.98-9.78 -2.37-6.11-2.94-11.41-2.74-13.95l0.04 0c-0.09-1.5 0.91-3.07 1.95-4.17 1.77-1.87 4.96-2.57 8.69-2.75 22.57-1.06 27.92 0.99 29.02 7.35 0.01 0.04 0.13 0.08 0.32 0.1C147.29 80.2 147.71 86.71 146.94 91.72z" fill="#210d34" stroke-width="none" opacity="1" stroke="none"></path><path id="SvgjsPath5362" d="M104.94 75.34c0.17-1.26 1.63-5.92 13.54-6.69 5.32-0.34 13.27-0.16 17.46 0.08 4.31 0.24 8.93 0.55 11.39 2.71 1.09 0.95 1.94 2.22 2.56 3.65l0 0c-3.72-6.16-10.22-5.54-14.01-5.75 -2.3-0.13-6.21-0.27-10.28-0.27 -2.77 0-5.15 0.06-7.06 0.19C111.48 69.71 107.56 70.92 104.94 75.34zM95.06 75.34c-0.17-1.26-1.63-5.92-13.54-6.69 -5.32-0.34-13.27-0.16-17.46 0.08 -4.31 0.24-8.93 0.55-11.39 2.71 -1.09 0.95-1.94 2.22-2.56 3.65l0 0c3.72-6.16 10.22-5.54 14.01-5.75 2.3-0.13 6.21-0.27 10.28-0.27 2.77 0 5.15 0.06 7.06 0.19C88.52 69.71 92.44 70.92 95.06 75.34z" fill="#2e1843" stroke-width="none" opacity="1" stroke="none"></path></g></g></g><rect id="SvgjsRect5085" width="200" height="15" x="0" y="185" fill="#ecf0f1" opacity="0.5" style="display:none;"></rect><text id="SvgjsText5086" font-family="&quot;Roboto&quot;, &quot;Helvetica Neue&quot;, Helvetica, Arial, sans-serif" style="font-size:0.84em;font-family:&quot;Roboto&quot;, &quot;Helvetica Neue&quot;, Helvetica, Arial, sans-serif;text-anchor:middle;font-weight:400;display:none;" font-size="0.84em" text-anchor="middle" font-weight="400" fill="#000000" x="100" y="185"><tspan id="SvgjsTspan5087" dy="1.2em" x="100" style="font-size:0.84em;font-family:&quot;Roboto&quot;, &quot;Helvetica Neue&quot;, Helvetica, Arial, sans-serif;text-anchor:middle;font-weight:400;">Created on AvatarMaker.com</tspan></text></g><defs id="SvgjsDefs5053"><radialGradient id="SvgjsRadialGradient5101" cx="100" cy="113" r="40" gradientUnits="userSpaceOnUse" class="svga-on-canvas-facehighlight-gradient-single-0"><stop id="SvgjsStop5102" stop-opacity="0.5" stop-color="#dcbaa4" offset="0" ></stop><stop id="SvgjsStop5103" stop-opacity="0" stop-color="#cda184" offset="0.9" ></stop></radialGradient><radialGradient id="SvgjsRadialGradient5105" cx="100" cy="57" r="36" gradientUnits="userSpaceOnUse" class="svga-on-canvas-facehighlight-gradient-single-1"><stop id="SvgjsStop5106" stop-opacity="0.5" stop-color="#dcbaa4" offset="0" ></stop><stop id="SvgjsStop5107" stop-opacity="0" stop-color="#cda184" offset="0.9" ></stop></radialGradient><radialGradient id="SvgjsRadialGradient5186" cx="-558.588" cy="-490.918" r="84.646" gradientTransform="matrix(0.096 -0.0248 0.0245 0.0961 140.5478 120.3577)" gradientUnits="userSpaceOnUse" class="svga-on-canvas-eyesiris-gradient-left-1"><stop id="SvgjsStop5187" stop-opacity="0.8" stop-color="#ffffff" offset="0" ></stop><stop id="SvgjsStop5188" stop-opacity="0" stop-color="#ffffff" offset="1" ></stop></radialGradient><radialGradient id="SvgjsRadialGradient5190" cx="-565.337" cy="-492.691" r="84.644" gradientTransform="matrix(0.0991 8.856325e-004 -0.0011 0.0991 130.3774 136.3533)" gradientUnits="userSpaceOnUse" class="svga-on-canvas-eyesiris-gradient-left-2"><stop id="SvgjsStop5191" stop-opacity="0.8" stop-color="#ffffff" offset="0" ></stop><stop id="SvgjsStop5192" stop-opacity="0" stop-color="#ffffff" offset="1" ></stop></radialGradient><linearGradient id="SvgjsLinearGradient5196" x1="122.283" y1="93.047" x2="123.61" y2="91.466" gradientTransform="matrix(1 0 0 1 -52 0)" gradientUnits="userSpaceOnUse" class="svga-on-canvas-eyesiris-gradient-left-5"><stop id="SvgjsStop5197" stop-opacity="1" stop-color="#ffffff" offset="0" ></stop><stop id="SvgjsStop5198" stop-opacity="0" stop-color="#ffffff" offset="1" ></stop></linearGradient><linearGradient id="SvgjsLinearGradient5200" x1="127" y1="85" x2="125" y2="87" gradientTransform="matrix(1 0 0 1 -50 0)" gradientUnits="userSpaceOnUse" class="svga-on-canvas-eyesiris-gradient-left-6"><stop id="SvgjsStop5201" stop-opacity="1" stop-color="#ffffff" offset="0" ></stop><stop id="SvgjsStop5202" stop-opacity="0" stop-color="#ffffff" offset="1" ></stop></linearGradient><linearGradient id="SvgjsLinearGradient5204" x1="130" y1="81" x2="126" y2="85" gradientTransform="matrix(1 0 0 1 -50 0)" gradientUnits="userSpaceOnUse" class="svga-on-canvas-eyesiris-gradient-left-7"><stop id="SvgjsStop5205" stop-opacity="1" stop-color="#ffffff" offset="0" ></stop><stop id="SvgjsStop5206" stop-opacity="0" stop-color="#ffffff" offset="1" ></stop></linearGradient><radialGradient id="SvgjsRadialGradient5209" cx="-578.76" cy="-490.73" r="84.646" gradientTransform="matrix(0.096 -0.0248 0.0245 0.0961 192.4794 119.8404)" gradientUnits="userSpaceOnUse" class="svga-on-canvas-eyesiris-gradient-right-1"><stop id="SvgjsStop5210" stop-opacity="0.8" stop-color="#ffffff" offset="0" ></stop><stop id="SvgjsStop5211" stop-opacity="0" stop-color="#ffffff" offset="1" ></stop></radialGradient><radialGradient id="SvgjsRadialGradient5213" cx="-584.778" cy="-487.329" r="84.644" gradientTransform="matrix(0.0991 8.856325e-004 -0.0011 0.0991 182.3104 135.839)" gradientUnits="userSpaceOnUse" class="svga-on-canvas-eyesiris-gradient-right-2"><stop id="SvgjsStop5214" stop-opacity="0.8" stop-color="#ffffff" offset="0" ></stop><stop id="SvgjsStop5215" stop-opacity="0" stop-color="#ffffff" offset="1" ></stop></radialGradient><linearGradient id="SvgjsLinearGradient5219" x1="120.284" y1="93.047" x2="121.611" y2="91.467" gradientUnits="userSpaceOnUse" class="svga-on-canvas-eyesiris-gradient-right-5"><stop id="SvgjsStop5220" stop-opacity="1" stop-color="#ffffff" offset="0" ></stop><stop id="SvgjsStop5221" stop-opacity="0" stop-color="#ffffff" offset="1" ></stop></linearGradient><linearGradient id="SvgjsLinearGradient5223" x1="127" y1="85" x2="125" y2="87" gradientUnits="userSpaceOnUse" class="svga-on-canvas-eyesiris-gradient-right-6"><stop id="SvgjsStop5224" stop-opacity="1" stop-color="#ffffff" offset="0" ></stop><stop id="SvgjsStop5225" stop-opacity="0" stop-color="#ffffff" offset="1" ></stop></linearGradient><linearGradient id="SvgjsLinearGradient5227" x1="130" y1="81" x2="126" y2="85" gradientUnits="userSpaceOnUse" class="svga-on-canvas-eyesiris-gradient-right-7"><stop id="SvgjsStop5228" stop-opacity="1" stop-color="#ffffff" offset="0" ></stop><stop id="SvgjsStop5229" stop-opacity="0" stop-color="#ffffff" offset="1" ></stop></linearGradient><radialGradient id="SvgjsRadialGradient5290" cx="126.403" cy="87.57" r="15.179" gradientTransform="matrix(-0.9148 0.0479 0.0523 0.9986 184.4314 -6.6017)" gradientUnits="userSpaceOnUse" class="svga-on-canvas-eyesback-gradient-left-0"><stop id="SvgjsStop5291" stop-opacity="1" stop-color="#ffffff" offset="0" ></stop><stop id="SvgjsStop5292" stop-opacity="1" stop-color="#fdfefe" offset="0.544" ></stop><stop id="SvgjsStop5293" stop-opacity="1" stop-color="#f6f8f9" offset="0.74" ></stop><stop id="SvgjsStop5294" stop-opacity="1" stop-color="#eaeff2" offset="0.879" ></stop><stop id="SvgjsStop5295" stop-opacity="1" stop-color="#d9e3e8" offset="0.992" ></stop><stop id="SvgjsStop5296" stop-opacity="1" stop-color="#d8e2e7" offset="1" ></stop></radialGradient><radialGradient id="SvgjsRadialGradient5298" cx="126.401" cy="87.57" r="15.179" gradientTransform="matrix(0.9148 0.0479 -0.0523 0.9986 15.5691 -6.6017)" gradientUnits="userSpaceOnUse" class="svga-on-canvas-eyesback-gradient-right-0"><stop id="SvgjsStop5299" stop-opacity="1" stop-color="#ffffff" offset="0" ></stop><stop id="SvgjsStop5300" stop-opacity="1" stop-color="#fdfefe" offset="0.544" ></stop><stop id="SvgjsStop5301" stop-opacity="1" stop-color="#f6f8f9" offset="0.74" ></stop><stop id="SvgjsStop5302" stop-opacity="1" stop-color="#eaeff2" offset="0.879" ></stop><stop id="SvgjsStop5303" stop-opacity="1" stop-color="#d9e3e8" offset="0.992" ></stop><stop id="SvgjsStop5304" stop-opacity="1" stop-color="#d8e2e7" offset="1" ></stop></radialGradient><radialGradient id="SvgjsRadialGradient5306" cx="126.403" cy="87.57" r="15.179" gradientTransform="matrix(-0.9148 0.0479 0.0523 0.9986 184.4314 -6.6017)" gradientUnits="userSpaceOnUse" class="svga-on-canvas-eyesfront-gradient-left-0"><stop id="SvgjsStop5307" stop-opacity="1" stop-color="#ffffff" offset="0" ></stop><stop id="SvgjsStop5308" stop-opacity="1" stop-color="#fdfefe" offset="0.544" ></stop><stop id="SvgjsStop5309" stop-opacity="1" stop-color="#f6f8f9" offset="0.74" ></stop><stop id="SvgjsStop5310" stop-opacity="1" stop-color="#eaeff2" offset="0.879" ></stop><stop id="SvgjsStop5311" stop-opacity="1" stop-color="#d9e3e8" offset="0.992" ></stop><stop id="SvgjsStop5312" stop-opacity="1" stop-color="#d8e2e7" offset="1" ></stop></radialGradient><radialGradient id="SvgjsRadialGradient5316" cx="122.581" cy="83.48" fx="136.229" fy="83.114" r="16.914" gradientTransform="matrix(0.99 0.1411 0.1085 -0.7608 -52.9892 129.6892)" gradientUnits="userSpaceOnUse" class="svga-on-canvas-eyesfront-gradient-left-3"><stop id="SvgjsStop5317" stop-opacity="1" stop-color="#be8a67" offset="0" ></stop><stop id="SvgjsStop5318" stop-opacity="0.3" stop-color="#be8a67" offset="0.7" ></stop><stop id="SvgjsStop5319" stop-opacity="0" stop-color="#cda184" offset="1" ></stop></radialGradient><radialGradient id="SvgjsRadialGradient5321" cx="70.243" cy="108.081" r="29.51" gradientTransform="matrix(1.0336 0 0 1.0336 -1.941 1.8777)" gradientUnits="userSpaceOnUse" class="svga-on-canvas-eyesfront-gradient-left-4"><stop id="SvgjsStop5322" stop-opacity="0" stop-color="#000000" offset="0.95" ></stop><stop id="SvgjsStop5323" stop-opacity="0.3" stop-color="#000000" offset="1" ></stop></radialGradient><radialGradient id="SvgjsRadialGradient5327" cx="126.401" cy="87.57" r="15.179" gradientTransform="matrix(0.9148 0.0479 -0.0523 0.9986 15.5691 -6.6017)" gradientUnits="userSpaceOnUse" class="svga-on-canvas-eyesfront-gradient-right-0"><stop id="SvgjsStop5328" stop-opacity="1" stop-color="#ffffff" offset="0" ></stop><stop id="SvgjsStop5329" stop-opacity="1" stop-color="#fdfefe" offset="0.544" ></stop><stop id="SvgjsStop5330" stop-opacity="1" stop-color="#f6f8f9" offset="0.74" ></stop><stop id="SvgjsStop5331" stop-opacity="1" stop-color="#eaeff2" offset="0.879" ></stop><stop id="SvgjsStop5332" stop-opacity="1" stop-color="#d9e3e8" offset="0.992" ></stop><stop id="SvgjsStop5333" stop-opacity="1" stop-color="#d8e2e7" offset="1" ></stop></radialGradient><radialGradient id="SvgjsRadialGradient5337" cx="122.581" cy="83.48" fx="136.229" fy="83.114" r="16.914" gradientTransform="matrix(-0.99 0.1411 -0.1085 -0.7608 252.9892 129.6892)" gradientUnits="userSpaceOnUse" class="svga-on-canvas-eyesfront-gradient-right-3"><stop id="SvgjsStop5338" stop-opacity="1" stop-color="#be8a67" offset="0" ></stop><stop id="SvgjsStop5339" stop-opacity="0.3" stop-color="#be8a67" offset="0.7" ></stop><stop id="SvgjsStop5340" stop-opacity="0" stop-color="#cda184" offset="1" ></stop></radialGradient><radialGradient id="SvgjsRadialGradient5342" cx="70.243" cy="108.081" r="29.509" gradientTransform="matrix(-1.0336 0 0 1.0336 201.941 1.8777)" gradientUnits="userSpaceOnUse" class="svga-on-canvas-eyesfront-gradient-right-4"><stop id="SvgjsStop5343" stop-opacity="0" stop-color="#000000" offset="0.95" ></stop><stop id="SvgjsStop5344" stop-opacity="0.3" stop-color="#000000" offset="1" ></stop></radialGradient><linearGradient id="SvgjsLinearGradient5364" x1="100" y1="141" x2="100" y2="138" gradientUnits="userSpaceOnUse" class="svga-on-canvas-mouth-gradient-single-0"><stop id="SvgjsStop5365" stop-opacity="1" stop-color="#c59575" offset="0.1" ></stop><stop id="SvgjsStop5366" stop-opacity="1" stop-color="#be8a67" offset="1" ></stop></linearGradient><linearGradient id="SvgjsLinearGradient5390" x1="99.98" y1="171.27" x2="99.98" y2="136.351" gradientUnits="userSpaceOnUse" class="svga-on-canvas-chinshadow-gradient-single-0"><stop id="SvgjsStop5391" stop-opacity="0.8" stop-color="#be8a67" offset="0" ></stop><stop id="SvgjsStop5392" stop-opacity="1" stop-color="#9f6037" offset="0.7" ></stop></linearGradient></defs></svg>