<svg xmlns="http://www.w3.org/2000/svg" version="1.1" width="600px" height="600px" xlink="http://www.w3.org/1999/xlink" style="overflow:hidden!important;"><g id="svga-group-wrapper" transform="scale(3 3)"><g id="svga-group-backs-single"></g><g id="svga-group-subwrapper" transform="matrix(0.84999948 0 0 0.84999948 14.950564213811276 17.72761310651336)"><g id="svga-group-hair-back" ><path id="SvgjsPath4572" d="M151.582 41.064l-99.508-5.662c0 0-25.074 182.88-25.074 188.596 0 0 100.899 0.72 143.907 0C170.103 216.079 151.582 41.064 151.582 41.064z" fill="#1c150e" stroke-width="none" opacity="1" stroke="none"></path></g><g id="svga-group-humanbody-single"><path id="SvgjsPath4413" d="M190.858 199.866c-6.008-10.158-13.474-11.973-19.628-13.936 -6.323-2.016-19.346-3.178-26.449-4.6 -6.86-1.373-23.153-5.789-23.339-13.488 -0.192-8.066 4.291-40.09 4.291-40.09H74.005c0 0 4.487 32.023 4.294 40.09 -0.184 7.699-16.48 12.115-23.341 13.488 -7.104 1.422-20.125 2.584-26.448 4.6 -6.156 1.963-13.624 3.777-19.632 13.936 -3.644 6.16-6.008 16.133-6.008 27.133h194C196.869 215.999 194.509 206.026 190.858 199.866z" fill="#582812" stroke-width="none" opacity="1" stroke="none"></path><path id="SvgjsPath4414" d="M121.442 167.843c2.495 10.929 18.165 13.698 26.293 15.325 21.909 4.379 33.772 5.134 42.297 19.539 2.903 4.916 5.459 15.864 5.962 24.153 1.835 0.291 0.531-17.432-5.136-26.994 -9.742-16.472-29.089-15.135-46.077-18.535C137.921 179.958 121.628 175.542 121.442 167.843L121.442 167.843zM78.558 167.843c-0.186 7.699-16.479 12.115-23.339 13.488 -16.988 3.4-36.335 2.063-46.077 18.535 -5.667 9.563-6.971 27.285-5.136 26.994 0.503-8.289 3.059-19.237 5.962-24.153 8.524-14.405 20.388-15.16 42.297-19.539C60.393 181.541 76.063 178.771 78.558 167.843L78.558 167.843z" fill="#67361f" stroke-width="none" opacity="1" stroke="none"></path><path id="SvgjsPath4415" d="M51.206 189.513c0 0 28.641 0.299 33.473 1.885 2.314 0.758 8.372 5.633 8.372 5.633s-6.556-3.17-8.658-3.758C79.51 191.909 51.206 189.513 51.206 189.513zM99.795 199.999c2.053-0.041 7.887-3.799 7.887-3.799s-5.574 2.059-7.342 2.16c-1.491 0.086-6.366-1.238-6.366-1.238S98.112 200.032 99.795 199.999zM117.008 192.757c6.75-1.818 29.786-3.23 29.786-3.23s-23.791-0.516-30.51 1.725c-2.252 0.752-7.562 5.16-7.562 5.16S114.786 193.354 117.008 192.757z" fill="#491c08" stroke-width="none" opacity="1" stroke="none"></path><path id="SvgjsPath4416" d="M190.858 199.866c-9.741-16.471-29.122-15.142-46.077-18.535 -6.86-1.373-23.153-5.789-23.339-13.488 -0.192-8.066 4.291-40.09 4.291-40.09H74.005c0 0 4.487 32.023 4.294 40.09 -0.184 7.699-16.48 12.115-23.341 13.488 -7.104 1.422-20.125 2.584-26.448 4.6 -6.156 1.963-13.624 3.777-19.632 13.936 -3.644 6.16-6.008 16.133-6.008 27.133h194C196.869 215.999 194.509 206.026 190.858 199.866z" fill="none" stroke="#2a0d00" stroke-width="1.5" opacity="1"></path></g><g id="svga-group-chinshadow-single"><path id="SvgjsPath4695" d="M100.002 171.005c10.695 0 16.372-2.606 20.836-5.726 0.384-8.456 2.755-26.607 3.782-34.206 -14.799-1.759-34.763-1.747-49.5 0.032 1.023 7.564 3.362 25.461 3.771 33.979C83.4 168.289 89.086 171.005 100.002 171.005z" fill="url(#SvgjsLinearGradient4696)" opacity="1"></path></g><g id="svga-group-clothes-single" ><path id="SvgjsPath4680" d="M4.299 238.659c-0.18-1-2.264-16.415-2.47-22.946 -0.294-9.499 1.371-23.079 10.881-22.987 10.824-7.524 29.089-14.021 41.718-17.795 7.903-8.587 9.483-11.971 22.612-17.874l-0.01-0.127c1.513 10.484 2.967 15.62-8.844 19.862 -1.893 2.63-3.665 5.194-6.158 8.787 3.793 20.511 4.981 34.739 5.444 53.437 0 0 3.771 0.011 65.288-0.271 2.066-21.594-0.221-33.876 4.806-53.726 0 0-4.021-4.846-6.726-8.573 -11.595-4.517-9.139-11.206-8.146-19.353 10.072 4.714 13.179 8.309 21.653 17.281 6.702 1.904 13.776 3.962 20.646 6.653 9.097 3.563 20.648 10.538 21.648 11.366 3.7-0.107 5.789 1.931 7.347 5.283 5.044 10.821 3.85 26.385 2.034 41.358C178.207 239.065 55.08 241.174 4.299 238.659z" fill="#92002a" stroke-width="none" opacity="1" stroke="none"></path><path id="SvgjsPath4681" d="M77.464 159.895c0.149 1.034 0.284 2.015 0.383 2.938 -0.204 0.257-15.968 22.574-16.084 22.742C65.661 176.392 71.143 166.878 77.464 159.895zM122.424 159.895c-0.148 1.034-0.172 2.015-0.271 2.938 0.203 0.257 15.799 21.719 15.914 21.887C133.938 176.165 128.746 166.878 122.424 159.895zM158.775 189.93c-3.994 6.022-4.847 8.102-9.219 14.07 1 0 2.612 0.162 3.612 0.162C156.588 198.086 156.594 194.993 158.775 189.93zM162.868 233.644c3.54-8.603 6.471-16.152 10.022-24.768l-1.164-1.946C168.77 215.778 165.631 224.77 162.868 233.644zM46.831 204.162c1 0 2.612-0.162 3.612-0.162 -4.372-5.969-5.225-6.342-9.219-12.364C43.406 196.699 43.412 198.086 46.831 204.162zM28.273 206.93l-1.164 1.946c3.552 8.615 4.447 16.165 7.987 24.768C32.333 224.77 31.23 215.778 28.273 206.93z" fill="#830026" stroke-width="none" opacity="1" stroke="none"></path><path id="SvgjsPath4682" d="M77.059 169.855c-0.83 2.3-3.59 4.11-5.59 5.25 -0.97 0.55-1.99 1.02-3.02 1.46 0.47-0.68 0.95-1.36 1.44-2.03 2.32-3.24 4.58-6.5 6.75-9.85 0.31-0.48 0.61-0.97 0.91-1.46C77.709 165.396 77.889 167.875 77.059 169.855zM123.169 170.306c-1.26-2.11-1.14-4.94-1-7.351 2.3 4.101 4.72 8.11 7.45 11.971 0.28 0.399 0.56 0.79 0.85 1.18C127.549 174.795 124.829 173.096 123.169 170.306z" fill="#730021" stroke-width="none" opacity="1" stroke="none"></path><path id="SvgjsPath4683" d="M122.672 157.263c0.007-0.057 0.015-0.112 0.021-0.169 16.884 9.666 24.725 22.013 36.082 32.836 -0.418 0.697-1.146 1.155-1.573 1.843C145.308 182.397 141.597 170.396 122.672 157.263zM75.469 157.905c-14.219 4.537-32.507 31.672-34.445 33.519 0.418 0.697 0.645 0.558 1.073 1.245C53.992 183.294 54.309 172.286 75.469 157.905zM193.988 197.678c-1.558-3.353-3.646-5.391-7.347-5.283 -1-0.828-12.552-7.804-21.648-11.366 -6.636-2.6-13.705-3.761-20.203-5.61 31.446 15.756 44.648 20.435 50.14 26.017C194.642 200.654 194.332 198.416 193.988 197.678zM10 198c14.511-7.683 26.714-13.407 44.203-23.001 -12.62 3.784-30.732 10.246-41.493 17.727 -7.185-0.069-9.89 7.664-10.658 15.546C5.147 202.205 6.798 200.401 10 198z" fill="#a1103a" stroke-width="none" opacity="1" stroke="none"></path><path id="SvgjsPath4684" d="M197.589 214.005c-0.21-5.52-1.16-11.329-3.51-16.369 -1.24-2.67-2.91-4.83-5.979-5.24 -0.36-0.05-0.721-0.08-1.08-0.09 -0.11-0.011-0.23-0.021-0.341-0.011 -0.069-0.06-0.149-0.1-0.22-0.149 -2.31-1.47-4.7-2.82-7.01-4.17 -4.66-2.721-9.39-5.07-14.42-7.04 -6.74-2.641-13.66-4.67-20.61-6.63 -0.79-0.83-1.59-1.67-2.38-2.511 -3.51-3.729-6.99-7.409-11.24-10.319 -2.3-1.58-4.75-2.92-7.27-4.101 -0.271-0.13-0.54-0.25-0.811-0.38 -0.029-0.02-0.069-0.029-0.109-0.05 -0.021 0.2-0.05 0.39-0.08 0.58 -0.2 1.33-0.42 2.67-0.58 4 -0.04 0.29-0.07 0.57-0.1 0.86 -0.011 0.149-0.03 0.29-0.04 0.439 -0.23 2.66-0.32 5.66 1.159 8 1.82 2.87 4.7 4.49 7.79 5.68 2.011 2.771 4.12 5.431 6.36 8.061 0.12 0.14 0.24 0.28 0.35 0.43 -0.939 3.71-1.59 7.51-2.17 11.28 -0.819 5.42-1.35 10.84-1.489 16.32 -0.15 5.449-0.011 10.939-0.311 16.39 -0.17 3.22-0.53 6.44-0.83 9.66 -1.069 0-2.14 0.01-3.21 0.01 -10.58 0.05-21.149 0.1-31.72 0.15 -10.06 0.05-20.11 0.08-30.17 0.109 -0.21-9.699-0.71-19.359-1.81-29.01 -0.58-5.01-1.06-10.04-1.95-15.01 -0.55-3.09-1.1-6.18-1.7-9.26 2.03-2.92 4.05-5.851 6.11-8.75 3.65-1.311 7.29-3.131 9.13-6.58 1.14-2.16 0.78-5.261 0.54-7.65 -0.01-0.1-0.02-0.189-0.03-0.29 -0.03-0.27-0.05-0.53-0.09-0.79 -0.15-1.359-0.36-2.72-0.55-4.07 -0.04-0.199-0.06-0.39-0.09-0.59 -0.05 0.021-0.09 0.04-0.13 0.051 -0.29 0.13-0.58 0.25-0.87 0.369 -2.75 1.17-5.42 2.521-7.9 4.181 -2.34 1.56-4.5 3.33-6.53 5.27 -1.99 1.91-3.76 4.09-5.6 6.141 -0.57 0.64-1.14 1.27-1.7 1.909 -1.31 0.391-2.61 0.801-3.91 1.2 -4.93 1.53-9.75 3.29-14.58 5.11 -2.61 0.99-5.18 2.07-7.75 3.16 -2.38 1.02-4.81 2.01-7.07 3.279 -2.51 1.4-5.09 2.86-7.56 4.48 -0.18 0.11-0.36 0.229-0.54 0.35 -0.11 0.07-0.21 0.141-0.31 0.21 -0.6-0.01-1.2 0.03-1.79 0.15 -3.79 0.729-6.07 4.16-7.31 7.55 -1.79 4.891-2.01 10.24-1.85 15.391 0.17 5.38 0.92 10.71 1.56 16.039 0.27 2.271 0.57 4.53 0.9 6.79 0 0.07 0.01 0.141 0.03 0.21 0.61 0.03 1.22 0.061 1.83 0.091 4.09 0.21 8.18 0.39 12.27 0.479 16.34 0.37 32.69 0.65 49.03 0.71 0.08 0 0.16 0 0.24 0 4.1 0.01 8.19 0.01 12.29-0.01 11.2-0.06 22.4-0.11 33.61-0.16 6.36-0.03 12.72-0.06 19.08-0.1 0.09 0 0.18 0 0.27-0.011 5.011-0.02 10.021-0.06 15.03-0.119 15.45-0.16 30.91-0.36 46.36-0.48 0.63-0.01 1.25-0.02 1.88-0.02 0.02-0.131 0.029-0.25 0.04-0.381 0.279-2.46 0.529-4.93 0.76-7.39C197.449 225.565 197.81 219.835 197.589 214.005zM77.059 169.855c-0.83 2.3-3.59 4.11-5.59 5.25 -0.97 0.55-1.99 1.02-3.02 1.46 0.47-0.68 0.95-1.36 1.44-2.03 2.32-3.24 4.58-6.5 6.75-9.85 0.31-0.48 0.61-0.97 0.91-1.46C77.709 165.396 77.889 167.875 77.059 169.855zM64.689 238.926c-12.94 0.029-25.88 0.06-38.82-0.011 -0.1 0-0.19 0-0.29 0 -6.52-0.04-13.03-0.16-19.55-0.319 -0.29-2.9-0.59-5.811-0.94-8.71 -0.69-5.681-1.44-11.36-1.4-17.101 0.03-5.2 0.18-11.33 3.06-15.859 1.11-1.75 2.74-2.95 4.65-3.421 0.54-0.14 1.11-0.22 1.7-0.22 0.01-0.01 0.01-0.01 0.02 0 0.31 2.05 0.66 4.09 1.01 6.141 0.36 2.159 0.64 4.34 1.22 6.449 0.62 2.19 1.25 4.38 1.95 6.551 1.3 4 2.59 8 3.85 12.02 1.26 4.06 3.14 7.86 4.73 11.79 -1.11-4.08-2.59-8.04-3.6-12.14 -0.99-3.98-2.25-7.83-3.53-11.721 -0.37-1.12-0.71-2.239-1.03-3.37 -0.94-3.229-1.72-6.47-2.45-9.77 -0.49-1.98-0.96-3.96-1.44-5.94 -0.03-0.119-0.06-0.229-0.09-0.35 0.12-0.06 0.24-0.12 0.35-0.18 0.28-0.15 0.56-0.29 0.83-0.431 2.67-1.39 5.35-2.76 8.08-4.02 4.87-2.23 9.93-4.21 14.94-6.11 5.05-1.91 10.08-3.859 15.1-5.85 -2.34 2.63-4.66 5.27-6.93 7.96 -1.78 2.11-3.35 4.35-4.84 6.64 -0.14 0.21-0.28 0.42-0.41 0.641 0.11 0.189 0.23 0.37 0.36 0.56 2.54 3.89 5.15 7.76 7.83 11.561 -2.62 0.22-5.24 0.47-7.85 0.789 -3.51 0.431-6.99 0.931-10.44 1.721 -0.73 0.17-1.46 0.33-2.2 0.479 -0.31 0.07-0.62 0.141-0.94 0.2 0.07 0.2 0.13 0.41 0.19 0.61 2.53 8.71 4.24 17.66 7.32 26.22 -0.87-5.3-1.74-10.57-2.98-15.8 -0.72-2.99-1.52-5.96-2.6-8.851 -0.21-0.58-0.45-1.149-0.7-1.72 0.7-0.1 1.4-0.22 2.1-0.35 3.52-0.63 7.04-1.2 10.59-1.63 2.64-0.32 5.26-0.71 7.88-1.141 0.39-0.06 0.78-0.12 1.17-0.189 -0.09-0.15-0.18-0.301-0.27-0.45 -1.07-1.82-2.21-3.601-3.41-5.36 -1.66-2.33-3.38-4.56-5.18-6.74 1.78-2.289 3.72-4.42 5.72-6.529 3.1-3.271 6.08-6.63 9.08-9.99 0.26-0.3 0.53-0.61 0.8-0.91 0.06-0.06 0.11-0.13 0.17-0.189 3.5-3.95 6.95-7.83 11.19-11.051 2.44-1.869 5.06-3.47 7.78-4.93 0.2-0.11 0.39-0.21 0.59-0.31 0.14 1.47 0.3 2.939 0.4 4.42 -2.85 4.09-5.75 8.149-8.67 12.21 -0.74 1.02-1.46 2.05-2.17 3.08 -0.04 0.05-0.08 0.109-0.12 0.16 -1.58 2.3-3.12 4.63-4.61 6.989 -0.13 0.21-0.26 0.41-0.39 0.62 0.05 0.42 0.09 0.83 0.14 1.24 0.97 9.04 1.84 18.09 2.86 27.13 0.95 8.49 1.65 17 2.7 25.47C66.359 238.926 65.529 238.926 64.689 238.926zM123.169 170.306c-1.26-2.11-1.14-4.94-1-7.351 2.3 4.101 4.72 8.11 7.45 11.971 0.28 0.399 0.56 0.79 0.85 1.18C127.549 174.795 124.829 173.096 123.169 170.306zM189.979 238.695c-5.431-0.03-10.87-0.06-16.301-0.08 -13.55-0.04-27.09-0.03-40.63 0.03 0.11-0.62 0.23-1.25 0.34-1.87 0.551-3.04 1.25-6.12 1.45-9.2 0.37-5.479 0.511-10.939 0.66-16.43 0.14-5.41 0.78-10.811 1.32-16.18 0.319-3.141 0.64-6.29 1.12-9.41 0.06-0.41 0.12-0.811 0.189-1.21 -0.1-0.15-0.21-0.29-0.319-0.44 -0.021-0.02-0.03-0.04-0.051-0.06 -1.71-2.23-3.46-4.42-5.149-6.66 -0.07-0.09-0.141-0.181-0.21-0.271 -0.65-0.859-1.29-1.729-1.91-2.609 -2.851-4.04-5.561-8.181-8.25-12.33 0.1-1.46 0.28-2.91 0.42-4.37 0.18 0.11 0.37 0.21 0.55 0.32 2.45 1.43 4.84 2.97 7.061 4.739 4.069 3.24 7.569 6.99 11.1 10.771 0.01 0.01 0.02 0.03 0.03 0.04 0.29 0.31 0.58 0.62 0.87 0.93 3.14 3.35 6.3 6.68 9.6 9.88 2 1.94 4.09 3.78 6.15 5.66 -0.36 0.44-0.71 0.88-1.061 1.33 -1.56 2.02-2.88 4.27-4.25 6.42 -1.189 1.96-2.32 3.94-3.39 5.96 -0.08 0.14-0.15 0.28-0.22 0.42 0.369 0.07 0.739 0.141 1.109 0.2 2.8 0.51 5.62 0.97 8.44 1.36 4.1 0.569 8.18 1.26 12.279 1.8 -0.229 0.43-0.439 0.859-0.649 1.29 -1.34 2.75-2.43 5.84-3.351 8.75 -1.699 5.359-3.06 10.72-4.06 16.26 1.01-2.63 1.94-5.28 2.87-7.93 0.99-2.84 1.8-5.761 2.83-8.59 1.16-3.211 2.29-6.431 3.41-9.65 0.069-0.19 0.13-0.37 0.199-0.561 -0.319-0.05-0.64-0.109-0.949-0.159 -4.15-0.75-8.29-1.521-12.471-2.11 -2.729-0.38-5.479-0.69-8.229-0.96 2.81-4.36 5.47-8.81 8.13-13.26 0.1-0.181 0.21-0.351 0.31-0.521 -0.159-0.2-0.33-0.39-0.51-0.58 -2.01-2.25-4.109-4.439-6.149-6.68 -2.16-2.38-4.37-4.72-6.591-7.05 6.46 2.38 12.95 4.66 19.381 7.109 4.77 1.82 9.3 4.23 13.85 6.54 2.03 1.021 4.11 2 6.16 3.04 0.24 0.11 0.479 0.23 0.71 0.351 0.149 0.08 0.29 0.149 0.43 0.229 -0.57 2.19-1.38 4.29-2.11 6.431 -1.05 3.08-1.88 6.22-2.779 9.35 -0.37 1.27-0.75 2.54-1.16 3.8 -1.37 4.17-2.66 8.32-3.73 12.59 -0.93 3.7-1.859 7.41-2.779 11.11 2.979-7.91 5.47-15.97 8.08-24.01 1.409-4.34 2.47-8.771 3.68-13.17 0.53-1.931 1.03-3.84 1.4-5.79 0.029-0.15 0.06-0.3 0.09-0.46 0.229 0.02 0.449 0.05 0.67 0.1 0.59 0.1 1.149 0.271 1.689 0.49 1.36 0.56 2.311 1.71 3.011 3.07 0.02 0.029 0.029 0.06 0.05 0.09 0.79 1.56 1.25 3.38 1.63 4.859 2.66 10.36 1.72 21.28 0.75 31.78 -0.17 1.85-0.33 3.69-0.48 5.54C192.839 238.716 191.409 238.705 189.979 238.695z" fill="#64001d" stroke-width="none" opacity="1" stroke="none"></path></g><g id="svga-group-head" ><g id="svga-group-ears-left" style="display:none;"><path id="SvgjsPath4675" d="M47.69 82.611c-1.588-2.324-8.025-7.659-11.703-6.839 -4.355 0.971-5.708 4.275-5.603 6.332 0.606 11.758 4.426 11.749 6.71 16.271 1.709 3.383 3.126 4.933 4.172 11.692 0.598 3.866 4.427 6.83 7.217 6.684 3.908-0.205 6.994-3.634 8.291-7.014C59.463 102.718 51.823 88.658 47.69 82.611z" fill="#582812" stroke="#2a0d00" stroke-width="1.5" opacity="1"></path><path id="SvgjsPath4676" d="M43.274 99.484c-0.15-0.542-0.062-1.474 0.024-2.376 0.077-0.821 1.438-3.801 1.348-4.341 -0.344-2.022-1.931-5.809-2.949-7.853 -1.169-2.35-3.604-5.289-5.79-5.943 -0.904-0.271-3.479 0.039-3.781 0.625 -1.131 2.191-0.615 4.313 1.1 9.984 0.85 2.809 3.915 6.069 3.998 6.395 1.067 4.247 5.099 11.032 6.488 12.554 0.256 0.281 0.519 0.442 0.579 0.367 0.059-0.075-0.104-0.359-0.361-0.642 -1.372-1.513-5.367-8.282-6.396-12.38 -1.092-4.347 2.313-11.094 2.93-12.516 0.379 0.627 0.703 1.233 0.954 1.738 0.198 0.397 0.417 0.861 0.645 1.364 -0.367 0.744-4.245 6.226-3.026 10.371 0.451 1.528 2.054 4.491 3.432 6.049 0.483 0.546 0.893 0.702 1.19 1.207 0.341 0.586 0.732 1.251 1.792 1.687 0.215 0.089 0.408 0.118 0.577 0.108 0.293-0.019 0.51-0.157 0.667-0.318 0.029 0.265 0.044 0.604 0.051 0.919 0.007 0.404 0.073 0.735 0.162 0.738s0.168-0.325 0.161-0.729c-0.009-0.497-0.04-1.113-0.132-1.403 -0.273-0.854-1.028-1.791-1.829-2.781C44.319 101.332 43.505 100.323 43.274 99.484zM36.96 93.913c-2.347-6.628-1.518-13.365-1.103-14.318 1.345 0 3.778 2.439 4.397 3.42C39.874 83.854 36.837 89.368 36.96 93.913zM45.559 105.428c-0.961-0.395-1.303-0.979-1.635-1.545 -0.299-0.513-1.018-1-1.346-1.348 -0.191-0.204-0.531-0.75-0.715-0.872 -1.762-7.438 1.345-10.152 1.967-10.722 0.231 0.712 0.411 1.368 0.5 1.896 0.082 0.485-1.28 3.474-1.352 4.231 -0.089 0.939-0.182 1.911-0.012 2.526 0.253 0.917 1.093 1.955 1.904 2.96 0.72 0.892 1.459 1.811 1.732 2.581C46.509 105.299 46.204 105.692 45.559 105.428z" fill="#2a0d00" stroke-width="none" opacity="1" stroke="none"></path></g><g id="svga-group-ears-right" style="display:none;"><path id="SvgjsPath4677" d="M152.049 82.611c1.588-2.324 8.025-7.659 11.701-6.839 4.357 0.971 5.709 4.275 5.604 6.332 -0.605 11.758-4.426 11.749-6.709 16.271 -1.711 3.383-3.127 4.933-4.174 11.692 -0.598 3.866-4.428 6.83-7.217 6.684 -3.908-0.205-6.994-3.634-8.291-7.014C140.275 102.718 147.916 88.658 152.049 82.611z" fill="#582812" stroke="#2a0d00" stroke-width="1.5" opacity="1"></path><path id="SvgjsPath4678" d="M154.633 102.307c-0.801 0.99-1.557 1.928-1.83 2.781 -0.092 0.29-0.123 0.906-0.131 1.403 -0.008 0.404 0.072 0.732 0.16 0.729 0.09-0.003 0.154-0.334 0.162-0.738 0.008-0.315 0.021-0.654 0.051-0.919 0.156 0.161 0.373 0.3 0.666 0.318 0.17 0.01 0.361-0.02 0.578-0.108 1.061-0.436 1.449-1.101 1.791-1.687 0.297-0.505 0.709-0.66 1.191-1.207 1.377-1.559 2.98-4.521 3.432-6.049 1.219-4.145-2.66-9.627-3.027-10.371 0.229-0.503 0.447-0.967 0.645-1.364 0.252-0.505 0.576-1.111 0.955-1.738 0.617 1.421 4.021 8.168 2.93 12.516 -1.029 4.098-5.025 10.868-6.396 12.38 -0.256 0.282-0.42 0.566-0.361 0.642 0.061 0.075 0.322-0.086 0.578-0.367 1.391-1.521 5.422-8.307 6.49-12.554 0.082-0.326 3.146-3.586 3.996-6.395 1.715-5.671 2.232-7.793 1.102-9.984 -0.303-0.586-2.877-0.896-3.783-0.625 -2.186 0.655-4.619 3.594-5.789 5.943 -1.018 2.044-2.605 5.831-2.949 7.853 -0.09 0.54 1.271 3.52 1.348 4.341 0.086 0.902 0.176 1.834 0.025 2.376C156.232 100.323 155.42 101.332 154.633 102.307zM159.484 83.016c0.619-0.981 3.053-3.42 4.396-3.42 0.416 0.953 1.244 7.689-1.104 14.318C162.902 89.368 159.863 83.854 159.484 83.016zM153.137 105.137c0.273-0.771 1.012-1.689 1.732-2.581 0.811-1.005 1.65-2.044 1.904-2.96 0.168-0.616 0.076-1.587-0.014-2.526 -0.07-0.758-1.434-3.746-1.352-4.231 0.09-0.528 0.27-1.184 0.5-1.896 0.623 0.569 3.729 3.284 1.967 10.722 -0.184 0.122-0.523 0.668-0.715 0.872 -0.328 0.348-1.047 0.834-1.346 1.348 -0.332 0.565-0.674 1.15-1.635 1.545C153.533 105.692 153.23 105.299 153.137 105.137z" fill="#2a0d00" stroke-width="none" opacity="1" stroke="none"></path></g><g id="svga-group-faceshape-wrap" ><g id="svga-group-faceshape-single" ><path id="SvgjsPath4692" d="M100.002 0.867C66.384 0.919 39.082 28.09 39.134 61.564c0.008 5.316 0.704 10.471 2.002 15.382h0.001C41.15 77 52.68 114.915 55.158 127.369c1.382 6.945 9.063 15.403 16.531 20.513 6.967 4.767 11.263 11.388 28.313 11.388s21.346-6.621 28.313-11.388c7.468-5.109 15.149-13.567 16.531-20.513 2.479-12.454 14.009-50.37 14.02-50.423h0.002c1.298-4.911 1.994-10.066 2.002-15.382C160.923 28.09 133.62 0.919 100.002 0.867z" fill="#582812" stroke-width="none" opacity="1"></path><path id="SvgjsPath4693" d="M146.772 22.738c7.478 10.183 11.917 22.87 11.898 36.626 -0.009 5.316-0.679 10.471-1.93 15.382h-0.002c-0.011 0.053-11.124 37.969-13.512 50.423 -1.335 6.945-8.737 15.403-15.935 20.513 -6.718 4.767-10.854 11.388-27.291 11.388 -16.434 0-20.575-6.621-27.291-11.388 -7.197-5.109-14.602-13.567-15.931-20.513 -2.391-12.454-13.504-50.37-13.515-50.423h0c-1.252-4.911-1.922-10.066-1.931-15.382 -0.021-13.752 4.416-26.435 11.889-36.617 -8.812 10.525-14.112 24.056-14.089 38.817 0.008 5.316 0.704 10.471 2.002 15.382h0.001C41.15 77 52.68 114.915 55.158 127.369c1.382 6.945 9.063 15.403 16.531 20.513 6.967 4.767 11.263 11.388 28.313 11.388s21.346-6.621 28.313-11.388c7.468-5.109 15.149-13.567 16.531-20.513 2.479-12.454 14.009-50.37 14.02-50.423h0.002c1.298-4.911 1.994-10.066 2.002-15.382C160.894 46.799 155.589 33.264 146.772 22.738z" fill="#50220c" stroke-width="none" opacity="1"></path><path id="SvgjsPath4694" d="M100.002 0.867C66.384 0.919 39.082 28.09 39.134 61.564c0.008 5.316 0.704 10.471 2.002 15.382h0.001C41.15 77 52.68 114.915 55.158 127.369c1.382 6.945 9.063 15.403 16.531 20.513 6.967 4.767 11.263 11.388 28.313 11.388s21.346-6.621 28.313-11.388c7.468-5.109 15.149-13.567 16.531-20.513 2.479-12.454 14.009-50.37 14.02-50.423h0.002c1.298-4.911 1.994-10.066 2.002-15.382C160.923 28.09 133.62 0.919 100.002 0.867z" fill="none" stroke="#2a0d00" stroke-width="1.5" opacity="1"></path></g></g><g id="svga-group-mouth-single" ><path id="SvgjsPath4665" d="M99.867 142.685c-4.159 0-7.651-3.162-7.651-3.162 7.261 1.131 16.154-0.671 16.154-0.671S105.119 142.685 99.867 142.685z" fill="#491c08" stroke-width="none" opacity="1" stroke="none"></path><path id="SvgjsPath4666" d="M99.869 138.507c-2.691 0.025-8.86-1.635-11.18-2.938 -1.374-0.769-3.749-3.433-5.4-4.788 -0.635-0.521-0.371-1.528 0.466-1.569 2.036-0.099 4.65 0.979 5.876 1.169 2.565 0.389 5.805 1.835 10.195 1.835 3.262 0 6.828-1.15 9.101-1.574 1.367-0.254 4.529-1.376 6.755-1.501 0.838-0.05 1.18 0.777 0.56 1.316 -1.739 1.526-4.526 4.328-6.028 5.112C107.783 136.837 102.294 138.485 99.869 138.507z" fill="#000000" stroke-width="none" opacity="0.5"></path><path id="SvgjsPath4667" d="M86.859 129.328c0 0 0.286 2.427 0.722 3.12 0.6 0.954 4.257 2.914 5.717 3.188 0.993 0.184 2.814 0.476 3.816 0.613 1.085 0.148 1.695 0.015 2.791-0.021 1.179-0.038 2.186 0.132 3.336-0.135 0.819-0.19 3.215-0.834 3.997-1.145 0.604-0.242 1.814-0.643 2.364-0.992 0.456-0.288 1.866-1.333 2.146-1.795 0.366-0.605 0.709-2.752 0.709-2.752L86.859 129.328z" fill="#ffffff" stroke-width="none" opacity="1"></path><path id="SvgjsPath4668" d="M92.17 129.748c0 0-0.522 5.283-0.568 5.375 -0.047 0.092-0.179-5.375-0.179-5.375H92.17zM94.364 130.335l0.464 5.601 0.298-5.601H94.364zM99.485 131.161l0.579 5.088 0.375-5.176L99.485 131.161zM103.978 130.093c0.973 0.088 1.298 5.446 1.298 5.446l0.134-5.446H103.978zM107.705 129.438c0 0 0.386 5.114 0.44 5.018 0.053-0.097 0.153-5.018 0.153-5.018H107.705zM88.876 129.436l0.283 4.181 0.283-4.181H88.876zM110.375 129.011l0.086 4.38 0.432-4.413L110.375 129.011z" fill="#000000" stroke-width="none" opacity="0.1"></path><path id="SvgjsPath4669" d="M116.764 129.126c-1.218-0.406-3.771-0.125-5.061-0.294 -1.83-0.239-5.542-0.409-7.392-0.356 -1.161 0.034-3.449 0.457-4.608 0.484 -1.191 0.027-3.562-0.461-4.751-0.471 -1.888-0.012-5.689 0.214-7.54 0.534 -1.279 0.222-3.89-0.113-4.914 0.475 -0.237 0.137-0.095 0.75 0 0.981 0.862 2.089 4.188 5.489 7.067 7.497 3.698 2.579 7.586 3.38 10.643 3.381 4.035 0.003 8.785-2.247 12.762-5.639 1.758-1.5 3.982-4.091 4.353-5.537C117.512 129.451 117.079 129.231 116.764 129.126zM99.816 136.352c-2.488 0.019-8.26-1.229-10.697-2.494 -1.461-0.759-3.7-2.577-5.226-3.708 -0.588-0.435-0.454-0.789 0.321-0.822 1.882-0.084 5.042 0.944 6.177 1.1 2.371 0.324 5.366 1.531 9.425 1.531 3.013 0 6.312-0.959 8.414-1.311 1.264-0.213 4.833-1.278 6.89-1.384 0.775-0.04 0.926 0.276 0.354 0.727 -1.61 1.271-4.326 3.216-6.055 4.066C107.224 135.139 102.057 136.328 99.816 136.352z" fill="#92002a" stroke="#830026" stroke-width="0.75" opacity="1"></path><path id="SvgjsPath4670" d="M86.869 134.124c2.588 0.523 8.417 3.611 13.315 3.444 5.105-0.175 12.685-4.745 13.685-4.244 0.373 1.199-9.853 6.985-13.685 7.077C96.747 140.482 85.786 135.485 86.869 134.124zM99.485 131.161c3.109-0.042 6.909-0.442 9.469-1.672 -2.918-1.013-6.938 0.115-9.251 0.168 -3 0.07-5.51-0.934-8.289 0.058C94.069 130.622 96.798 131.198 99.485 131.161z" fill="#a1103a" stroke-width="none" opacity="1" stroke="none"></path><path id="SvgjsPath4671" d="M97.732 139.024c-1.881-0.424-1.945-0.596-0.162-0.42 1.09 0.106 2.18 0.132 3.238 0.03 0.141-0.015 0.281-0.029 0.419-0.049 1.195-0.157 2.479-0.546 3.768-1.051 2.015-0.792 2.051-0.6 0.053 0.446 -1.467 0.767-2.831 1.324-3.798 1.44l-0.062 0.007C100.364 139.509 99.123 139.34 97.732 139.024z" fill="#b1234c" stroke-width="none" opacity="1" stroke="none"></path><path id="SvgjsPath4672" d="M79.599 130.722c0 0-0.561-1.256-0.482-1.724 0.11-0.657 1.521-1.958 1.521-1.958s-0.854 1.498-0.986 1.971C79.523 129.468 79.599 130.722 79.599 130.722zM120.163 130.881c0 0 0.609-1.364 0.523-1.873 -0.119-0.714-1.652-2.127-1.652-2.127s0.929 1.628 1.072 2.142C120.245 129.519 120.163 130.881 120.163 130.881z" fill="#2a0d00" stroke-width="none" opacity="1" stroke="none"></path></g><g id="svga-group-eyes-left" ><g id="svga-group-eyesback-left"><path id="SvgjsPath4595" d="M86.66 84.231c0.748 1.472 1.181 3.05 1.181 4.654 0 3.108-1.716 5.337-3.133 6.88 -6.936 6.296-17.723 5.964-23.191-1.044 -0.984-1.617-1.528-3.528-1.518-5.667C65.019 76.267 78.859 72.676 86.66 84.231z" fill="url(#SvgjsRadialGradient4596)" opacity="1"></path></g><g id="svga-group-eyesiriswrapper-left" transform="translate(0 1)"><g id="svga-group-eyesiriscontrol-left" ><g id="svga-group-eyesiris-left" ><path id="SvgjsPath4653" d="M83.199 89.25c-1.231 4.522-5.896 7.187-10.429 5.944 -4.528-1.241-7.203-5.918-5.97-10.442 1.23-4.526 5.905-7.19 10.434-5.947C81.761 80.045 84.433 84.723 83.199 89.25z" fill="#7b5c33" stroke="#4d3009" stroke-width="0.5" opacity="1"></path><path id="SvgjsPath4654" d="M81.878 89.354c-1.202 3.473-4.827 5.499-8.357 4.531 -3.258-0.894-5.315-4.02-5.048-7.325 1.209-0.096 2.532-0.124 3.904-0.056 -0.014 0.047-0.039 0.087-0.051 0.136 -0.434 1.594 0.576 3.265 2.256 3.726 1.685 0.461 3.401-0.462 3.835-2.056 0.055-0.208 0.085-0.417 0.093-0.623C79.66 88.108 80.792 88.651 81.878 89.354z" fill="#8a6d47" stroke-width="none" opacity="1" stroke="none"></path><path id="SvgjsPath4655" d="M76.151 84.464c-1.703-0.487-3.44 0.485-3.88 2.181 -0.44 1.687 0.584 3.454 2.286 3.942 1.705 0.489 3.443-0.484 3.884-2.173C78.884 86.719 77.855 84.953 76.151 84.464zM76.523 90.46c-0.708 0.22-1.441-0.072-1.636-0.655 -0.188-0.582 0.231-1.228 0.945-1.443 0.712-0.22 1.442 0.073 1.639 0.651C77.665 89.593 77.241 90.24 76.523 90.46z" fill="#000000" stroke-width="none" opacity="0.9"></path><path id="SvgjsPath4656" d="M70.482 91.476c-0.523 0.314-1.307 0.034-1.754-0.633 -0.448-0.66-0.381-1.451 0.145-1.767 0.521-0.311 1.311-0.03 1.755 0.632C71.07 90.37 71.006 91.162 70.482 91.476z" fill="#ffffff" stroke-width="none" opacity="0.6"></path><path id="SvgjsPath4657" d="M81.673 86.632c-1.198 0.718-2.999 0.072-4.02-1.445 -1.02-1.518-0.867-3.331 0.332-4.047 1.196-0.721 3-0.074 4.015 1.444C83.019 84.101 82.871 85.913 81.673 86.632z" fill="#ffffff" stroke-width="none" opacity="0.9"></path></g></g></g><g id="svga-group-eyesfront-left"><path id="SvgjsPath4620" d="M55 89c0 13.808 8.507 24.999 19 24.999S93 102.808 93 89c0-13.809-8.507-25.001-19-25.001S55 75.191 55 89zM61.517 94.721c-0.984-1.617-1.528-3.528-1.518-5.667 5.02-12.787 18.86-16.378 26.661-4.822 0.748 1.472 1.181 3.05 1.181 4.654 0 3.108-1.716 5.337-3.133 6.88C77.772 102.061 66.985 101.729 61.517 94.721z" fill="#582812" stroke-width="none" opacity="1" stroke="none"></path><path id="SvgjsPath4621" d="M57.063 86.713c0.814 9.341 9.499 16.142 19.41 15.198 9.908-0.95 17.284-9.286 16.465-18.625 -0.814-9.342-9.5-16.145-19.412-15.199C63.615 69.038 56.243 77.374 57.063 86.713zM59.999 89.054c5.02-12.787 18.86-16.378 26.661-4.822 0.748 1.472 1.181 3.05 1.181 4.654 0 3.108-1.716 5.337-3.133 6.88 -6.936 6.296-17.723 5.964-23.191-1.044C60.532 93.104 59.988 91.193 59.999 89.054z" fill="url(#SvgjsRadialGradient4622)" opacity="1"></path><path id="SvgjsPath4626" d="M81.835 79.36c1.751 1.137 3.391 2.746 4.825 4.871 0.748 1.472 1.181 3.05 1.181 4.654 0 3.108-1.716 5.337-3.133 6.88 -6.936 6.296-17.723 5.964-23.191-1.044 -0.984-1.617-1.528-3.528-1.518-5.667 2.306-5.874 6.475-9.8 11.063-11.216 0.492-0.123 0.994-0.221 1.506-0.293C75.914 77.071 79.118 77.794 81.835 79.36z" fill="url(#SvgjsRadialGradient4627)" opacity="1"></path><path id="SvgjsPath4630" d="M85.831 76.642c-5.97-3.487-13.357-4.669-21.869-0.887C70.286 72.031 79.389 71.736 85.831 76.642z" fill="#2a0d00" stroke-width="none" opacity="1" stroke="none"></path><path id="SvgjsPath4631" d="M61.42 94.437c5.438 6.916 16.313 7.27 23.288 1.123C76.492 104.249 62.78 99.934 61.42 94.437zM89.378 80.015c-6.384-8.038-22.106-6.856-30.795-0.861 2.103-0.601 3.804-1.189 6.62-2.33 -5.615 2.601-5.615 4.669-10.263 9.476l2.246-1.852 -1.182 3.369c1.184-1.713 1.863-2.423 2.638-3.015 -0.296 1.064-0.473 1.714-0.709 3.015 1.58-2.138 2.498-3.246 3.724-4.197 -1.403 1.989-1.822 3.855-2.01 6.325 4.965-13.89 20.687-17.496 28.312-3.487 -0.464-2.242-1.42-3.989-2.482-5.556 1.747 0.8 3.175 2.443 4.492 4.965 -1.063-4.314-1.714-5.438-5.379-8.275L89.378 80.015z" fill="#302040" stroke-width="none" opacity="1" stroke="none"></path></g></g><g id="svga-group-eyes-right" ><g id="svga-group-eyesback-right"><path id="SvgjsPath4603" d="M113.34 84.231c-0.748 1.472-1.181 3.05-1.181 4.654 0 3.108 1.716 5.337 3.133 6.88 6.936 6.296 17.723 5.964 23.191-1.044 0.984-1.617 1.528-3.528 1.518-5.667C134.981 76.267 121.141 72.676 113.34 84.231z" fill="url(#SvgjsRadialGradient4604)" opacity="1"></path></g><g id="svga-group-eyesiriswrapper-right" transform="translate(0 1)"><g id="svga-group-eyesiriscontrol-right" ><g id="svga-group-eyesiris-right" ><path id="SvgjsPath4658" d="M133.199 89.25c-1.231 4.522-5.896 7.187-10.429 5.944 -4.528-1.241-7.203-5.918-5.97-10.442 1.23-4.526 5.905-7.19 10.434-5.947C131.761 80.045 134.433 84.723 133.199 89.25z" fill="#7b5c33" stroke="#4d3009" stroke-width="0.5" opacity="1"></path><path id="SvgjsPath4659" d="M131.878 89.354c-1.202 3.473-4.827 5.499-8.357 4.531 -3.258-0.894-5.315-4.02-5.048-7.325 1.209-0.096 2.532-0.124 3.904-0.056 -0.014 0.047-0.039 0.087-0.051 0.136 -0.434 1.594 0.576 3.265 2.256 3.726 1.685 0.461 3.401-0.462 3.835-2.056 0.055-0.208 0.085-0.417 0.093-0.623C129.66 88.108 130.792 88.651 131.878 89.354z" fill="#8a6d47" stroke-width="none" opacity="1" stroke="none"></path><path id="SvgjsPath4660" d="M126.151 84.464c-1.703-0.487-3.44 0.485-3.88 2.181 -0.44 1.687 0.584 3.454 2.286 3.942 1.705 0.489 3.443-0.484 3.884-2.173C128.884 86.719 127.855 84.953 126.151 84.464zM126.523 90.46c-0.708 0.22-1.441-0.072-1.636-0.655 -0.188-0.582 0.231-1.228 0.945-1.443 0.712-0.22 1.442 0.073 1.639 0.651C127.665 89.593 127.241 90.24 126.523 90.46z" fill="#000000" stroke-width="none" opacity="0.9"></path><path id="SvgjsPath4661" d="M120.482 91.476c-0.523 0.314-1.307 0.034-1.754-0.633 -0.448-0.66-0.381-1.451 0.145-1.767 0.521-0.311 1.311-0.03 1.755 0.632C121.07 90.37 121.006 91.162 120.482 91.476z" fill="#ffffff" stroke-width="none" opacity="0.6"></path><path id="SvgjsPath4662" d="M131.673 86.632c-1.198 0.718-2.999 0.072-4.02-1.445 -1.02-1.518-0.867-3.331 0.332-4.047 1.196-0.721 3-0.074 4.015 1.444C133.019 84.101 132.871 85.913 131.673 86.632z" fill="#ffffff" stroke-width="none" opacity="0.9"></path></g></g></g><g id="svga-group-eyesfront-right"><path id="SvgjsPath4641" d="M126 63.999c-10.493 0-19 11.192-19 25.001 0 13.808 8.507 24.999 19 24.999S145 102.808 145 89C145 75.191 136.493 63.999 126 63.999zM115.292 95.765c-1.417-1.542-3.133-3.771-3.133-6.88 0-1.604 0.433-3.182 1.181-4.654 7.801-11.556 21.642-7.964 26.661 4.822 0.011 2.139-0.533 4.05-1.518 5.667C133.015 101.729 122.228 102.061 115.292 95.765z" fill="#582812" stroke-width="none" opacity="1" stroke="none"></path><path id="SvgjsPath4642" d="M126.475 68.087c-9.912-0.946-18.598 5.857-19.412 15.199 -0.819 9.339 6.557 17.676 16.465 18.625 9.911 0.944 18.596-5.857 19.41-15.198C143.757 77.374 136.385 69.038 126.475 68.087zM138.483 94.721c-5.469 7.008-16.256 7.34-23.191 1.044 -1.417-1.542-3.133-3.771-3.133-6.88 0-1.604 0.433-3.182 1.181-4.654 7.801-11.556 21.642-7.964 26.661 4.822C140.012 91.193 139.468 93.104 138.483 94.721z" fill="url(#SvgjsRadialGradient4643)" opacity="1"></path><path id="SvgjsPath4647" d="M118.165 79.36c-1.751 1.137-3.391 2.746-4.825 4.871 -0.748 1.472-1.181 3.05-1.181 4.654 0 3.108 1.716 5.337 3.133 6.88 6.936 6.296 17.723 5.964 23.191-1.044 0.984-1.617 1.528-3.528 1.518-5.667 -2.306-5.874-6.475-9.8-11.063-11.216 -0.492-0.123-0.994-0.221-1.506-0.293C124.086 77.071 120.882 77.794 118.165 79.36z" fill="url(#SvgjsRadialGradient4648)" opacity="1"></path><path id="SvgjsPath4651" d="M114.169 76.642c5.97-3.487 13.357-4.669 21.869-0.887C129.714 72.031 120.611 71.736 114.169 76.642z" fill="#2a0d00" stroke-width="none" opacity="1" stroke="none"></path><path id="SvgjsPath4652" d="M115.292 95.56c6.975 6.147 17.85 5.792 23.288-1.123C137.22 99.934 123.508 104.249 115.292 95.56zM115.41 77.592c-3.665 2.837-4.315 3.96-5.379 8.275 1.317-2.522 2.745-4.165 4.492-4.965 -1.063 1.567-2.019 3.314-2.482 5.556 7.625-14.008 23.347-10.403 28.312 3.487 -0.188-2.47-0.606-4.335-2.01-6.325 1.226 0.951 2.144 2.059 3.724 4.197 -0.236-1.3-0.413-1.951-0.709-3.015 0.774 0.591 1.454 1.302 2.638 3.015l-1.182-3.369 2.246 1.852c-4.647-4.807-4.647-6.875-10.263-9.476 2.816 1.141 4.518 1.729 6.62 2.33 -8.688-5.995-24.411-7.177-30.795 0.861L115.41 77.592z" fill="#302040" stroke-width="none" opacity="1" stroke="none"></path></g></g><g id="svga-group-facehighlight-single" ><path id="SvgjsPath4405" d="M140.204 113.007c0.035 22.275-17.995 40.365-40.273 40.396 -22.274 0.036-40.361-17.993-40.396-40.272C59.501 90.857 77.53 72.77 99.808 72.735 122.083 72.701 140.171 90.73 140.204 113.007z" fill="url(#SvgjsRadialGradient4406)" opacity="1"></path><path id="SvgjsPath4409" d="M135,55.999c0,19.329-15.671,35-35,35c-19.329,0-35-15.671-35-35s15.671-35,35-35C119.329,20.999,135,36.67,135,55.999z" fill="url(#SvgjsRadialGradient4410)" opacity="1"></path></g><g id="svga-group-eyebrows-left" ><path id="SvgjsPath4663" d="M56.113 70.739c32.178-9.407 39.48 9.836 32.802 3.849C81.977 68.368 65.958 68.92 56.113 70.739z" fill="#3b3128" stroke-width="none" opacity="1" stroke="none"></path></g><g id="svga-group-eyebrows-right" ><path id="SvgjsPath4664" d="M143.889 70.731c-9.304-1.701-22.773-2.38-30.946 2.53 -1.01 0.606-5.017 4.041-3.951 1.625C110.929 70.486 123.744 64.882 143.889 70.731z" fill="#3b3128" stroke-width="none" opacity="1" stroke="none"></path></g><g id="svga-group-nose-single" ><path id="SvgjsPath4673" d="M100.809 119.998c-0.345 0.375-0.628 0.33-0.954-0.059l-3.63-4.392h8.911L100.809 119.998z" fill="#491c08" stroke-width="none" opacity="1" stroke="none"></path><path id="SvgjsPath4674" d="M95.208 116.229l4.719 3.839c0.394 0.32 0.545 0.199 0.34-0.27l-1.683-3.813c-0.082-0.185-0.107-0.495-0.057-0.691l1.229-19.37 -4.681 19.008C94.755 115.327 94.814 115.91 95.208 116.229z" fill="#2a0d00" stroke-width="none" opacity="1" stroke="none"></path></g><g id="svga-group-hair-front" ><path id="SvgjsPath4574" d="M60.35 193.688c1.158-14.492 0.475-21.283-0.77-33.608 -2.595-25.694-3.31-42.128-4.043-68.959 -0.316-11.197-0.641-22.776 3.313-33.606 3.554-10.115 11.301-18.694 20.722-22.95 7.624-3.447 14.646-3.392 22.43-3.392 9.351 0 15.884 0.73 21.614 4.47 16.191 10.58 17.635 25.628 19.629 46.457 2.178 22.685 1.116 25.168 1.134 46.728 0.03 49.463-3.013 57.144 2.977 99.22 6.649 0.343 26.664-167.79 4.624-195.021 -12.594-15.575-87.972-7.296-98.007-0.403 -16.856 11.572 1.878 194.396 1.878 194.396C55.895 225.376 60.088 196.829 60.35 193.688z" fill="#3b3128" stroke-width="none" opacity="0.1" stroke="none"></path><path id="SvgjsPath4575" d="M58.48 202.358c1.212-15.154 0.495-22.254-0.806-35.143 -2.714-26.865-3.462-44.05-4.228-72.104 -0.33-11.708-0.671-23.814 3.464-35.139 3.719-10.576 11.822-19.547 21.678-23.997 7.975-3.604 15.32-3.547 23.465-3.547 9.779 0 16.612 0.765 22.609 4.675 16.939 11.062 18.443 26.796 20.532 48.575 2.279 23.72 1.17 26.316 1.183 48.859 0.037 51.718-3.554 59.332 2.714 103.329 6.955 0.357 27.631 1.225 34.401 0.728 5.637-57.613-7.946-77.721-10.325-127.722 -1.139-24.668-2.271-67.687-25.324-96.161C134.665-1.573 119.08-6.259 101.801-2.154 88.552-4.505 75.76-1.338 65.263 5.871 47.63 17.97 32.909 43.054 31.021 64.217c-2.411 27.16 2.334 39.43-2.501 66.618 -5.761 32.415-14.864 57.097-10.235 104.528 5.256 0.388 35.999 1.845 35.999 1.845C54.328 235.491 58.206 205.643 58.48 202.358z" fill="#3b3128" stroke-width="none" opacity="1" stroke="none"></path><path id="SvgjsPath4576" d="M156.514 238.203c-3.052-0.125-5.674-0.247-7.423-0.337 -6.268-43.997-2.677-51.611-2.714-103.329 -0.013-22.543 1.097-25.14-1.183-48.859 -2.089-21.778-3.593-37.513-20.532-48.575 -10.166-6.63-35.575-5.874-46.074-1.127 -9.855 4.45-17.959 13.421-21.678 23.997 -4.136 11.325-3.794 23.431-3.464 35.139 0.766 28.055 1.514 45.239 4.228 72.104 1.301 12.889 2.019 19.988 0.806 35.143 -0.274 3.284-4.152 33.133-4.197 34.85 0 0-3.401-0.161-8.125-0.391 0.354-11.398 5.847-22.797 6.771-34.195 1.944-48-11.669-94-0.972-143 2.916-12 7.778-22 18.475-28 9.207-5.261 26.281-6.583 32.057-2.817 0.096-0.611 0.196-1.222 0.289-1.869 1.514-8.9-1.219-12.378 1.395-18.231 -2.012 5.547 0.221 9.073-0.122 15.242 -0.069 1.079-0.416 2.695-0.861 4.65 6.292-2.681 20.152-1.896 26.556 3.025 33.178 25.495 17.501 112 22.364 169C152.767 213.505 154.927 225.928 156.514 238.203zM53.269 39.909C60.691 29.864 72.2 20.585 84.275 18.63c2.96-0.479 5.707-0.608 5.531-0.598C77.578 18.446 67.012 22.58 57.789 32.8 46.872 44.509 47.371 54.632 47.321 57.023 47.732 50.831 48.508 47.439 53.269 39.909zM109.749 21.904c1.317-0.368 4.279-1.342 8.201-1.098 15.563 0.723 34.484 18.312 36.685 42.554 0.576 5.964 1.216 24.332 0.4 10.625 -0.497-8.323-1.369-12.445-2.197-16.1 -4.167-18.454-23.161-40.319-41.44-36.366C110.345 21.765 109.749 21.904 109.749 21.904zM42.198 86.344c0.791 27.147 2.753 45.85 2.237 58.753 -1.471 16.183-3.123 29.451-3.123 29.451 -0.03 0.413 0.08-1.676 0.305-5.11C44.104 134.158 41.714 129.297 42.198 86.344zM156.817 88.121c0.417 7.484 2.223 39.41 2.494 46.176 0.227 5.292 0.263 40.677 0.381 42.338C159.72 177.225 157.602 148.345 156.817 88.121zM164.506 97.312c0.925 14.561 6.923 72.884 14.438 100.406 0.145 0.453-0.622-1.821-1.851-5.594C167.657 161.228 165.585 129.036 164.506 97.312zM38.992 117.395c-1.623 6.133-0.24 9.802-0.187 15.916 -0.286 14.263-5.243 30.714-7.033 38.957 -2.097 8.726-2.847 32.982-2.842 33.984 -0.033 1-0.85-26.039 3.125-42.239 10.377-40.344 3.92-29.618 6.383-44.87C38.791 118.026 38.992 117.395 38.992 117.395zM106.508 6.016c4.76-1.002 3.222-0.752 7.014-1.173 16.098-1.667 26.966 10.983 29.381 12.878 0.138 0.13-0.571-0.515-1.729-1.582C126.713 4.276 117.499 4.108 106.508 6.016zM57.182 29.987c6.694-6.878 14.555-16.267 30.61-16.92 6.169-0.293 9.09 1.436 10.062 1.682 0 0-8.626-4.578-25.444 3.183C66.992 20.292 60.918 26.445 57.182 29.987z" fill="#2c2219" stroke-width="none" opacity="1" stroke="none"></path><path id="SvgjsPath4577" d="M184.627 202.31c-11.808-41.571-15.057-85.129-18.904-128.688 -3.153-28.372-15.003-61.281-41.116-72.753 -2.839-1.247-27.424-2.821-39.59 0.753 -41.812 10-53.492 58.916-50.563 100 2.212 31.021-9.32 67.609-17.325 101.74 0.902-28.354 7.081-48.278 11.391-72.527 4.835-27.188 0.09-39.458 2.501-66.618C32.909 43.054 47.63 17.97 65.263 5.871 75.76-1.338 88.552-4.505 101.801-2.154c12.718-3.021 24.514-1.269 35.107 6.351 0.023 0.004 0.048 0.011 0.072 0.015 3.741 2.716 7.431 6.261 10.862 10.499 23.054 28.474 24.186 71.492 25.324 96.161C174.967 148.733 183.188 169.466 184.627 202.31zM55.419 27.308c-5.997 7.544-2.415 2.772 3.69-3.506C76.943 7.338 88.264 6.365 98.295 8.659 81.472 4.024 66.606 13.774 55.419 27.308zM111.979 11.433c11.421-3.929 25.295-1.496 39.866 21.474 10.844 18.168 10.938 40.817 11.57 43.92 0.059 0.443-0.307-1.789-0.794-5.48 -1.308-8.44-3.563-29.778-22.548-51.36C135.036 14.173 124.136 7.854 111.979 11.433zM157.705 66.21c3.031 29.726 4.887 72.826 4.887 72.826 0.056 0.683-0.711-6.873-1.462-15.11C158.358 93.735 159.653 97.339 157.705 66.21zM154.559 136.402c0.332 21.587 0.059 17.159 2.332 48.097 1.977 16.713 2.607 19.68-0.461 1.053C153.621 167.693 154.113 155.258 154.559 136.402zM164.298 144.114c3.975 29.918 3.572 29.703 4.521 45.704 1.172 16.188 1.584 18.725-0.499 0.988C167.087 180.877 166.418 167.275 164.298 144.114zM48.856 38.604C42.754 50.786 41.06 60.74 39.84 74.385c-1.997 19.679-0.178 21.159-1.365 34.119 -0.013 0.167 0.007-0.172 0.046-0.899C38.99 91.267 34.574 64.494 48.856 38.604zM60.097 37.08c-6.143 5.974-9.404 17.112-11.477 25.781 -4.44 19.145-2.167 83.919-3.542 36.666 -0.629-17.744-1.211-32.394 7.84-52.141C54.873 43.101 56.972 39.759 60.097 37.08zM46.554 137.29c0.157 11.389 1.336 12.657 2.418 25.876 1.28 12.79-2.299 33.213-2.422 35.392 -0.194 1.541 2.623-23.021 1.202-40.579C46.261 141.57 46.374 144.686 46.554 137.29zM39.933 152.671c-2.873 11.796-1.906 13.18-5.192 60.408C34.667 214.079 34.458 171.888 39.933 152.671zM66.763 29.981c0.972-0.551 14.882-11.058 28.83-6.116 1.283 0.413 2.125 0.836 2.276 0.867 0.972 0.387-5.218-2.399-11.905-1.512C75.772 24.125 68.383 29.131 66.763 29.981zM106.568 19.154c2.092-0.977 4.102-2.125 9.005-2.732 13.841-1.694 22.483 9.902 23.455 10.708 0.943 1.03-4.335-5.62-12.846-8.638 -1.473-0.502-0.018-0.072-2.558-0.81 -0.412-0.144-2.072-0.543-3.782-0.742C114.035 16.403 111.294 17.185 106.568 19.154z" fill="#4a423a" stroke-width="none" opacity="1" stroke="none"></path><path id="SvgjsPath4578" d="M173.267 110.867c-1.178-24.84-2.121-67.53-25.351-96.22 -14.129-17.46-30.241-20.7-46.099-16.9 -12.067-2.14-25.018 0.08-36.609 8.04 -17.327 11.89-32.358 36.84-34.284 58.42 -2.411 27.17 2.334 39.43-2.498 66.61 -6.068 34.13-14.509 55.09-10.288 104.04 0.02 0.2 0.039 0.4 0.058 0.6 0.097 0.011 0.185 0.011 0.283 0.021 10.501 0.59 22.606 1.229 35.567 1.82 0.078 0 0.156 0 0.234 0.01 30.221 1.37 65.079 2.5 95.039 2.35 0.065-0.01 0.136-0.01 0.201 0 12.37-0.08 23.902-0.37 33.927-0.96 0.047 0 0.097-0.01 0.137-0.01 0.029-0.3 0.056-0.6 0.085-0.89C189.25 181.737 175.628 160.558 173.267 110.867zM54.416 236.268c1.536-12.28 4.005-32.04 4.161-33.9 2.44-30.52-3.004-29.06-4.958-104.48 -0.33-12.77-1.069-25.69 3.383-37.88 3.695-10.51 11.659-19.44 21.626-23.94 4.336-1.96 8.955-2.93 13.65-3.39 15.722-0.35 24.649-0.5 32.33 4.51 16.568 10.82 18.312 25.76 20.487 48.5 2.284 23.77 1.167 26.22 1.187 48.85 0.021 28.521-0.205 2.311-0.933 56.49 -0.089 6.42 0.037 12.82 0.517 19.23 0.651 8.819 2.155 20.34 3.256 28.05C119.523 238.268 84.705 237.348 54.416 236.268zM94.427 32.518c1.799-0.13 3.607-0.19 5.416-0.2C98.152 32.377 96.354 32.447 94.427 32.518zM183.513 237.808c-9.936 0.359-21.563 0.51-34.159 0.5 -0.688-5.96-1.488-12.95-1.506-13.23 -0.863-8.55-1.42-17.149-1.4-25.75 0-1 4.094-80.43 1.344-106.32 -2.781-26.17-4.706-49.5-26.81-58.53 -4.655-1.91-9.715-2.36-17.064-2.26 -0.03 0-0.057 0-0.085 0 -5.331-0.16-10.474-0.18-15.472 0.55 -0.01 0-0.02 0-0.038 0 -5.456 0.8-10.726 2.47-15.839 5.8 -23.833 15.48-21.033 45.2-20.81 63.09 0.817 66.53 8.459 68.5 5.621 104.48 -0.03 0.34-1.936 18.43-3.141 30.12 -13-0.45-25.164-0.931-35.705-1.391 -0.116-1.93-0.184-3-0.184-3.08 -2.907-57.51 10.209-76.38 14.1-110.51 2.965-25.96-3.043-46.38 2.703-68.53 8.021-30.91 32.962-59.16 65.556-54.7 1.04 0.14 2.091 0.32 3.139 0.53 0.36-0.08 0.73-0.14 1.092-0.2 11.869-2.08 23.353-0.89 33.748 8.25 30.356 26.68 30.668 78.31 31.629 96.69 3.045 58.33 16.354 73.521 13.739 128.38C183.97 231.798 183.758 234.688 183.513 237.808z" fill="#0d0905" stroke-width="none" opacity="1" stroke="none"></path></g><g id="svga-group-glasses-single" ><path id="SvgjsPath4537" d="M100,18.13L100,18.13L100,18.13L100,18.13z" fill="#26120b" stroke-width="none" opacity="1"></path></g></g></g><rect id="SvgjsRect4390" width="200" height="15" x="0" y="185" fill="#ecf0f1" opacity="0.5" style="display:none;"></rect><text id="SvgjsText4391" font-family="&quot;Roboto&quot;, &quot;Helvetica Neue&quot;, Helvetica, Arial, sans-serif" style="font-size:0.84em;font-family:&quot;Roboto&quot;, &quot;Helvetica Neue&quot;, Helvetica, Arial, sans-serif;text-anchor:middle;font-weight:400;display:none;" font-size="0.84em" text-anchor="middle" font-weight="400" fill="#000000" x="100" y="185"><tspan id="SvgjsTspan4392" dy="1.2em" x="100" style="font-size:0.84em;font-family:&quot;Roboto&quot;, &quot;Helvetica Neue&quot;, Helvetica, Arial, sans-serif;text-anchor:middle;font-weight:400;">Created on AvatarMaker.com</tspan></text></g><defs id="SvgjsDefs4358"><radialGradient id="SvgjsRadialGradient4406" cx="100" cy="113" r="40" gradientUnits="userSpaceOnUse" class="svga-on-canvas-facehighlight-gradient-single-0"><stop id="SvgjsStop4407" stop-opacity="0.5" stop-color="#67361f" offset="0" ></stop><stop id="SvgjsStop4408" stop-opacity="0" stop-color="#582812" offset="0.9" ></stop></radialGradient><radialGradient id="SvgjsRadialGradient4410" cx="100" cy="57" r="36" gradientUnits="userSpaceOnUse" class="svga-on-canvas-facehighlight-gradient-single-1"><stop id="SvgjsStop4411" stop-opacity="0.5" stop-color="#67361f" offset="0" ></stop><stop id="SvgjsStop4412" stop-opacity="0" stop-color="#582812" offset="0.9" ></stop></radialGradient><radialGradient id="SvgjsRadialGradient4491" cx="-558.588" cy="-490.918" r="84.646" gradientTransform="matrix(0.096 -0.0248 0.0245 0.0961 140.5478 120.3577)" gradientUnits="userSpaceOnUse" class="svga-on-canvas-eyesiris-gradient-left-1"><stop id="SvgjsStop4492" stop-opacity="0.8" stop-color="#ffffff" offset="0" ></stop><stop id="SvgjsStop4493" stop-opacity="0" stop-color="#ffffff" offset="1" ></stop></radialGradient><radialGradient id="SvgjsRadialGradient4495" cx="-565.337" cy="-492.691" r="84.644" gradientTransform="matrix(0.0991 8.856325e-004 -0.0011 0.0991 130.3774 136.3533)" gradientUnits="userSpaceOnUse" class="svga-on-canvas-eyesiris-gradient-left-2"><stop id="SvgjsStop4496" stop-opacity="0.8" stop-color="#ffffff" offset="0" ></stop><stop id="SvgjsStop4497" stop-opacity="0" stop-color="#ffffff" offset="1" ></stop></radialGradient><linearGradient id="SvgjsLinearGradient4501" x1="122.283" y1="93.047" x2="123.61" y2="91.466" gradientTransform="matrix(1 0 0 1 -52 0)" gradientUnits="userSpaceOnUse" class="svga-on-canvas-eyesiris-gradient-left-5"><stop id="SvgjsStop4502" stop-opacity="1" stop-color="#ffffff" offset="0" ></stop><stop id="SvgjsStop4503" stop-opacity="0" stop-color="#ffffff" offset="1" ></stop></linearGradient><linearGradient id="SvgjsLinearGradient4505" x1="127" y1="85" x2="125" y2="87" gradientTransform="matrix(1 0 0 1 -50 0)" gradientUnits="userSpaceOnUse" class="svga-on-canvas-eyesiris-gradient-left-6"><stop id="SvgjsStop4506" stop-opacity="1" stop-color="#ffffff" offset="0" ></stop><stop id="SvgjsStop4507" stop-opacity="0" stop-color="#ffffff" offset="1" ></stop></linearGradient><linearGradient id="SvgjsLinearGradient4509" x1="130" y1="81" x2="126" y2="85" gradientTransform="matrix(1 0 0 1 -50 0)" gradientUnits="userSpaceOnUse" class="svga-on-canvas-eyesiris-gradient-left-7"><stop id="SvgjsStop4510" stop-opacity="1" stop-color="#ffffff" offset="0" ></stop><stop id="SvgjsStop4511" stop-opacity="0" stop-color="#ffffff" offset="1" ></stop></linearGradient><radialGradient id="SvgjsRadialGradient4514" cx="-578.76" cy="-490.73" r="84.646" gradientTransform="matrix(0.096 -0.0248 0.0245 0.0961 192.4794 119.8404)" gradientUnits="userSpaceOnUse" class="svga-on-canvas-eyesiris-gradient-right-1"><stop id="SvgjsStop4515" stop-opacity="0.8" stop-color="#ffffff" offset="0" ></stop><stop id="SvgjsStop4516" stop-opacity="0" stop-color="#ffffff" offset="1" ></stop></radialGradient><radialGradient id="SvgjsRadialGradient4518" cx="-584.778" cy="-487.329" r="84.644" gradientTransform="matrix(0.0991 8.856325e-004 -0.0011 0.0991 182.3104 135.839)" gradientUnits="userSpaceOnUse" class="svga-on-canvas-eyesiris-gradient-right-2"><stop id="SvgjsStop4519" stop-opacity="0.8" stop-color="#ffffff" offset="0" ></stop><stop id="SvgjsStop4520" stop-opacity="0" stop-color="#ffffff" offset="1" ></stop></radialGradient><linearGradient id="SvgjsLinearGradient4524" x1="120.284" y1="93.047" x2="121.611" y2="91.467" gradientUnits="userSpaceOnUse" class="svga-on-canvas-eyesiris-gradient-right-5"><stop id="SvgjsStop4525" stop-opacity="1" stop-color="#ffffff" offset="0" ></stop><stop id="SvgjsStop4526" stop-opacity="0" stop-color="#ffffff" offset="1" ></stop></linearGradient><linearGradient id="SvgjsLinearGradient4528" x1="127" y1="85" x2="125" y2="87" gradientUnits="userSpaceOnUse" class="svga-on-canvas-eyesiris-gradient-right-6"><stop id="SvgjsStop4529" stop-opacity="1" stop-color="#ffffff" offset="0" ></stop><stop id="SvgjsStop4530" stop-opacity="0" stop-color="#ffffff" offset="1" ></stop></linearGradient><linearGradient id="SvgjsLinearGradient4532" x1="130" y1="81" x2="126" y2="85" gradientUnits="userSpaceOnUse" class="svga-on-canvas-eyesiris-gradient-right-7"><stop id="SvgjsStop4533" stop-opacity="1" stop-color="#ffffff" offset="0" ></stop><stop id="SvgjsStop4534" stop-opacity="0" stop-color="#ffffff" offset="1" ></stop></linearGradient><linearGradient id="SvgjsLinearGradient4540" x1="100" y1="141" x2="100" y2="138" gradientUnits="userSpaceOnUse" class="svga-on-canvas-mouth-gradient-single-0"><stop id="SvgjsStop4541" stop-opacity="1" stop-color="#50220c" offset="0.1" ></stop><stop id="SvgjsStop4542" stop-opacity="1" stop-color="#491c08" offset="1" ></stop></linearGradient><radialGradient id="SvgjsRadialGradient4596" cx="125.219" cy="89.891" r="13.439" gradientTransform="matrix(-1.0552 0.0927 0.0919 1.0549 197.7875 -17.4055)" gradientUnits="userSpaceOnUse" class="svga-on-canvas-eyesback-gradient-left-0"><stop id="SvgjsStop4597" stop-opacity="1" stop-color="#ffffff" offset="0" ></stop><stop id="SvgjsStop4598" stop-opacity="1" stop-color="#fdfefe" offset="0.544" ></stop><stop id="SvgjsStop4599" stop-opacity="1" stop-color="#f6f8f9" offset="0.74" ></stop><stop id="SvgjsStop4600" stop-opacity="1" stop-color="#eaeff2" offset="0.879" ></stop><stop id="SvgjsStop4601" stop-opacity="1" stop-color="#d9e3e8" offset="0.992" ></stop><stop id="SvgjsStop4602" stop-opacity="1" stop-color="#d8e2e7" offset="1" ></stop></radialGradient><radialGradient id="SvgjsRadialGradient4604" cx="125.219" cy="89.891" r="13.439" gradientTransform="matrix(1.0552 0.0927 -0.0919 1.0549 2.2125 -17.4055)" gradientUnits="userSpaceOnUse" class="svga-on-canvas-eyesback-gradient-right-0"><stop id="SvgjsStop4605" stop-opacity="1" stop-color="#ffffff" offset="0" ></stop><stop id="SvgjsStop4606" stop-opacity="1" stop-color="#fdfefe" offset="0.544" ></stop><stop id="SvgjsStop4607" stop-opacity="1" stop-color="#f6f8f9" offset="0.74" ></stop><stop id="SvgjsStop4608" stop-opacity="1" stop-color="#eaeff2" offset="0.879" ></stop><stop id="SvgjsStop4609" stop-opacity="1" stop-color="#d9e3e8" offset="0.992" ></stop><stop id="SvgjsStop4610" stop-opacity="1" stop-color="#d8e2e7" offset="1" ></stop></radialGradient><radialGradient id="SvgjsRadialGradient4612" cx="125.219" cy="89.891" r="13.439" gradientTransform="matrix(-1.0552 0.0927 0.0919 1.0549 197.7875 -17.4055)" gradientUnits="userSpaceOnUse" class="svga-on-canvas-eyesfront-gradient-left-0"><stop id="SvgjsStop4613" stop-opacity="1" stop-color="#ffffff" offset="0" ></stop><stop id="SvgjsStop4614" stop-opacity="1" stop-color="#fdfefe" offset="0.544" ></stop><stop id="SvgjsStop4615" stop-opacity="1" stop-color="#f6f8f9" offset="0.74" ></stop><stop id="SvgjsStop4616" stop-opacity="1" stop-color="#eaeff2" offset="0.879" ></stop><stop id="SvgjsStop4617" stop-opacity="1" stop-color="#d9e3e8" offset="0.992" ></stop><stop id="SvgjsStop4618" stop-opacity="1" stop-color="#d8e2e7" offset="1" ></stop></radialGradient><radialGradient id="SvgjsRadialGradient4622" cx="124.909" cy="84.956" fx="139.085" fy="84.626" r="17.962" gradientTransform="matrix(0.9998 0.0208 0.0193 -0.9282 -51.4325 161.2135)" gradientUnits="userSpaceOnUse" class="svga-on-canvas-eyesfront-gradient-left-3"><stop id="SvgjsStop4623" stop-opacity="1" stop-color="#491c08" offset="0" ></stop><stop id="SvgjsStop4624" stop-opacity="0.3" stop-color="#491c08" offset="0.7" ></stop><stop id="SvgjsStop4625" stop-opacity="0" stop-color="#582812" offset="1" ></stop></radialGradient><radialGradient id="SvgjsRadialGradient4627" cx="82.066" cy="77.677" r="19.326" gradientTransform="matrix(0.6928 -0.0978 0.0983 0.7033 9.9183 45.7976)" gradientUnits="userSpaceOnUse" class="svga-on-canvas-eyesfront-gradient-left-4"><stop id="SvgjsStop4628" stop-opacity="0" stop-color="#000000" offset="0.9" ></stop><stop id="SvgjsStop4629" stop-opacity="0.3" stop-color="#000000" offset="1" ></stop></radialGradient><radialGradient id="SvgjsRadialGradient4633" cx="125.219" cy="89.891" r="13.439" gradientTransform="matrix(1.0552 0.0927 -0.0919 1.0549 2.2125 -17.4055)" gradientUnits="userSpaceOnUse" class="svga-on-canvas-eyesfront-gradient-right-0"><stop id="SvgjsStop4634" stop-opacity="1" stop-color="#ffffff" offset="0" ></stop><stop id="SvgjsStop4635" stop-opacity="1" stop-color="#fdfefe" offset="0.544" ></stop><stop id="SvgjsStop4636" stop-opacity="1" stop-color="#f6f8f9" offset="0.74" ></stop><stop id="SvgjsStop4637" stop-opacity="1" stop-color="#eaeff2" offset="0.879" ></stop><stop id="SvgjsStop4638" stop-opacity="1" stop-color="#d9e3e8" offset="0.992" ></stop><stop id="SvgjsStop4639" stop-opacity="1" stop-color="#d8e2e7" offset="1" ></stop></radialGradient><radialGradient id="SvgjsRadialGradient4643" cx="124.909" cy="84.956" fx="139.085" fy="84.626" r="17.962" gradientTransform="matrix(-0.9998 0.0208 -0.0193 -0.9282 251.4325 161.2135)" gradientUnits="userSpaceOnUse" class="svga-on-canvas-eyesfront-gradient-right-3"><stop id="SvgjsStop4644" stop-opacity="1" stop-color="#491c08" offset="0" ></stop><stop id="SvgjsStop4645" stop-opacity="0.3" stop-color="#491c08" offset="0.7" ></stop><stop id="SvgjsStop4646" stop-opacity="0" stop-color="#582812" offset="1" ></stop></radialGradient><radialGradient id="SvgjsRadialGradient4648" cx="82.066" cy="77.677" r="19.326" gradientTransform="matrix(-0.6928 -0.0978 -0.0983 0.7033 190.0817 45.7978)" gradientUnits="userSpaceOnUse" class="svga-on-canvas-eyesfront-gradient-right-4"><stop id="SvgjsStop4649" stop-opacity="0" stop-color="#000000" offset="0.9" ></stop><stop id="SvgjsStop4650" stop-opacity="0.3" stop-color="#000000" offset="1" ></stop></radialGradient><linearGradient id="SvgjsLinearGradient4696" x1="99.98" y1="171.27" x2="99.98" y2="136.351" gradientUnits="userSpaceOnUse" class="svga-on-canvas-chinshadow-gradient-single-0"><stop id="SvgjsStop4697" stop-opacity="0.8" stop-color="#491c08" offset="0" ></stop><stop id="SvgjsStop4698" stop-opacity="1" stop-color="#2a0d00" offset="0.7" ></stop></linearGradient></defs></svg>