<svg xmlns="http://www.w3.org/2000/svg" version="1.1" width="600px" height="600px" xlink="http://www.w3.org/1999/xlink" style="overflow:hidden!important;"><g id="svga-group-wrapper" transform="scale(3 3)"><g id="svga-group-backs-single"></g><g id="svga-group-subwrapper" transform="matrix(0.84999948 0 0 0.84999948 14.931430448540851 16.29370005457733)"><g id="svga-group-hair-back" ><path id="SvgjsPath9709" d="M56.121,137.894c-0.284-3.904-1.705-10.141-3.683-16.807c0,0,3.453,13.279,0.099,24.668c1.421-24.748-3.5-31.88-5.756-39.022c0.653-1.621,5.689,1.326,5.69,1.333C55.797,117.583,57.066,132.609,56.121,137.894z M147.76,110.423c-4.348,10.77-7.406,23.196-2.63,31.81c-1.362-13.107,3.633-24.778,6.497-31.218L147.76,110.423z" fill="#d6c4c4" stroke="#a86868" stroke-width="1" stroke-miterlimit="10" opacity="1"></path></g><g id="svga-group-humanbody-single"><path id="SvgjsPath9547" d="M190.858 199.866c-6.008-10.158-13.474-11.973-19.628-13.936 -6.323-2.016-19.346-3.178-26.449-4.6 -6.86-1.373-23.153-5.789-23.339-13.488 -0.192-8.066 4.291-40.09 4.291-40.09H74.005c0 0 4.487 32.023 4.294 40.09 -0.184 7.699-16.48 12.115-23.341 13.488 -7.104 1.422-20.125 2.584-26.448 4.6 -6.156 1.963-13.624 3.777-19.632 13.936 -3.644 6.16-6.008 16.133-6.008 27.133h194C196.869 215.999 194.509 206.026 190.858 199.866z" fill="#93614a" stroke-width="none" opacity="1" stroke="none"></path><path id="SvgjsPath9548" d="M121.442 167.843c2.495 10.929 18.165 13.698 26.293 15.325 21.909 4.379 33.772 5.134 42.297 19.539 2.903 4.916 5.459 15.864 5.962 24.153 1.835 0.291 0.531-17.432-5.136-26.994 -9.742-16.472-29.089-15.135-46.077-18.535C137.921 179.958 121.628 175.542 121.442 167.843L121.442 167.843zM78.558 167.843c-0.186 7.699-16.479 12.115-23.339 13.488 -16.988 3.4-36.335 2.063-46.077 18.535 -5.667 9.563-6.971 27.285-5.136 26.994 0.503-8.289 3.059-19.237 5.962-24.153 8.524-14.405 20.388-15.16 42.297-19.539C60.393 181.541 76.063 178.771 78.558 167.843L78.558 167.843z" fill="#a27662" stroke-width="none" opacity="1" stroke="none"></path><path id="SvgjsPath9549" d="M51.206 189.513c0 0 28.641 0.299 33.473 1.885 2.314 0.758 8.372 5.633 8.372 5.633s-6.556-3.17-8.658-3.758C79.51 191.909 51.206 189.513 51.206 189.513zM99.795 199.999c2.053-0.041 7.887-3.799 7.887-3.799s-5.574 2.059-7.342 2.16c-1.491 0.086-6.366-1.238-6.366-1.238S98.112 200.032 99.795 199.999zM117.008 192.757c6.75-1.818 29.786-3.23 29.786-3.23s-23.791-0.516-30.51 1.725c-2.252 0.752-7.562 5.16-7.562 5.16S114.786 193.354 117.008 192.757z" fill="#844e35" stroke-width="none" opacity="1" stroke="none"></path><path id="SvgjsPath9550" d="M190.858 199.866c-9.741-16.471-29.122-15.142-46.077-18.535 -6.86-1.373-23.153-5.789-23.339-13.488 -0.192-8.066 4.291-40.09 4.291-40.09H74.005c0 0 4.487 32.023 4.294 40.09 -0.184 7.699-16.48 12.115-23.341 13.488 -7.104 1.422-20.125 2.584-26.448 4.6 -6.156 1.963-13.624 3.777-19.632 13.936 -3.644 6.16-6.008 16.133-6.008 27.133h194C196.869 215.999 194.509 206.026 190.858 199.866z" fill="none" stroke="#652e15" stroke-width="1.5" opacity="1"></path></g><g id="svga-group-chinshadow-single"><path id="SvgjsPath9848" d="M83.869 167.568c7.443 3.113 24.852 3.176 32.267 0 1.555-0.665 3.14-1.648 4.733-2.873 0.526-9.943 3.455-31.496 4.102-36.179l0.017-0.113H82.682c-2.727 0.202-5.355 0.438-7.833 0.709 0.778 5.658 3.493 25.843 4.016 35.462C80.559 165.857 82.236 166.886 83.869 167.568z" fill="url(#SvgjsLinearGradient9849)" opacity="1"></path></g><g id="svga-group-clothes-single" ><path id="SvgjsPath9835" d="M36.917 226.987c-12.142-0.106-34.504-0.481-34.504-0.481 -1.001-13.221 2.596-27.552 13.625-35.288 12.837-8.999 26.79-7.649 37.699-10.586 1 0.851 7.132 5.092 15.783 8.984 17.875 8.037 35.664 11.938 66.937 18.887 7.121-21.609 8.549-27.237 8.753-28.237 0.012 0.039 1.217-0.015 1.259-0.015 0.868 0 1.157 0.083 1.898 0.661 1.372-0.662 2.97-0.267 3.693 0.703 -3.046 12.205 4.021 43.22 4.021 45.2C138.413 226.815 120.95 227.716 36.917 226.987z" fill="#4b2824" stroke-width="none" opacity="1" stroke="none"></path><path id="SvgjsPath9836" d="M2.319 226.605c-0.842-13.045 3.389-27.448 14.244-35.063 12.837-8.999 26.263-7.477 37.172-10.413 0.146 0.124 1.683 0.998 2.04 1.256C17.586 186.399 4.214 199.521 2.319 226.605zM152.059 181.615c-0.144-0.192-0.329-0.354-0.532-0.498 -0.395-0.277-0.88-0.454-1.405-0.507 -0.572-0.058-1.183 0.025-1.756 0.302 -0.372-0.29-0.631-0.455-0.905-0.548 -0.272-0.092-0.562-0.113-0.993-0.113 -0.002 0-0.016 0-0.021 0.001 -0.123 0.004-1.227 0.051-1.238 0.014 -0.057 0.275 0.368-0.521 0.033 0.692 0.512 2.387-0.894 6.45-3.241 22.042 4.722-16.694 5.029-20.603 6.493-21.467 1.563 1.452-0.73 13.11 1.507 26.467 -0.506-8.89-0.193-24.89 1.863-25.892C151.976 181.263 151.878 182.339 152.059 181.615zM47.247 183.5c9.949 11.154 13.767 13.82 35.127 21.874C60.79 195.24 60.259 195.633 47.247 183.5zM52.952 182.397c14.55 15.296 34.438 21.115 65.001 29.648C84.391 201.231 67.467 196.433 52.952 182.397z" fill="#5a3834" stroke-width="none" opacity="1" stroke="none"></path><path id="SvgjsPath9837" d="M148.378 180.795c-0.229-0.18-0.719-0.509-1.068-0.579 -0.62-0.14-2.07-0.019-2.2 0.031 -1.778 9.483-5.687 19.042-8.721 28.139 -27.713-6.149-62.451-12.981-82.68-27.851 -15.189 4.111-53.002-0.132-51.41 45.681 0 0.13 0.01 0.26 0.02 0.39 0 0 56.588 0.76 56.59 0.76 27.246 0.539 96.468-0.45 97.47-0.45 0-9.142-6.396-31.019-4.24-45.359C151.432 180.605 149.782 180.116 148.378 180.795zM155.811 226.476c-54.167-1.382-122.589-1.144-153.231-0.271 0.987-44.587 35.332-39.994 51.72-44.38 20.665 15.798 56.059 22.312 82 26.87 -1.166 3.355-2.854 8.168-4.6 11.87 4.504-7.593 12.158-29.512 13.76-39.7 1.52-0.324 2.495 0.128 2.74 0.49 -1.521 7.91-2.222 15.998-3.53 24.079 2.125-10.09 2.051-11.999 4.3-24.339 0.561-0.08 1.141-0.051 1.721 0.109 0.46 0.2 0.62 0.48 0.91 0.811C149.588 191.271 152.864 208.45 155.811 226.476z" fill="#1d0805" stroke-width="none" opacity="1" stroke="none"></path></g><g id="svga-group-head" ><g id="svga-group-ears-left" ><path id="SvgjsPath9830" d="M47.34 82.049c-1.378-2.352-9.403-6.527-11.855-6.357 -4.229 0.292-5.137 5.152-5.446 7.479 -0.609 4.591 0.645 9.778 1.485 12.908 0.687 2.557 2.874 7.41 4.214 9.664 1.197 2.016 4.145 5.663 5.733 7.358 1.398 1.495 4.73 4.215 7.248 3.551 2.769-0.728 6.015-3.857 6.239-5.193C56.165 104.212 50.926 88.167 47.34 82.049z" fill="#93614a" stroke="#652e15" stroke-width="1.5" opacity="1"></path><path id="SvgjsPath9831" d="M42.903 98.548c-0.142-0.572 0.007-1.535 0.151-2.465 0.131-0.848 0.255-1.648 0.18-2.214 -0.284-2.121-1.888-6.15-2.936-8.334 -1.206-2.511-3.157-5.674-5.602-6.492 -1.011-0.338-2.073-0.511-2.145-0.236 -0.611 1.9-0.563 7.178-0.212 11.086 0.987 10.992 10.375 18.911 11.872 20.578 0.276 0.308 0.566 0.49 0.637 0.416 0.072-0.074-0.1-0.379-0.375-0.688 -1.477-1.654-8.314-8.49-9.27-12.807 -1.012-4.581 3-12.111 3.776-13.548 0.397 0.675 0.732 1.322 0.991 1.862 0.204 0.424 0.429 0.92 0.66 1.456 -0.456 0.75-3.656 6.219-2.489 10.596 0.431 1.615 2.379 3.695 3.67 4.266 0.71 0.314 0.978 0.783 1.287 1.325 0.359 0.63 0.765 1.343 1.946 1.861 0.24 0.106 0.457 0.148 0.649 0.148 0.333 0 0.586-0.132 0.773-0.288 0.019 0.275-0.349 2.463-0.357 2.789 -0.012 0.421 0.045 0.77 0.146 0.778 0.101 0.008 0.207-0.327 0.221-0.749 0.016-0.518 0.379-2.992 0.289-3.297 -0.264-0.902-1.073-1.921-1.93-3C43.994 100.53 43.122 99.432 42.903 98.548zM34.428 94.672c-2.316-7.025 1.456-13.179 1.977-14.144 0.906 0.808 1.704 1.89 2.354 2.948C38.286 84.321 34.526 89.947 34.428 94.672zM45.187 104.856c-1.069-0.469-1.427-1.096-1.774-1.704 -0.313-0.549-0.637-1.118-1.458-1.481 -0.179-0.08-0.375-0.199-0.576-0.338 -2.646-6.164 0.289-8.857 1.025-9.411 0.226 0.754 0.394 1.445 0.468 2 0.067 0.509-0.058 1.317-0.179 2.1 -0.149 0.97-0.305 1.973-0.144 2.621 0.239 0.967 1.137 2.098 2.005 3.191 0.771 0.971 1.562 1.97 1.832 2.786C46.271 104.783 45.905 105.173 45.187 104.856z" fill="#652e15" stroke-width="none" opacity="1" stroke="none"></path></g><g id="svga-group-ears-right" ><path id="SvgjsPath9832" d="M152.398 82.049c1.377-2.352 9.402-6.527 11.855-6.357 4.229 0.292 5.137 5.152 5.445 7.479 0.609 4.591-0.645 9.778-1.484 12.908 -0.688 2.557-2.875 7.41-4.215 9.664 -1.197 2.016-4.145 5.663-5.732 7.358 -1.398 1.495-4.73 4.215-7.248 3.551 -2.77-0.728-6.016-3.857-6.238-5.193C143.574 104.212 148.813 88.167 152.398 82.049z" fill="#93614a" stroke="#652e15" stroke-width="1.5" opacity="1"></path><path id="SvgjsPath9833" d="M154.902 101.59c-0.855 1.08-1.666 2.098-1.93 3 -0.09 0.305 0.273 2.779 0.289 3.297 0.014 0.422 0.119 0.757 0.221 0.749 0.102-0.009 0.158-0.357 0.146-0.778 -0.01-0.326-0.377-2.514-0.357-2.789 0.188 0.156 0.439 0.288 0.771 0.288 0.193 0 0.41-0.042 0.65-0.148 1.182-0.518 1.588-1.23 1.945-1.861 0.311-0.542 0.578-1.011 1.287-1.325 1.291-0.571 3.24-2.651 3.67-4.266 1.168-4.376-2.031-9.846-2.488-10.596 0.23-0.536 0.457-1.032 0.66-1.456 0.26-0.54 0.594-1.188 0.99-1.862 0.777 1.437 4.789 8.967 3.777 13.548 -0.955 4.317-7.793 11.153-9.27 12.807 -0.275 0.31-0.447 0.614-0.375 0.688s0.361-0.108 0.637-0.416c1.498-1.667 10.885-9.585 11.873-20.578 0.35-3.908 0.396-9.187-0.213-11.086 -0.072-0.274-1.135-0.102-2.145 0.236 -2.445 0.817-4.396 3.98-5.604 6.492 -1.047 2.185-2.65 6.213-2.936 8.334 -0.076 0.566 0.049 1.366 0.18 2.214 0.145 0.93 0.293 1.893 0.15 2.465C156.617 99.432 155.744 100.53 154.902 101.59zM160.979 83.476c0.65-1.058 1.449-2.14 2.355-2.948 0.52 0.964 4.291 7.119 1.977 14.144C165.211 89.947 161.453 84.321 160.979 83.476zM153.352 104.62c0.271-0.815 1.063-1.814 1.832-2.786 0.869-1.093 1.766-2.224 2.006-3.191 0.16-0.648 0.006-1.651-0.145-2.621 -0.121-0.783-0.246-1.591-0.178-2.1 0.074-0.555 0.242-1.245 0.467-2 0.736 0.553 3.672 3.247 1.025 9.411 -0.201 0.139-0.396 0.258-0.576 0.338 -0.82 0.363-1.145 0.932-1.457 1.481 -0.348 0.608-0.705 1.235-1.775 1.704C153.834 105.173 153.467 104.783 153.352 104.62z" fill="#652e15" stroke-width="none" opacity="1" stroke="none"></path></g><g id="svga-group-faceshape-wrap" ><g id="svga-group-faceshape-single" ><path id="SvgjsPath9845" d="M144.736 125.052c-4.549 9.721-18.57 27.825-28.601 32.018 -7.442 3.112-24.824 3.112-32.267 0 -10.029-4.192-24.05-22.297-28.601-32.018 -5.29-11.297-14.118-47.803-14.13-47.856 -1.3-4.912-1.996-10.066-2.004-15.382C39.082 28.339 66.289 1.168 99.907 1.116c33.621-0.052 60.913 27.032 60.963 60.506 0.009 5.316-0.669 10.473-1.952 15.389C158.901 77.063 150.045 113.711 144.736 125.052z" fill="#93614a" stroke-width="none" opacity="1"></path><path id="SvgjsPath9846" d="M110.152 1.969c26.994 6.24 47.097 30.337 47.052 59.111 -0.009 5.315-0.704 10.471-2.004 15.382 -0.012 0.053-8.158 36.591-13.396 47.856 -4.417 9.497-18.244 26.812-27.867 31.286 -3.169 1.473-10.439 1.823-13.935 1.823 -3.494 0-10.765-0.351-13.933-1.823 -9.623-4.474-23.451-21.789-27.867-31.286 -5.239-11.266-13.385-47.803-13.396-47.856 -1.3-4.911-1.996-10.066-2.004-15.382C42.756 32.307 62.857 8.209 89.853 1.969 61.03 6.788 39.087 31.751 39.134 61.813c0.008 5.315 0.704 10.47 2.004 15.382 0.012 0.053 8.781 36.586 14.13 47.856 4.602 9.696 18.738 27.446 28.601 32.018 3.671 1.703 12.088 2.334 16.134 2.334 4.043 0 12.464-0.632 16.133-2.334 9.862-4.571 24-22.321 28.601-32.018 5.35-11.271 14.119-47.803 14.13-47.856 1.3-4.912 1.996-10.066 2.004-15.382C160.918 31.751 138.975 6.788 110.152 1.969z" fill="#8b573f" stroke-width="none" opacity="1"></path><path id="SvgjsPath9847" d="M144.736 125.052c-4.549 9.721-18.57 27.825-28.601 32.018 -7.442 3.112-24.824 3.112-32.267 0 -10.029-4.192-24.05-22.297-28.601-32.018 -5.29-11.297-14.118-47.803-14.13-47.856 -1.3-4.912-1.996-10.066-2.004-15.382C39.082 28.339 66.289 1.168 99.907 1.116c33.621-0.052 60.913 27.032 60.963 60.506 0.009 5.316-0.669 10.473-1.952 15.389C158.901 77.063 150.045 113.711 144.736 125.052z" fill="none" stroke="#652e15" stroke-width="1.5" opacity="1"></path></g></g><g id="svga-group-mouth-single" ><path id="SvgjsPath9822" d="M100.457 141.651c-3.24 0-3.697-2.678-3.697-2.678l7.125-0.188C103.884 138.785 103.307 141.651 100.457 141.651z" fill="url(#SvgjsLinearGradient9823)" opacity="1"></path><path id="SvgjsPath9826" d="M99.886 139.415c-1.668 0-2.938-0.171-3.027-0.184 -0.137-0.02-0.232-0.146-0.213-0.282 0.019-0.138 0.147-0.227 0.282-0.214 0.037 0.006 3.7 0.5 6.766-0.195 0.146-0.03 0.27 0.057 0.3 0.189 0.03 0.135-0.055 0.269-0.188 0.299C102.485 139.327 101.082 139.415 99.886 139.415zM100.071 134.142c-1.291 0-2.542-0.477-3.8-0.71 -1.408-0.262-2.812-0.038-4.221 0.096 -1.202 0.114-2.384 0.097-3.574-0.118 -0.566-0.103-1.409-0.165-1.893-0.491 -0.496-0.335-0.404-1.114 0.155-1.324 0.528-0.2 1.35 0.216 1.882 0.317 0.608 0.116 1.225 0.189 1.845 0.198 1.366 0.018 2.719-0.258 4.083-0.306 1.445-0.048 2.835 0.352 4.231 0.658 1.247 0.273 2.325 0.09 3.553-0.174 2.13-0.459 4.259-0.573 6.429-0.67 1.073-0.049 2.167-0.256 3.19-0.583 0.436-0.141 0.953-0.512 1.411-0.261 0.528 0.29 0.503 1.082-0.042 1.337 -1.781 0.837-3.78 0.972-5.715 1.061 -1.235 0.056-2.475 0.117-3.694 0.334C102.64 133.731 101.371 134.142 100.071 134.142z" fill="#652e15" stroke-width="none" opacity="1" stroke="none"></path></g><g id="svga-group-eyes-left" ><g id="svga-group-eyesback-left"><path id="SvgjsPath9733" d="M83.271 92.712c-3.293-0.892-4.969 1.202-9.809 1.324 -8.057 0.203-9.938-0.703-11.199-2.996C61.74 90.088 61.24 88.849 61 88.083l-0.1-4.715c1.328-4.488 19.541-4.944 25.9 2.027 0.287 0.757 0.433 1.463 0.465 2.122 -0.19 1.09-0.512 2.136-0.947 3.124C85.611 91.562 84.556 92.262 83.271 92.712z" fill="url(#SvgjsRadialGradient9734)" opacity="1"></path></g><g id="svga-group-eyesiriswrapper-left" transform="translate(-0.5 0)"><g id="svga-group-eyesiriscontrol-left" ><g id="svga-group-eyesiris-left" ><path id="SvgjsPath9791" d="M83.206 89.25c-1.231 4.522-5.896 7.187-10.429 5.944 -4.528-1.241-7.203-5.918-5.97-10.442 1.23-4.526 5.905-7.19 10.434-5.947C81.768 80.045 84.439 84.723 83.206 89.25z" fill="#3c8d8e" stroke="#0c5f60" stroke-width="0.5" opacity="1"></path><path id="SvgjsPath9792" d="M73.962 81.918l-0.221-0.395c-0.776 0.308-1.524 0.631-2.232 0.973l0.524 1.267 -0.066 0.732 -2.021-1.189c-0.66 0.367-1.273 0.75-1.867 1.14l0.005 0.013 -0.692 0.78 1.107 1.132 -1.491 0.813 0.563 0.931 2.633 0.262 -2.468 1.673 2.641-0.146L68.984 92.3l3.255-1.969 -0.875 3.349 1.883-3.093 0.363 3.319 0.544-2.936 0.5-0.061 0.709 3.329 0.216-0.998c0.284-0.074 1.018 0.997 1.297 0.922l-0.829-3.621 1.817 3.621 -0.737-3.756 2.236 2.905c0.08-0.025 0.278-1.204 0.357-1.228l-1.392-2.081 2.53 0.763 -1.518-1.643 -1.219-1.009 5.083 1.137 -2.83-1.723 2-0.818 -4.329-0.437 4.281-2.27 -3.875 0.988 -1.043-0.565 -0.256-0.501 0.074-1.199 0.086-1.967 -1.768 3.113 -0.156-2.279 -0.222-0.597c-0.354 0.124-0.702 0.245-1.043 0.375L73.962 81.918z" fill="#529c9d" stroke-width="none" opacity="1" stroke="none"></path><path id="SvgjsPath9793" d="M83.303 85.237c-7.429 0.338-11.206 1.927-16.591 3.727 -1.038-4.574 1.839-9.12 6.42-10.149C77.712 77.786 82.267 80.661 83.303 85.237z" fill="#297e7f" stroke-width="none" opacity="0.9" stroke="none"></path><path id="SvgjsPath9794" d="M76.234,84.165c-1.869-0.536-3.777,0.532-4.258,2.395c-0.484,1.853,0.64,3.793,2.51,4.329c1.871,0.537,3.781-0.532,4.264-2.386C79.237,86.639,78.107,84.7,76.234,84.165z" fill="#000000" stroke-width="none" opacity="0.8"></path><path id="SvgjsPath9795" d="M76.234,84.165c-1.869-0.536-3.777,0.532-4.258,2.395c-0.484,1.853,0.64,3.793,2.51,4.329c1.871,0.537,3.781-0.532,4.264-2.386C79.237,86.639,78.107,84.7,76.234,84.165z" fill="none" stroke="#0c5f60" stroke-width="0.75" opacity="1"></path><path id="SvgjsPath9796" d="M68.812 92.044c0.868 1.378 2.021 2.416 3.653 2.762 1.879 0.398 2.094-2.101 0.748-2.387 -1.02-0.215-1.667-0.715-2.199-1.561C70.039 89.31 68.029 90.803 68.812 92.044L68.812 92.044z" fill="#ffffff" stroke-width="none" opacity="0.5"></path><path id="SvgjsPath9797" d="M76.468 83.449c1.316 0.265 2.082 1.087 2.747 2.323 1.222 2.272 4.676 0.252 3.453-2.019 -1.073-1.995-2.86-3.703-5.138-4.162C74.615 79.004 74.206 82.993 76.468 83.449L76.468 83.449z" fill="url(#SvgjsLinearGradient9798)" opacity="1"></path></g></g></g><g id="svga-group-eyesfront-left"><path id="SvgjsPath9758" d="M55.5 87c0 13.808 8.283 24.999 18.5 24.999S92.5 100.808 92.5 87c0-13.809-8.283-25.001-18.5-25.001S55.5 73.191 55.5 87zM61 88.083l-0.1-4.715c1.328-4.488 19.541-4.944 25.9 2.027 1.396 3.674-0.409 6.224-3.529 7.317 -3.293-0.892-4.969 1.202-9.809 1.324 -8.057 0.203-9.938-0.703-11.199-2.996C61.74 90.088 61.24 88.849 61 88.083z" fill="#93614a" stroke-width="none" opacity="1" stroke="none"></path><path id="SvgjsPath9759" d="M59.898 85.083c0.023 8.56 7.646 15.459 17.038 15.416 9.389-0.049 16.985-7.022 16.961-15.583 -0.023-8.562-7.647-15.463-17.04-15.417C67.465 69.549 59.874 76.522 59.898 85.083zM61 88.083l-0.1-4.715c1.328-4.488 19.541-4.944 25.9 2.027 1.396 3.674-0.409 6.224-3.529 7.317 -3.293-0.892-4.969 1.202-9.809 1.324 -8.057 0.203-9.938-0.703-11.199-2.996C61.74 90.088 61.24 88.849 61 88.083z" fill="url(#SvgjsRadialGradient9760)" opacity="1"></path><path id="SvgjsPath9764" d="M62.264 91.041C61.74 90.088 61.24 88.849 61 88.083l-0.1-4.715c1.328-4.488 19.541-4.944 25.9 2.027 1.396 3.674-0.409 6.224-3.529 7.317 -3.293-0.892-4.969 1.202-9.809 1.324C65.406 94.239 63.524 93.333 62.264 91.041z" fill="url(#SvgjsRadialGradient9765)" opacity="1"></path><path id="SvgjsPath9768" d="M89.665 83.698c-9.617-6.546-16.701-6.963-28.117-6.129C71.077 75.863 82.052 77.099 89.665 83.698z" fill="#652e15" stroke-width="none" opacity="1" stroke="none"></path><path id="SvgjsPath9769" d="M87.697 85.861c0.371 0.625 0.543 0.968 0.733 2.484C85.19 78.896 62.487 78.841 61 83.593v4.427c-1.021-1.75-1.494-3.878-1.931-5.889 -0.093-0.428-2.348-2.602-2.348-2.602s2.435 1.326 2.798 1.349c-0.182-0.216-1.127-1.248-1.127-1.248s2.251 0.931 2.576 0.843c-0.436-0.186-1.071-0.823-1.071-0.823 0.483 0.141 1.646 0.604 2.723 0.369 10.863-2.365 22.558 0.247 26.703 8C88.648 87.037 88.225 86.47 87.697 85.861zM84.943 93.048c-4.625-2.25-5.94 0.428-11.563 0.563 -8.004 0.191-9.567-0.871-11.125-2.813 0.813 2.375 1.375 3.504 10.875 3.438C78.506 94.198 81.443 91.673 84.943 93.048z" fill="#1b2a40" stroke-width="none" opacity="1" stroke="none"></path></g></g><g id="svga-group-eyes-right" ><g id="svga-group-eyesback-right"><path id="SvgjsPath9741" d="M116.729 92.712c3.293-0.892 4.969 1.202 9.809 1.324 8.057 0.203 9.938-0.703 11.199-2.996 0.523-0.952 1.023-2.191 1.264-2.958l0.1-4.715c-1.328-4.488-19.541-4.944-25.9 2.027 -0.287 0.757-0.433 1.463-0.465 2.122 0.19 1.09 0.512 2.136 0.947 3.124C114.389 91.562 115.444 92.262 116.729 92.712z" fill="url(#SvgjsRadialGradient9742)" opacity="1"></path></g><g id="svga-group-eyesiriswrapper-right" transform="translate(0.5 0)"><g id="svga-group-eyesiriscontrol-right" ><g id="svga-group-eyesiris-right" ><path id="SvgjsPath9801" d="M133.199 89.25c-1.231 4.522-5.896 7.187-10.429 5.944 -4.528-1.241-7.203-5.918-5.97-10.442 1.23-4.526 5.905-7.19 10.434-5.947C131.761 80.045 134.433 84.723 133.199 89.25z" fill="#3c8d8e" stroke="#0c5f60" stroke-width="0.5" opacity="1"></path><path id="SvgjsPath9802" d="M123.955 81.918l-0.221-0.395c-0.776 0.308-1.524 0.631-2.232 0.973l0.524 1.267 -0.066 0.732 -2.021-1.189c-0.66 0.367-1.273 0.75-1.867 1.14l0.005 0.013 -0.692 0.78 1.107 1.132L117 87.182l0.563 0.931 2.633 0.262 -2.468 1.673 2.641-0.146 -1.392 2.398 3.255-1.969 -0.875 3.349 1.883-3.093 0.363 3.319 0.544-2.936 0.5-0.061 0.709 3.329 0.216-0.998c0.284-0.074 1.018 0.997 1.297 0.922l-0.829-3.621 1.817 3.621 -0.737-3.756 2.236 2.905c0.08-0.025 0.278-1.204 0.357-1.228l-1.392-2.081 2.53 0.763 -1.518-1.643 -1.219-1.009 5.083 1.137 -2.83-1.723 2-0.818 -4.329-0.437 4.281-2.27 -3.875 0.988 -1.043-0.565 -0.256-0.501 0.074-1.199 0.086-1.967 -1.768 3.113 -0.156-2.279 -0.222-0.597c-0.354 0.124-0.702 0.245-1.043 0.375L123.955 81.918z" fill="#529c9d" stroke-width="none" opacity="1" stroke="none"></path><path id="SvgjsPath9803" d="M133.296 85.237c-7.429 0.338-11.206 1.927-16.591 3.727 -1.038-4.574 1.839-9.12 6.42-10.149C127.705 77.786 132.26 80.661 133.296 85.237z" fill="#297e7f" stroke-width="none" opacity="0.9" stroke="none"></path><path id="SvgjsPath9804" d="M126.229,84.165c-1.869-0.536-3.777,0.532-4.259,2.395c-0.484,1.853,0.641,3.793,2.509,4.329c1.873,0.537,3.78-0.532,4.266-2.386C129.229,86.639,128.101,84.7,126.229,84.165z" fill="#000000" stroke-width="none" opacity="0.8"></path><path id="SvgjsPath9805" d="M126.229,84.165c-1.869-0.536-3.777,0.532-4.259,2.395c-0.484,1.853,0.641,3.793,2.509,4.329c1.873,0.537,3.78-0.532,4.266-2.386C129.229,86.639,128.101,84.7,126.229,84.165z" fill="none" stroke="#0c5f60" stroke-width="0.75" opacity="1"></path><path id="SvgjsPath9806" d="M118.805 92.044c0.868 1.378 2.021 2.416 3.653 2.762 1.879 0.398 2.094-2.101 0.748-2.387 -1.02-0.215-1.667-0.715-2.199-1.561C120.032 89.31 118.022 90.803 118.805 92.044L118.805 92.044z" fill="#ffffff" stroke-width="none" opacity="0.5"></path><path id="SvgjsPath9807" d="M126.461 83.449c1.316 0.265 2.082 1.087 2.747 2.323 1.222 2.272 4.676 0.252 3.453-2.019 -1.073-1.995-2.86-3.703-5.138-4.162C124.608 79.004 124.199 82.993 126.461 83.449L126.461 83.449z" fill="url(#SvgjsLinearGradient9808)" opacity="1"></path></g></g></g><g id="svga-group-eyesfront-right"><path id="SvgjsPath9779" d="M126 61.999c-10.217 0-18.5 11.192-18.5 25.001 0 13.808 8.283 24.999 18.5 24.999S144.5 100.808 144.5 87C144.5 73.191 136.217 61.999 126 61.999zM137.736 91.041c-1.261 2.293-3.143 3.199-11.199 2.996 -4.84-0.122-6.516-2.216-9.809-1.324 -3.12-1.093-4.925-3.643-3.529-7.317 6.359-6.971 24.572-6.516 25.9-2.027l-0.1 4.715C138.76 88.849 138.26 90.088 137.736 91.041z" fill="#93614a" stroke-width="none" opacity="1" stroke="none"></path><path id="SvgjsPath9780" d="M123.146 69.499c-9.393-0.045-17.017 6.856-17.04 15.417 -0.024 8.56 7.572 15.533 16.961 15.583 9.392 0.043 17.015-6.856 17.038-15.416C140.129 76.522 132.537 69.549 123.146 69.499zM137.736 91.041c-1.261 2.293-3.143 3.199-11.199 2.996 -4.84-0.122-6.516-2.216-9.809-1.324 -3.12-1.093-4.925-3.643-3.529-7.317 6.359-6.971 24.572-6.516 25.9-2.027l-0.1 4.715C138.76 88.849 138.26 90.088 137.736 91.041z" fill="url(#SvgjsRadialGradient9781)" opacity="1"></path><path id="SvgjsPath9785" d="M137.736 91.041c0.523-0.952 1.023-2.191 1.264-2.958l0.1-4.715c-1.328-4.488-19.541-4.944-25.9 2.027 -1.396 3.674 0.409 6.224 3.529 7.317 3.293-0.892 4.969 1.202 9.809 1.324C134.594 94.239 136.476 93.333 137.736 91.041z" fill="url(#SvgjsRadialGradient9786)" opacity="1"></path><path id="SvgjsPath9789" d="M110.335 83.698c9.617-6.546 16.701-6.963 28.117-6.129C128.923 75.863 117.948 77.099 110.335 83.698z" fill="#652e15" stroke-width="none" opacity="1" stroke="none"></path><path id="SvgjsPath9790" d="M110.677 88.021c4.146-7.754 15.84-10.365 26.703-8 1.077 0.234 2.239-0.229 2.723-0.369 0 0-0.636 0.637-1.071 0.823 0.325 0.088 2.576-0.843 2.576-0.843s-0.945 1.032-1.127 1.248c0.363-0.022 2.798-1.349 2.798-1.349s-2.255 2.174-2.348 2.602c-0.437 2.011-0.91 4.139-1.931 5.889v-4.427c-1.487-4.752-24.19-4.698-27.431 4.751 0.19-1.516 0.362-1.859 0.733-2.484C111.775 86.47 111.352 87.037 110.677 88.021zM126.869 94.235c9.5 0.066 10.063-1.063 10.875-3.438 -1.558 1.941-3.121 3.004-11.125 2.813 -5.622-0.134-6.938-2.813-11.563-0.563C118.557 91.673 121.494 94.198 126.869 94.235z" fill="#1b2a40" stroke-width="none" opacity="1" stroke="none"></path></g></g><g id="svga-group-facehighlight-single" ><path id="SvgjsPath9539" d="M140.204 113.007c0.035 22.275-17.995 40.365-40.273 40.396 -22.274 0.036-40.361-17.993-40.396-40.272C59.501 90.857 77.53 72.77 99.808 72.735 122.083 72.701 140.171 90.73 140.204 113.007z" fill="url(#SvgjsRadialGradient9540)" opacity="1"></path><path id="SvgjsPath9543" d="M135,55.999c0,19.329-15.671,35-35,35c-19.329,0-35-15.671-35-35s15.671-35,35-35C119.329,20.999,135,36.67,135,55.999z" fill="url(#SvgjsRadialGradient9544)" opacity="1"></path></g><g id="svga-group-eyebrows-left" ><path id="SvgjsPath9669" d="M74.799 69.068c-4.425-0.475-21.252 3.714-21.252 3.714s16.789-6.74 23.757-5.667c5.188 0.798 14.397 5.077 12.706 7.339C88.649 76.275 84.408 70.1 74.799 69.068z" fill="#2a232b" stroke-width="none" opacity="1"></path></g><g id="svga-group-eyebrows-right" ><path id="SvgjsPath9670" d="M109.731 74.187c-1.713-2.292 7.592-6.31 13.546-6.804 7.117-0.59 22.914 4.085 22.914 4.085s-15.9-2.628-20.377-2.106C115.998 70.506 111.11 76.031 109.731 74.187z" fill="#2a232b" stroke-width="none" opacity="1"></path></g><g id="svga-group-nose-single" ><path id="SvgjsPath9827" d="M96.831 85.761c0 0-1.399 11.117-2.026 13.281 -1.379 4.752-6.168 11.418-5.239 14.43 1.859 6.022 7.537 4.493 10.524 4.471 2.763-0.022 8.072 1.552 9.162-2.37 0.352-1.266-0.441-4.466-0.441-4.466s-2.644 3.112-8.875 2.767c-1.778-0.099-4.671-2.096-4.704-4.912 -0.043-3.817 1.802-7.036 2.205-10.825C97.741 95.259 96.831 85.761 96.831 85.761z" fill="#844e35" stroke-width="none" opacity="1" stroke="none"></path><path id="SvgjsPath9828" d="M105.194 116.207c1.075 0 1.366 0.326 1.366 0.729 0 0.404-0.335 1.026-1.366 0.73 -1.134-0.323-3.113-0.175-3.113-0.175S104.117 116.207 105.194 116.207zM94.922 116.207c-1.077 0.001-1.366 0.328-1.366 0.733 -0.001 0.403 0.323 0.983 1.366 0.729 1.15-0.282 3.112-0.175 3.112-0.175S95.999 116.211 94.922 116.207zM108.81 111.107c0 0 1.489 1.933 1.18 3.975 -0.301 1.983-3.31 2.861-3.31 2.861s2.089-1.516 2.342-3.356C109.14 113.725 108.81 111.107 108.81 111.107zM90.427 109.121c0 0-1.086 2.704-0.772 4.352 0.571 2.976 3.704 4.164 3.704 4.164s-1.955-2.039-2.65-3.842C89.948 111.825 90.427 109.121 90.427 109.121z" fill="#652e15" stroke-width="none" opacity="1" stroke="none"></path><path id="SvgjsPath9829" d="M105.141 112.549c1.043-0.889 1.148-1.396 0.932-1.729 -0.215-0.334-0.841-0.545-1.714 0.528 -0.963 1.18-3.056 2.054-3.056 2.054S104.098 113.437 105.141 112.549z" fill="#a27662" stroke-width="none" opacity="1" stroke="none"></path></g><g id="svga-group-hair-front" ><path id="SvgjsPath9711" d="M151.686 97.871c0-11.927-0.214-18.574-3.512-30.116 -1.318-4.613-5.302-8.946-8.959-13.721 -3.451-4.509-6.078-10.609-9.096-16.049 -5.616 3.104-11.944 5.362-20.059 6.589 -4.189 0.633-9.402 1.421-15.795 2.708 -22.479 4.515-44.862 12.433-47.426 30.883 -2.551 14.437-13.806-33.235 53.641-45.936 49.198-9.264 63.93 13.61 60.493 39.159C159.061 85.624 151.686 97.871 151.686 97.871z" fill="#d6c4c4" stroke-width="none" opacity="0.1" stroke="none"></path><path id="SvgjsPath9712" d="M151.417 100.722c2.836-14.29 3.792-26.049-0.761-36.989 -1.874-4.503-5.385-9.09-9.102-13.947 -3.507-4.582-7.132-9.319-10.193-14.848 -5.702 3.156-11.177 3.985-19.42 5.232 -4.256 0.644-9.551 1.445-16.048 2.752 -22.833 4.591-44.64 11.3-49.561 29.146 -2.594 14.676 0.425 24.889 0.562 25.339l0.031 0.095 -0.043 0.136 -0.06 0.083h-0.25l-0.059-0.193c-0.084-0.259-0.868-2.604-3.153-7.5 -7.005-15.01-12.961-31.84-2.395-57.841C47.262 16.686 55.446 6.695 67.499-0.208 77.797-6.107 87.54-8.975 97.284-8.975c8.261 0 21.392 3.475 21.588 4.475 8.281 0.491 15.644-0.313 27.202 12.248 8.979 9.761 21.073 33.709 17.583 59.679 -1.943 14.471-7.979 25.874-10.557 30.743 -0.692 1.308-1.193 2.253-1.294 2.643L151.417 100.722z" fill="#d6c4c4" stroke-width="none" opacity="1" stroke="none"></path><path id="SvgjsPath9713" d="M163.657 67.426c-1.984 14.777-11.24 32.525-12.24 32.296 2.836-14.29 3.792-25.049-0.761-35.989 -4.134-9.933-16.133-20.627-18.963-28.787 -2.224 1.728-8.598 3.397-19.752 5.224 -4.248 0.696-9.551 1.445-16.048 2.752 -22.833 4.591-44.64 11.3-49.561 29.146 -3.892 22.017 4.976 35.981-2.973 18.959 -7.005-15.01-12.961-33.14-2.395-59.141C47.648 15.432 58.337 0.003 75.085-5.464c2.904-0.948 3.78-0.194 0.897 0.961C61.014 1.515 52.744 15.485 45.689 33.832c0 0 0.304-7.335 3.513-13.843 -7.833 13.622-13.98 27.905-8.879 51.601 -0.951-16.854 7.507-30.616 16.673-37.783 -8.38 11.338-12.324 20.929-12.294 31.598 5.167-13.667 16.371-22.259 31.5-24.667 18.59-2.958 48.883-7.153 56.491-13.126 0.312-0.347 0.653-0.686 1.066-1.008 0 6.396 2.777 9.232 5.24 11.396 13.915 12.229 19 28 18 45 2-17-1-34-10-48 8 8 12 19 14 30 1.22-17.085-3.16-33.417-10.611-48.104 2.134 6.681 2.111 12.406 2.39 12.865 -0.604-1-3.022-28.786-28.181-34.475C150.934-1.238 167.531 38.596 163.657 67.426zM149.595 45.788c-0.771-1.002-10.38-14.231-10.343-22.229C138.123 33.06 142.384 36.429 149.595 45.788zM64.803 31.048c8.477-6.569 14.928-9.919 25.442-12.212 6.227-1.359 15.22-1.644 27.042-4.067 0.04-0.008 0.081-0.019 0.122-0.026 0 0-10.631 3.032-26.412 5.793C80.345 22.399 75.041 24.457 64.803 31.048zM84.513 4.102c19.225-4.631 36.823-3.665 50.436 10.549C126.995 6.347 110.959-0.393 84.513 4.102z" fill="#c7a2a2" stroke-width="none" opacity="1" stroke="none"></path><path id="SvgjsPath9714" d="M49.353 54.83c6.177-10.488 12.681-17.599 24.109-21.923 21.07-7.974 37.013-3.576 60.369-11.915 -4.557 1.627-7.094 4.249-33.97 7.959 -17.238 2.382-25.38 4.37-31.725 7.597C59.112 41.139 54.101 47.572 49.353 54.83zM102.038 5.505c-0.013 0.002-0.087 0.005-0.09 0.005 -7.204 0.476-33.15-0.68-52.604 29.249C66.716 12.814 83.166 9.125 102.038 5.505z" fill="#b78383" stroke-width="none" opacity="1" stroke="none"></path><path id="SvgjsPath9715" d="M51.695 46.43c10.477-13.847 18.136-17.225 29.399-18.928C66.793 29.664 51.695 45.36 51.695 46.43 52.058 45.951 51.695 46.43 51.695 46.43zM67.385 8.454C51.056 18.625 47.031 32.039 46.892 33.039 49.467 26.4 59.661 13.267 67.385 8.454zM157.313 77.406c-0.259-9.621 0.057-23.952-14.679-35.755C154.329 52.545 155.494 65.235 157.313 77.406zM57.213 33.421c-0.637 0.263-5.713 5.016-6.229 5.533 -9.832 9.842-11.415 18.801-10.542 32.632C40.237 45.783 56.213 33.833 57.213 33.421zM141.658 19.382c7.828 10.565 12.673 21.56 15.459 29.502 -2.193-5.436-5.308-10.323-10.242-14.787 6.684 7.154 13.271 23.233 13.731 28.865C160.524 61.956 161.244 40.477 141.658 19.382zM100.645 37.108c25.392-4.578 25.475-6.359 33.177-10.399 -8.732 4.581-10.754 5.984-33.37 9.444 -25.869 3.957-47.642 6.37-54.768 27.178C53.682 42.119 75.816 41.586 100.645 37.108z" fill="#e5e5e5" stroke-width="none" opacity="1" stroke="none"></path><path id="SvgjsPath9716" d="M151.28 11.084c-7.513-9.719-18.752-17.241-30.852-15.839C89.597-19.604 53.174-3.752 38.345 33.664 25.039 67.235 46.132 101.756 47.706 101c2.401-1.154-4.167-18.054 1.153-30.882 5.416-13.059 25.43-19.579 45.658-24.673 19.117-4.815 27.417-4.69 36.338-9.523 0.003-0.001 0.005-0.003 0.008-0.005 6.412 12.427 14.565 20.061 18.671 31.197 4.276 11.604-0.18 34.874 0.916 35.321 2.902 1.185 11.388-19.541 13.871-30.778C169.387 48.739 163.207 26.516 151.28 11.084zM163.459 67.399c-2.461 18.324-11.344 30.421-11.846 32.362 2.592-13.059 4.02-24.59-0.772-36.105 -3.604-8.663-12.96-17.276-19.401-28.991 -8.695 4.882-16.492 4.22-35.586 8.06C75.84 46.75 51.348 53.125 46.139 72.015c-3.956 22.372 3.399 31.39-2.599 18.928 -4.586-9.527-12.923-32.762-2.391-58.681C46.815 18.316 54.489 7.473 67.599-0.035c19.982-11.446 35.868-10.229 50.924-4.437 1.509-0.282-8.718 2.916-13.15 3.695 6.495 3.255 19.759-13.941 40.555 8.659C155.79 18.604 166.764 42.811 163.459 67.399z" fill="#a86868" stroke-width="none" opacity="1" stroke="none"></path></g><g id="svga-group-glasses-single" ><path id="SvgjsPath9811" d="M133.86 107.53c-3.25 0-6.62-0.36-9.49-1 -4.69-1.06-10.54-5.25-14.31-11.5 -4.14-6.86-5.05-11.74-3.74-16.6 1.68-6.27 12.41-8.5 21.88-8.5 9.74 0 21.02 2.32 23.75 6.75 4.6 7.46 1.42 20.89-1.26 25C147.24 106.96 137.77 107.53 133.86 107.53 133.86 107.53 133.86 107.53 133.86 107.53z" fill="url(#SvgjsLinearGradient9812)" opacity="1"></path><path id="SvgjsPath9815" d="M66.14 107.53c3.25 0 6.62-0.36 9.49-1 4.69-1.06 10.54-5.25 14.31-11.5 4.14-6.86 5.05-11.74 3.74-16.6 -1.68-6.27-12.41-8.5-21.88-8.5 -9.74 0-21.02 2.32-23.75 6.75 -4.6 7.46-1.42 20.89 1.26 25C52.76 106.96 62.23 107.53 66.14 107.53 66.14 107.53 66.14 107.53 66.14 107.53z" fill="url(#SvgjsLinearGradient9816)" opacity="1"></path><path id="SvgjsPath9819" d="M130.27 67.73c-12.71 0-20.02 2.96-30.27 2.96 -10.25 0-17.55-2.96-30.27-2.96 -15.11 0.33-25.35 3.2-27.73 5.02v7.02c2.63 1.38 0.92 5.3 3.36 16.52 2.21 10.16 9.44 11.53 14.62 12.41 7.33 1.23 15.92 0.53 21.87-2.99 7.65-4.52 12.17-12.77 13.93-20.23 0.98-4.16 3.75-3.89 4.23-3.89 0 0 0 0 0 0 0 0 0 0 0 0 0.48 0 3.25-0.27 4.23 3.89 1.75 7.46 6.27 15.71 13.93 20.23 5.95 3.51 14.53 4.22 21.87 2.99 5.17-0.87 12.41-2.24 14.62-12.41 2.44-11.22 0.73-15.14 3.36-16.52v-7.02C155.62 70.93 145.38 68.07 130.27 67.73zM75.52 106.04c-8.43 1.9-21.83 1.43-25.79-4.64 -2.59-3.97-5.7-17.25-1.25-24.47 4.73-7.67 41.58-10.06 44.72 1.62C95.67 87.74 86.35 103.59 75.52 106.04zM150.27 101.4c-3.96 6.07-17.35 6.54-25.79 4.64 -10.83-2.44-20.15-18.3-17.68-27.49 3.14-11.68 40-9.29 44.72-1.62C155.97 84.14 152.86 97.43 150.27 101.4z" fill="#210d34" stroke-width="none" opacity="1" stroke="none"></path><path id="SvgjsPath9820" d="M155.98 73.62c0.65 0.82 0.55 1.71 0.45 3.55 0.06-2.11-0.44-2.98-1.03-3.49 -0.84-0.98-5.4-2.84-7.9-3.45C150.78 70.82 154.87 72.28 155.98 73.62zM153.53 92.9c-1.13 5.08-1.54 7.88-4.33 10.42 -2.66 2.43-7.12 3.38-10.58 3.66 5.4-0.21 8.77-1.65 10.87-3.53C152.05 101.18 152.78 98.22 153.53 92.9zM44.02 73.62c-0.65 0.82-0.55 1.71-0.45 3.55 -0.06-2.11 0.44-2.98 1.03-3.49 0.84-0.98 5.4-2.84 7.9-3.45C49.22 70.82 45.13 72.28 44.02 73.62zM50.5 103.46c2.1 1.87 5.48 3.32 10.87 3.53 -3.47-0.28-7.92-1.23-10.58-3.66 -2.79-2.54-3.19-5.34-4.33-10.42C47.22 98.22 47.95 101.18 50.5 103.46z" fill="#2e1843" stroke-width="none" opacity="1" stroke="none"></path><path id="SvgjsPath9821" d="M124.31 68.48c-7.88 0.59-19.23 2.91-24.31 2.91l0 0 0 0c-5.08 0-16.43-2.32-24.31-2.91 -8.84-0.66-17.82 0.41-22.68 1.58 0.34 0.04 0.64 0.06 1.02 0.11 7.18-1.43 12.83-1.59 19.45-1.37 7.02 0.23 21.24 2.97 26.51 2.87 5.27 0.1 19.5-2.64 26.51-2.87 6.62-0.22 12.28-0.06 19.45 1.37 0.38-0.05 0.68-0.07 1.02-0.11C142.13 68.9 133.15 67.83 124.31 68.48z" fill="#3c2553" stroke-width="none" opacity="1" stroke="none"></path></g></g></g><rect id="SvgjsRect9524" width="200" height="15" x="0" y="185" fill="#ecf0f1" opacity="0.5" style="display:none;"></rect><text id="SvgjsText9525" font-family="&quot;Roboto&quot;, &quot;Helvetica Neue&quot;, Helvetica, Arial, sans-serif" style="font-size:0.84em;font-family:&quot;Roboto&quot;, &quot;Helvetica Neue&quot;, Helvetica, Arial, sans-serif;text-anchor:middle;font-weight:400;display:none;" font-size="0.84em" text-anchor="middle" font-weight="400" fill="#000000" x="100" y="185"><tspan id="SvgjsTspan9526" dy="1.2em" x="100" style="font-size:0.84em;font-family:&quot;Roboto&quot;, &quot;Helvetica Neue&quot;, Helvetica, Arial, sans-serif;text-anchor:middle;font-weight:400;">Created on AvatarMaker.com</tspan></text></g><defs id="SvgjsDefs9492"><radialGradient id="SvgjsRadialGradient9540" cx="100" cy="113" r="40" gradientUnits="userSpaceOnUse" class="svga-on-canvas-facehighlight-gradient-single-0"><stop id="SvgjsStop9541" stop-opacity="0.5" stop-color="#a27662" offset="0" ></stop><stop id="SvgjsStop9542" stop-opacity="0" stop-color="#93614a" offset="0.9" ></stop></radialGradient><radialGradient id="SvgjsRadialGradient9544" cx="100" cy="57" r="36" gradientUnits="userSpaceOnUse" class="svga-on-canvas-facehighlight-gradient-single-1"><stop id="SvgjsStop9545" stop-opacity="0.5" stop-color="#a27662" offset="0" ></stop><stop id="SvgjsStop9546" stop-opacity="0" stop-color="#93614a" offset="0.9" ></stop></radialGradient><radialGradient id="SvgjsRadialGradient9625" cx="-558.588" cy="-490.918" r="84.646" gradientTransform="matrix(0.096 -0.0248 0.0245 0.0961 140.5478 120.3577)" gradientUnits="userSpaceOnUse" class="svga-on-canvas-eyesiris-gradient-left-1"><stop id="SvgjsStop9626" stop-opacity="0.8" stop-color="#ffffff" offset="0" ></stop><stop id="SvgjsStop9627" stop-opacity="0" stop-color="#ffffff" offset="1" ></stop></radialGradient><radialGradient id="SvgjsRadialGradient9629" cx="-565.337" cy="-492.691" r="84.644" gradientTransform="matrix(0.0991 8.856325e-004 -0.0011 0.0991 130.3774 136.3533)" gradientUnits="userSpaceOnUse" class="svga-on-canvas-eyesiris-gradient-left-2"><stop id="SvgjsStop9630" stop-opacity="0.8" stop-color="#ffffff" offset="0" ></stop><stop id="SvgjsStop9631" stop-opacity="0" stop-color="#ffffff" offset="1" ></stop></radialGradient><linearGradient id="SvgjsLinearGradient9635" x1="122.283" y1="93.047" x2="123.61" y2="91.466" gradientTransform="matrix(1 0 0 1 -52 0)" gradientUnits="userSpaceOnUse" class="svga-on-canvas-eyesiris-gradient-left-5"><stop id="SvgjsStop9636" stop-opacity="1" stop-color="#ffffff" offset="0" ></stop><stop id="SvgjsStop9637" stop-opacity="0" stop-color="#ffffff" offset="1" ></stop></linearGradient><linearGradient id="SvgjsLinearGradient9643" x1="130" y1="81" x2="126" y2="85" gradientTransform="matrix(1 0 0 1 -50 0)" gradientUnits="userSpaceOnUse" class="svga-on-canvas-eyesiris-gradient-left-7"><stop id="SvgjsStop9644" stop-opacity="1" stop-color="#ffffff" offset="0" ></stop><stop id="SvgjsStop9645" stop-opacity="0" stop-color="#ffffff" offset="1" ></stop></linearGradient><radialGradient id="SvgjsRadialGradient9648" cx="-578.76" cy="-490.73" r="84.646" gradientTransform="matrix(0.096 -0.0248 0.0245 0.0961 192.4794 119.8404)" gradientUnits="userSpaceOnUse" class="svga-on-canvas-eyesiris-gradient-right-1"><stop id="SvgjsStop9649" stop-opacity="0.8" stop-color="#ffffff" offset="0" ></stop><stop id="SvgjsStop9650" stop-opacity="0" stop-color="#ffffff" offset="1" ></stop></radialGradient><radialGradient id="SvgjsRadialGradient9652" cx="-584.778" cy="-487.329" r="84.644" gradientTransform="matrix(0.0991 8.856325e-004 -0.0011 0.0991 182.3104 135.839)" gradientUnits="userSpaceOnUse" class="svga-on-canvas-eyesiris-gradient-right-2"><stop id="SvgjsStop9653" stop-opacity="0.8" stop-color="#ffffff" offset="0" ></stop><stop id="SvgjsStop9654" stop-opacity="0" stop-color="#ffffff" offset="1" ></stop></radialGradient><linearGradient id="SvgjsLinearGradient9658" x1="120.284" y1="93.047" x2="121.611" y2="91.467" gradientUnits="userSpaceOnUse" class="svga-on-canvas-eyesiris-gradient-right-5"><stop id="SvgjsStop9659" stop-opacity="1" stop-color="#ffffff" offset="0" ></stop><stop id="SvgjsStop9660" stop-opacity="0" stop-color="#ffffff" offset="1" ></stop></linearGradient><linearGradient id="SvgjsLinearGradient9666" x1="130" y1="81" x2="126" y2="85" gradientUnits="userSpaceOnUse" class="svga-on-canvas-eyesiris-gradient-right-7"><stop id="SvgjsStop9667" stop-opacity="1" stop-color="#ffffff" offset="0" ></stop><stop id="SvgjsStop9668" stop-opacity="0" stop-color="#ffffff" offset="1" ></stop></linearGradient><radialGradient id="SvgjsRadialGradient9734" cx="125.187" cy="86.184" r="12.84" gradientTransform="matrix(-1.0592 3.999999e-004 -4.000000e-004 1.0589 206.5114 -6.1261)" gradientUnits="userSpaceOnUse" class="svga-on-canvas-eyesback-gradient-left-0"><stop id="SvgjsStop9735" stop-opacity="1" stop-color="#ffffff" offset="0" ></stop><stop id="SvgjsStop9736" stop-opacity="1" stop-color="#fdfefe" offset="0.544" ></stop><stop id="SvgjsStop9737" stop-opacity="1" stop-color="#f6f8f9" offset="0.74" ></stop><stop id="SvgjsStop9738" stop-opacity="1" stop-color="#eaeff2" offset="0.879" ></stop><stop id="SvgjsStop9739" stop-opacity="1" stop-color="#d9e3e8" offset="0.992" ></stop><stop id="SvgjsStop9740" stop-opacity="1" stop-color="#d8e2e7" offset="1" ></stop></radialGradient><radialGradient id="SvgjsRadialGradient9742" cx="125.187" cy="86.184" r="12.84" gradientTransform="matrix(1.0592 4.000000e-004 4.000000e-004 1.0589 -6.5114 -6.1261)" gradientUnits="userSpaceOnUse" class="svga-on-canvas-eyesback-gradient-right-0"><stop id="SvgjsStop9743" stop-opacity="1" stop-color="#ffffff" offset="0" ></stop><stop id="SvgjsStop9744" stop-opacity="1" stop-color="#fdfefe" offset="0.544" ></stop><stop id="SvgjsStop9745" stop-opacity="1" stop-color="#f6f8f9" offset="0.74" ></stop><stop id="SvgjsStop9746" stop-opacity="1" stop-color="#eaeff2" offset="0.879" ></stop><stop id="SvgjsStop9747" stop-opacity="1" stop-color="#d9e3e8" offset="0.992" ></stop><stop id="SvgjsStop9748" stop-opacity="1" stop-color="#d8e2e7" offset="1" ></stop></radialGradient><radialGradient id="SvgjsRadialGradient9750" cx="125.187" cy="86.184" r="12.84" gradientTransform="matrix(-1.0592 3.999999e-004 -4.000000e-004 1.0589 206.5114 -6.1261)" gradientUnits="userSpaceOnUse" class="svga-on-canvas-eyesfront-gradient-left-0"><stop id="SvgjsStop9751" stop-opacity="1" stop-color="#ffffff" offset="0" ></stop><stop id="SvgjsStop9752" stop-opacity="1" stop-color="#fdfefe" offset="0.544" ></stop><stop id="SvgjsStop9753" stop-opacity="1" stop-color="#f6f8f9" offset="0.74" ></stop><stop id="SvgjsStop9754" stop-opacity="1" stop-color="#eaeff2" offset="0.879" ></stop><stop id="SvgjsStop9755" stop-opacity="1" stop-color="#d9e3e8" offset="0.992" ></stop><stop id="SvgjsStop9756" stop-opacity="1" stop-color="#d8e2e7" offset="1" ></stop></radialGradient><radialGradient id="SvgjsRadialGradient9760" cx="123.021" cy="84.391" fx="133.604" fy="80.492" r="17.898" gradientTransform="matrix(0.9998 0.0208 0.0166 -0.7998 -47.4114 149.3288)" gradientUnits="userSpaceOnUse" class="svga-on-canvas-eyesfront-gradient-left-3"><stop id="SvgjsStop9761" stop-opacity="1" stop-color="#844e35" offset="0" ></stop><stop id="SvgjsStop9762" stop-opacity="0.3" stop-color="#844e35" offset="0.7" ></stop><stop id="SvgjsStop9763" stop-opacity="0" stop-color="#93614a" offset="1" ></stop></radialGradient><radialGradient id="SvgjsRadialGradient9765" cx="79.54" cy="83.579" r="23.208" gradientTransform="matrix(1.0971 -0.0567 0.0576 1.0844 -20.1314 20.8883)" gradientUnits="userSpaceOnUse" class="svga-on-canvas-eyesfront-gradient-left-4"><stop id="SvgjsStop9766" stop-opacity="0" stop-color="#000000" offset="0.94" ></stop><stop id="SvgjsStop9767" stop-opacity="0.3" stop-color="#000000" offset="1" ></stop></radialGradient><radialGradient id="SvgjsRadialGradient9771" cx="125.187" cy="86.184" r="12.84" gradientTransform="matrix(1.0592 4.000000e-004 4.000000e-004 1.0589 -6.5114 -6.1261)" gradientUnits="userSpaceOnUse" class="svga-on-canvas-eyesfront-gradient-right-0"><stop id="SvgjsStop9772" stop-opacity="1" stop-color="#ffffff" offset="0" ></stop><stop id="SvgjsStop9773" stop-opacity="1" stop-color="#fdfefe" offset="0.544" ></stop><stop id="SvgjsStop9774" stop-opacity="1" stop-color="#f6f8f9" offset="0.74" ></stop><stop id="SvgjsStop9775" stop-opacity="1" stop-color="#eaeff2" offset="0.879" ></stop><stop id="SvgjsStop9776" stop-opacity="1" stop-color="#d9e3e8" offset="0.992" ></stop><stop id="SvgjsStop9777" stop-opacity="1" stop-color="#d8e2e7" offset="1" ></stop></radialGradient><radialGradient id="SvgjsRadialGradient9781" cx="123.021" cy="84.391" fx="133.604" fy="80.492" r="17.898" gradientTransform="matrix(-0.9998 0.0208 -0.0166 -0.7998 247.4192 149.3287)" gradientUnits="userSpaceOnUse" class="svga-on-canvas-eyesfront-gradient-right-3"><stop id="SvgjsStop9782" stop-opacity="1" stop-color="#844e35" offset="0" ></stop><stop id="SvgjsStop9783" stop-opacity="0.3" stop-color="#844e35" offset="0.7" ></stop><stop id="SvgjsStop9784" stop-opacity="0" stop-color="#93614a" offset="1" ></stop></radialGradient><radialGradient id="SvgjsRadialGradient9786" cx="79.54" cy="83.579" r="23.208" gradientTransform="matrix(-1.0971 -0.0567 -0.0576 1.0844 220.1314 20.8883)" gradientUnits="userSpaceOnUse" class="svga-on-canvas-eyesfront-gradient-right-4"><stop id="SvgjsStop9787" stop-opacity="0" stop-color="#000000" offset="0.94" ></stop><stop id="SvgjsStop9788" stop-opacity="0.3" stop-color="#000000" offset="1" ></stop></radialGradient><linearGradient id="SvgjsLinearGradient9798" x1="130" y1="81" x2="126" y2="85" gradientTransform="matrix(1 0 0 1 -50 0)" gradientUnits="userSpaceOnUse" class="svga-on-canvas-eyesiris-gradient-left-6"><stop id="SvgjsStop9799" stop-opacity="1" stop-color="#ffffff" offset="0" ></stop><stop id="SvgjsStop9800" stop-opacity="0" stop-color="#ffffff" offset="1" ></stop></linearGradient><linearGradient id="SvgjsLinearGradient9808" x1="130" y1="81" x2="126" y2="85" gradientUnits="userSpaceOnUse" class="svga-on-canvas-eyesiris-gradient-right-6"><stop id="SvgjsStop9809" stop-opacity="1" stop-color="#ffffff" offset="0" ></stop><stop id="SvgjsStop9810" stop-opacity="0" stop-color="#ffffff" offset="1" ></stop></linearGradient><linearGradient id="SvgjsLinearGradient9812" x1="130" y1="69" x2="130" y2="109" gradientUnits="userSpaceOnUse" class="svga-on-canvas-glasses-gradient-single-0"><stop id="SvgjsStop9813" stop-opacity="1" stop-color="#000000" offset="0" ></stop><stop id="SvgjsStop9814" stop-opacity="0.8" stop-color="#000000" offset="1" ></stop></linearGradient><linearGradient id="SvgjsLinearGradient9816" x1="130" y1="69" x2="130" y2="109" gradientTransform="matrix(-1 0 0 1 200 0)" gradientUnits="userSpaceOnUse" class="svga-on-canvas-glasses-gradient-single-1"><stop id="SvgjsStop9817" stop-opacity="1" stop-color="#000000" offset="0" ></stop><stop id="SvgjsStop9818" stop-opacity="0.8" stop-color="#000000" offset="1" ></stop></linearGradient><linearGradient id="SvgjsLinearGradient9823" x1="100" y1="142" x2="100" y2="139" gradientUnits="userSpaceOnUse" class="svga-on-canvas-mouth-gradient-single-0"><stop id="SvgjsStop9824" stop-opacity="1" stop-color="#8b573f" offset="0.1" ></stop><stop id="SvgjsStop9825" stop-opacity="1" stop-color="#844e35" offset="1" ></stop></linearGradient><linearGradient id="SvgjsLinearGradient9849" x1="99.98" y1="171.27" x2="99.98" y2="136.351" gradientUnits="userSpaceOnUse" class="svga-on-canvas-chinshadow-gradient-single-0"><stop id="SvgjsStop9850" stop-opacity="0.8" stop-color="#844e35" offset="0" ></stop><stop id="SvgjsStop9851" stop-opacity="1" stop-color="#652e15" offset="0.7" ></stop></linearGradient><radialGradient id="SvgjsRadialGradient9854" cx="100" cy="225" r="250" gradientUnits="userSpaceOnUse" class="svga-on-canvas-backs-gradient-single-1"><stop id="SvgjsStop9855" stop-opacity="0" stop-color="#00a8c6" offset="0" ></stop><stop id="SvgjsStop9856" stop-opacity="1" stop-color="#009bb7" offset="1" ></stop></radialGradient></defs></svg>