<svg xmlns="http://www.w3.org/2000/svg" version="1.1" width="600px" height="600px" xlink="http://www.w3.org/1999/xlink" style="overflow:hidden!important;"><g id="svga-group-wrapper" transform="scale(3 3)"><g id="svga-group-backs-single"></g><g id="svga-group-subwrapper" transform="matrix(0.84999948 0 0 0.84999948 14.980551414553048 17.30177597316333)"><g id="svga-group-hair-back" ><path id="SvgjsPath8284" d="M156.79,87.186c1.245-4.645,2.08-9.934,2.312-14.214h11.529c1.834,3.925,2.658,6.08,3.9,7.933c-1.84-0.72-3.965-1.467-7.809-4.972c0.318,0.854,4.324,12.487,4.587,14.493c-3.391-2.793-4.635-5.812-6.713-8.063c1.206,8.371,1.873,12.796-2.654,23.504C159.181,90.365,157.449,87.622,156.79,87.186zM34.506,74.599c-0.217,8.956-2.898,15.556-12.347,23.446c2.96-0.94,5.61-2.43,10.271-5.06c0.8-2.13,1.51-4.561,1.79-6.8c-0.82,7.9-5.598,13.347-1.274,22.677c0.606-7.783,3.254-13.309,10.093-17.755c-0.216,0.149-0.716,0.513-1.372,1.089c0.747-0.612,1.527-1.188,2.333-1.728c-1.567-4.835-2.861-12.029-2.909-15.869H34.506z M33.478,81.232c-1.485-1.845-2.84-4.664-3.422-6.633h4.441C34.344,75.986,34.038,79.067,33.478,81.232z" fill="#c7a2a2" stroke-width="none" opacity="1" stroke="none"></path><path id="SvgjsPath8285" d="M173.749,80.275c-1.258-1.878-2.29-4.05-3.289-6.204h1.082c1.02,2.248,2.179,5.013,3.497,7.194c-3.51-1.04-5.28-2.09-7.91-4.72c3.17,7.87,3.66,11.71,5.19,14.94c-4.49-2.72-5.15-6.06-7.49-8.73c1.51,7.79,2.98,13.92-3.43,25.09c0-6.07-1.29-13.851-3.55-19.8c3.289,3.15,3.819,13.52,4.079,17.08c1.011-2.39,1.851-4.84,2.511-7.37c1.75-6.68,0.18-12.78-0.15-15.8c1.913,1.238,4.051,5.872,6.9,8.22c-1.801-4.38-2-6.61-5.399-15.54C168.6,77.325,171.119,79.245,173.749,80.275z M32.749,108.115c-3.38-8.12,0.65-14.03,1.47-21.93c-0.28,2.24-1.09,4.37-1.89,6.5c-4.66,2.63-6.61,4.12-9.57,5.06c9.449-7.89,11.529-13.99,11.747-22.946h-0.108c-0.153,1.387-0.459,3.801-1.019,5.966c-1.485-1.845-2.559-4.216-3.141-6.185l-1.204,0.011c0.695,2.252,2.058,4.925,4.075,7.094c-1.63,6.99-6.84,12.3-12.02,16.88c3.33-0.1,7.88-2.78,10.79-4.66c-2.09,5.7-2.23,10.66,1.77,17.57c-0.246-10.686,5.281-16.878,8.017-19.28c0.656-0.576,1.156-0.94,1.372-1.089C36.199,95.554,33.355,100.333,32.749,108.115z" fill="#a86868" stroke-width="none" opacity="1" stroke="none"></path></g><g id="svga-group-humanbody-single"><path id="SvgjsPath8125" d="M190.858 199.866c-6.008-10.158-13.474-11.973-19.628-13.936 -6.323-2.016-19.346-3.178-26.449-4.6 -6.86-1.373-23.153-5.789-23.339-13.488 -0.192-8.066 4.291-40.09 4.291-40.09H74.005c0 0 4.487 32.023 4.294 40.09 -0.184 7.699-16.48 12.115-23.341 13.488 -7.104 1.422-20.125 2.584-26.448 4.6 -6.156 1.963-13.624 3.777-19.632 13.936 -3.644 6.16-6.008 16.133-6.008 27.133h194C196.869 215.999 194.509 206.026 190.858 199.866z" fill="#e9b995" stroke-width="none" opacity="1" stroke="none"></path><path id="SvgjsPath8126" d="M121.442 167.843c2.495 10.929 18.165 13.698 26.293 15.325 21.909 4.379 33.772 5.134 42.297 19.539 2.903 4.916 5.459 15.864 5.962 24.153 1.835 0.291 0.531-17.432-5.136-26.994 -9.742-16.472-29.089-15.135-46.077-18.535C137.921 179.958 121.628 175.542 121.442 167.843L121.442 167.843zM78.558 167.843c-0.186 7.699-16.479 12.115-23.339 13.488 -16.988 3.4-36.335 2.063-46.077 18.535 -5.667 9.563-6.971 27.285-5.136 26.994 0.503-8.289 3.059-19.237 5.962-24.153 8.524-14.405 20.388-15.16 42.297-19.539C60.393 181.541 76.063 178.771 78.558 167.843L78.558 167.843z" fill="#f8d3b8" stroke-width="none" opacity="1" stroke="none"></path><path id="SvgjsPath8127" d="M51.206 189.513c0 0 28.641 0.299 33.473 1.885 2.314 0.758 8.372 5.633 8.372 5.633s-6.556-3.17-8.658-3.758C79.51 191.909 51.206 189.513 51.206 189.513zM99.795 199.999c2.053-0.041 7.887-3.799 7.887-3.799s-5.574 2.059-7.342 2.16c-1.491 0.086-6.366-1.238-6.366-1.238S98.112 200.032 99.795 199.999zM117.008 192.757c6.75-1.818 29.786-3.23 29.786-3.23s-23.791-0.516-30.51 1.725c-2.252 0.752-7.562 5.16-7.562 5.16S114.786 193.354 117.008 192.757z" fill="#daa075" stroke-width="none" opacity="1" stroke="none"></path><path id="SvgjsPath8128" d="M190.858 199.866c-9.741-16.471-29.122-15.142-46.077-18.535 -6.86-1.373-23.153-5.789-23.339-13.488 -0.192-8.066 4.291-40.09 4.291-40.09H74.005c0 0 4.487 32.023 4.294 40.09 -0.184 7.699-16.48 12.115-23.341 13.488 -7.104 1.422-20.125 2.584-26.448 4.6 -6.156 1.963-13.624 3.777-19.632 13.936 -3.644 6.16-6.008 16.133-6.008 27.133h194C196.869 215.999 194.509 206.026 190.858 199.866z" fill="none" stroke="#bb7440" stroke-width="1.5" opacity="1"></path></g><g id="svga-group-chinshadow-single"><path id="SvgjsPath8424" d="M100.002 171.27c11.208 0 16.588-3.813 20.938-7.778 0.582-8.897 2.669-24.918 3.646-32.155 -14.784-1.753-34.708-1.742-49.43 0.032 0.971 7.183 3.024 22.934 3.628 31.864C83.185 167.29 88.551 171.27 100.002 171.27z" fill="url(#SvgjsLinearGradient8425)" opacity="1"></path></g><g id="svga-group-clothes-single" ><path id="SvgjsPath8409" d="M176.662 239.205c-4.731-0.031-142.126-1.232-153.208-1.823 1.595-10.032 4.924-15.048 10.136-20.336 0.397-10.141-3-24.685-4.583-31.951 1.592-4.057 4.741 0.357 20.731-4.584 4.066-1.013 8.65-7.315 14.947-2.354 -2.199 0.903-4.148 1.319-5.923 1.756 -2.657 14.611 31.716 40.78 40.839 45.67 11.181-5.065 44.953-33.159 41.373-45.645 -0.346-0.158-4.268-1.11-5.551-1.71 2.176-1.919 5.892-2.672 9.589-0.353 4.431 2.771 12.578 5.406 22.848 5.406 1.323 0 2.337 0.34 2.986 1.999 -1.114 5.095-4.727 22.604-4.667 31.635C174.006 224.707 175.121 229.664 176.662 239.205z" fill="#4b2824" stroke-width="none" opacity="1" stroke="none"></path><path id="SvgjsPath8410" d="M150.077 185.14c-3.109 8.592-5.631 11.417-7.907 14.465 -2.618 3.506-3.455 5.129-2.205 2.785C144.613 193.068 145.855 193.511 150.077 185.14zM147.508 213.521c-0.232 1.071-0.375 1.72-0.344 1.593 2.81-9.574 9.184-26.459 9.184-26.459C154.178 195.795 151.241 196.15 147.508 213.521zM55.885 200c14.044 17.188-2.303-2.73-7.432-12.774C50.601 192.177 52.189 195.138 55.885 200zM54.307 216.992c-0.395-1-6.421-22.676-11.549-26.604C45.151 192.344 54.679 217.992 54.307 216.992z" fill="#3c1a17" stroke-width="none" opacity="1" stroke="none"></path><path id="SvgjsPath8411" d="M170.847 185.281c-0.14 0.637-0.436 1.843-0.642 2.827 -2.355-0.396-5.961-1.215-5.961-0.373 -0.866 9.101-1.283 8.2-2.025 16.167 0.073-10.926 2.019-11.629-0.219-16.902 -6.053-1.017-11.768-2.581-17.019-4.186 -2.151 8.861-12.232 20.261-8.525 15.445 3.343-4.392 6.313-10.895 7.528-15.751 -0.939-0.29-1.867-0.581-2.774-0.869 -0.021-0.591-0.082-1.165-0.235-1.701 -0.346-0.158-4.268-1.11-5.551-1.71 2.176-1.919 5.892-2.672 9.589-0.353 4.431 2.771 12.578 5.406 22.848 5.406C169.184 183.282 170.197 183.622 170.847 185.281zM29.153 185.281c0.14 0.637 0.436 1.843 0.642 2.827 2.355-0.396 5.895-0.783 5.895-0.783 -0.26 5.06 1.35 7.61 2.092 15.577C37.708 191.977 36.014 192.189 37 187c6.053-1.017 12.768-2.581 18.019-4.186 2.151 8.861 13.232 22.001 9.525 17.186 -3.343-4.392-7.313-12.635-8.528-17.491 0.939-0.29 1.867-0.581 2.774-0.869 0.021-0.591 0.082-1.165 0.235-1.701 0.346-0.158 4.268-1.11 5.551-1.71 -2.176-1.919-5.892-2.672-9.589-0.353 -4.431 2.771-12.578 5.406-22.848 5.406C30.816 183.282 29.803 183.622 29.153 185.281z" fill="#5a3834" stroke-width="none" opacity="1" stroke="none"></path><path id="SvgjsPath8412" d="M58.769 179.936c0-0.801 0.47-1.651 1.339-1.651 0.476 0 1.025 0.247 1.633 0.733l0.146 0.117 -0.178 0.057c-0.73 0.23-1.982 0.597-2.722 0.813l-0.128 0.038L58.769 179.936zM140.869 179.995c-0.016 0-0.016 0-1.14-0.35l-1.301-0.402 0.162-0.119c0.529-0.385 0.955-0.572 1.3-0.572 0.533 0 0.885 0.433 1.076 1.323l0.026 0.12H140.869z" fill="#2c100c" stroke-width="none" opacity="1" stroke="none"></path><path id="SvgjsPath8413" d="M166.279 216.915c-0.055-8.281 2.988-23.902 4.66-31.67 -1.18-3.017-3.58-1.753-6.03-2.02 -15.956-1.477-19.064-5.281-21.12-6.16 -2.655-1.258-6.253-0.91-8.479 1.13 -0.021 0.01-0.04 0.03-0.061 0.06 1.22 0.625 4.63 1.429 5.63 1.711 3.549 12.378-29.553 40.193-41.23 45.529 -9.231-4.947-43.363-30.894-40.8-45.5 0.113-0.027 2.995-0.729 3.1-0.779 0.039 0 2.487-0.819 2.92-1.03 -0.02-0.01-0.04-0.03-0.05-0.05 -6.392-5.112-11.061 1.27-15.11 2.279 -16.079 4.97-19.171 0.454-20.8 4.7 0.213 1 5.017 20.344 4.61 31.86 -5.072 5.146-8.551 10.14-10.16 20.399 -0.01 0.04-0.02 0.07-0.02 0.101 10.231 0.588 152.439 1.83 153.44 1.83C175.204 229.537 174.033 224.594 166.279 216.915zM138.649 179.205c1.198-0.872 1.907-0.766 2.22 0.69C140.868 179.896 138.65 179.205 138.649 179.205zM58.869 179.936c0-1 0.825-2.429 2.81-0.84C60.919 179.336 59.593 179.724 58.869 179.936zM23.899 237.365c3.735-15.164 12.067-23.607 14.47-23.68 -1.422 0-3.53 1.973-4.53 2.96 0.941-11.17-2.007-22.558-4.63-31.54 1.216-2.388 3.067-1.38 5.53-1.38 22.481 0 21.745-12.367 29.94-5.54 -0.409 0.163-2.524 0.757-2.9 0.88 -3.441-3.277-3.946 2.577-2.91 7.54 5.004 16.15 35.575 39.59 40.71 39.59 15.945-6.354 44.861-31.908 41.59-46.16 0.01-0.02 0-0.04-0.01-0.06 -0.188-1.347-1.059-2.112-2.62-0.811 -0.904-0.285-1.897-0.549-3.09-0.92 5.239-4.381 10.854 1.216 12.77 2.19 4.607 2.536 12.876 3.43 16.681 3.43 2.626 0.086 4.562-1.097 5.739 1.351 -2.909 9.728-5.29 21.217-4.67 31.39 -1.057-1.004-2.635-2.41-4.05-2.76 6.852 2.486 13.144 17.17 14.4 25.26C108.784 236.728 100.525 237.005 23.899 237.365z" fill="#1d0805" stroke-width="none" opacity="1" stroke="none"></path></g><g id="svga-group-head" ><g id="svga-group-ears-left" ><path id="SvgjsPath8404" d="M47.69 82.611c-1.588-2.324-8.025-7.659-11.703-6.839 -4.355 0.971-5.708 4.275-5.603 6.332 0.606 11.758 4.426 11.749 6.71 16.271 1.709 3.383 3.126 4.933 4.172 11.692 0.598 3.866 4.427 6.83 7.217 6.684 3.908-0.205 6.994-3.634 8.291-7.014C59.463 102.718 51.823 88.658 47.69 82.611z" fill="#e9b995" stroke="#bb7440" stroke-width="1.5" opacity="1"></path><path id="SvgjsPath8405" d="M43.274 99.484c-0.15-0.542-0.062-1.474 0.024-2.376 0.077-0.821 1.438-3.801 1.348-4.341 -0.344-2.022-1.931-5.809-2.949-7.853 -1.169-2.35-3.604-5.289-5.79-5.943 -0.904-0.271-3.479 0.039-3.781 0.625 -1.131 2.191-0.615 4.313 1.1 9.984 0.85 2.809 3.915 6.069 3.998 6.395 1.067 4.247 5.099 11.032 6.488 12.554 0.256 0.281 0.519 0.442 0.579 0.367 0.059-0.075-0.104-0.359-0.361-0.642 -1.372-1.513-5.367-8.282-6.396-12.38 -1.092-4.347 2.313-11.094 2.93-12.516 0.379 0.627 0.703 1.233 0.954 1.738 0.198 0.397 0.417 0.861 0.645 1.364 -0.367 0.744-4.245 6.226-3.026 10.371 0.451 1.528 2.054 4.491 3.432 6.049 0.483 0.546 0.893 0.702 1.19 1.207 0.341 0.586 0.732 1.251 1.792 1.687 0.215 0.089 0.408 0.118 0.577 0.108 0.293-0.019 0.51-0.157 0.667-0.318 0.029 0.265 0.044 0.604 0.051 0.919 0.007 0.404 0.073 0.735 0.162 0.738s0.168-0.325 0.161-0.729c-0.009-0.497-0.04-1.113-0.132-1.403 -0.273-0.854-1.028-1.791-1.829-2.781C44.319 101.332 43.505 100.323 43.274 99.484zM36.96 93.913c-2.347-6.628-1.518-13.365-1.103-14.318 1.345 0 3.778 2.439 4.397 3.42C39.874 83.854 36.837 89.368 36.96 93.913zM45.559 105.428c-0.961-0.395-1.303-0.979-1.635-1.545 -0.299-0.513-1.018-1-1.346-1.348 -0.191-0.204-0.531-0.75-0.715-0.872 -1.762-7.438 1.345-10.152 1.967-10.722 0.231 0.712 0.411 1.368 0.5 1.896 0.082 0.485-1.28 3.474-1.352 4.231 -0.089 0.939-0.182 1.911-0.012 2.526 0.253 0.917 1.093 1.955 1.904 2.96 0.72 0.892 1.459 1.811 1.732 2.581C46.509 105.299 46.204 105.692 45.559 105.428z" fill="#bb7440" stroke-width="none" opacity="1" stroke="none"></path></g><g id="svga-group-ears-right" ><path id="SvgjsPath8406" d="M152.049 82.611c1.588-2.324 8.025-7.659 11.701-6.839 4.357 0.971 5.709 4.275 5.604 6.332 -0.605 11.758-4.426 11.749-6.709 16.271 -1.711 3.383-3.127 4.933-4.174 11.692 -0.598 3.866-4.428 6.83-7.217 6.684 -3.908-0.205-6.994-3.634-8.291-7.014C140.275 102.718 147.916 88.658 152.049 82.611z" fill="#e9b995" stroke="#bb7440" stroke-width="1.5" opacity="1"></path><path id="SvgjsPath8407" d="M154.633 102.307c-0.801 0.99-1.557 1.928-1.83 2.781 -0.092 0.29-0.123 0.906-0.131 1.403 -0.008 0.404 0.072 0.732 0.16 0.729 0.09-0.003 0.154-0.334 0.162-0.738 0.008-0.315 0.021-0.654 0.051-0.919 0.156 0.161 0.373 0.3 0.666 0.318 0.17 0.01 0.361-0.02 0.578-0.108 1.061-0.436 1.449-1.101 1.791-1.687 0.297-0.505 0.709-0.66 1.191-1.207 1.377-1.559 2.98-4.521 3.432-6.049 1.219-4.145-2.66-9.627-3.027-10.371 0.229-0.503 0.447-0.967 0.645-1.364 0.252-0.505 0.576-1.111 0.955-1.738 0.617 1.421 4.021 8.168 2.93 12.516 -1.029 4.098-5.025 10.868-6.396 12.38 -0.256 0.282-0.42 0.566-0.361 0.642 0.061 0.075 0.322-0.086 0.578-0.367 1.391-1.521 5.422-8.307 6.49-12.554 0.082-0.326 3.146-3.586 3.996-6.395 1.715-5.671 2.232-7.793 1.102-9.984 -0.303-0.586-2.877-0.896-3.783-0.625 -2.186 0.655-4.619 3.594-5.789 5.943 -1.018 2.044-2.605 5.831-2.949 7.853 -0.09 0.54 1.271 3.52 1.348 4.341 0.086 0.902 0.176 1.834 0.025 2.376C156.232 100.323 155.42 101.332 154.633 102.307zM159.484 83.016c0.619-0.981 3.053-3.42 4.396-3.42 0.416 0.953 1.244 7.689-1.104 14.318C162.902 89.368 159.863 83.854 159.484 83.016zM153.137 105.137c0.273-0.771 1.012-1.689 1.732-2.581 0.811-1.005 1.65-2.044 1.904-2.96 0.168-0.616 0.076-1.587-0.014-2.526 -0.07-0.758-1.434-3.746-1.352-4.231 0.09-0.528 0.27-1.184 0.5-1.896 0.623 0.569 3.729 3.284 1.967 10.722 -0.184 0.122-0.523 0.668-0.715 0.872 -0.328 0.348-1.047 0.834-1.346 1.348 -0.332 0.565-0.674 1.15-1.635 1.545C153.533 105.692 153.23 105.299 153.137 105.137z" fill="#bb7440" stroke-width="none" opacity="1" stroke="none"></path></g><g id="svga-group-faceshape-wrap" ><g id="svga-group-faceshape-single" ><path id="SvgjsPath8421" d="M100.002 0.867C66.384 0.919 39.082 28.09 39.134 61.564c0.008 5.316 0.704 10.471 2.002 15.382h0.001C41.15 77 52.68 114.915 55.158 127.369c1.382 6.945 9.796 13.203 17.265 18.313 6.967 4.767 10.529 13.588 27.58 13.588s20.613-8.821 27.58-13.588c7.468-5.109 15.883-11.367 17.265-18.313 2.479-12.454 14.009-50.37 14.02-50.423h0.002c1.298-4.911 1.994-10.066 2.002-15.382C160.923 28.09 133.62 0.919 100.002 0.867z" fill="#e9b995" stroke-width="none" opacity="1"></path><path id="SvgjsPath8422" d="M146.772 22.738c7.478 10.183 11.917 22.87 11.898 36.626 -0.009 5.316-0.679 10.471-1.93 15.382h-0.002c-0.011 0.053-11.124 37.969-13.512 50.423 -1.335 6.945-9.471 13.203-16.668 18.313 -6.718 4.767-10.121 13.588-26.557 13.588 -16.434 0-19.842-8.821-26.557-13.588 -7.197-5.109-15.335-11.367-16.665-18.313 -2.391-12.454-13.504-50.37-13.515-50.423h0c-1.252-4.911-1.922-10.066-1.931-15.382 -0.021-13.752 4.416-26.435 11.889-36.617 -8.812 10.525-14.112 24.056-14.089 38.817 0.008 5.316 0.704 10.471 2.002 15.382h0.001C41.15 77 52.68 114.915 55.158 127.369c1.382 6.945 9.796 13.203 17.265 18.313 6.967 4.767 10.529 13.588 27.58 13.588s20.613-8.821 27.58-13.588c7.468-5.109 15.883-11.367 17.265-18.313 2.479-12.454 14.009-50.37 14.02-50.423h0.002c1.298-4.911 1.994-10.066 2.002-15.382C160.894 46.799 155.589 33.264 146.772 22.738z" fill="#e1ac85" stroke-width="none" opacity="1"></path><path id="SvgjsPath8423" d="M100.002 0.867C66.384 0.919 39.082 28.09 39.134 61.564c0.008 5.316 0.704 10.471 2.002 15.382h0.001C41.15 77 52.68 114.915 55.158 127.369c1.382 6.945 9.796 13.203 17.265 18.313 6.967 4.767 10.529 13.588 27.58 13.588s20.613-8.821 27.58-13.588c7.468-5.109 15.883-11.367 17.265-18.313 2.479-12.454 14.009-50.37 14.02-50.423h0.002c1.298-4.911 1.994-10.066 2.002-15.382C160.923 28.09 133.62 0.919 100.002 0.867z" fill="none" stroke="#bb7440" stroke-width="1.5" opacity="1"></path></g></g><g id="svga-group-mouth-single" ><path id="SvgjsPath8395" d="M99.867 141.087c-4.159 0-7.258-4.297-7.258-4.297 7.261 3.32 14.915 0 14.915 0S103.516 141.087 99.867 141.087z" fill="url(#SvgjsLinearGradient8396)" opacity="1"></path><path id="SvgjsPath8399" d="M112.127 131.943c0 0.625-7.773 3.456-12.258 3.575 -4.18 0.112-12.333-2.682-12.333-3.575 0-0.892 6.441-1.558 12.729-1.558C106.555 130.386 112.127 131.052 112.127 131.943z" fill="#ffffff" stroke-width="none" opacity="1"></path><path id="SvgjsPath8400" d="M95.441 127.853c0.99-0.131 2.728 0.908 4.824 0.909 1.541 0.002 3.426-1.067 4.612-0.909 2.529 0.341 3.857 1.882 10.491 2.47 0 0-3.22 1.083-4.075 1.15 -2.72 0.216-7.215-0.169-11.287-0.181 -4.556-0.02-8.941 0.43-11.697 0.301 -0.994-0.051-3.941-1.137-3.941-1.137C89.901 130.196 92.547 128.235 95.441 127.853zM84.369 130.818c0 0 4.514 3.538 6.253 4.76 2.007 1.411 5.029 3.623 9.474 3.557 3.563-0.058 6.641-1.816 8.477-2.986 1.978-1.259 6.796-5.463 6.796-5.463 -2.77 0.633-2.77 0.633-4.075 1.149 -2.741 1.084-7.477 2.722-11.173 2.722 -4.563 0-8.936-1.639-11.811-2.603C86.315 131.286 84.369 130.818 84.369 130.818z" fill="#43194b" stroke="#340e3c" stroke-width="0.75" opacity="1"></path><path id="SvgjsPath8401" d="M115.592 130.572c-0.458 0.663-2.14 0.715-2.888 0.977 -1.098 0.383-2.162 0.856-3.259 1.245 -2.693 0.954-5.51 1.792-8.375 1.98 -5.336 0.351-10.599-1.808-15.596-3.41 -0.424-0.136-0.994-0.175-1.359-0.449 -0.326-0.244-0.015-0.768 0.336-0.701 1.051 0.199 2.092 0.731 3.141 0.994 1.224 0.308 2.583 0.16 3.832 0.113 1.592-0.059 3.184-0.146 4.777-0.207 2.927-0.109 5.842-0.053 8.768 0.059 2.621 0.101 5.366 0.402 7.915-0.332 0.688-0.199 1.379-0.399 2.047-0.656C115.179 130.09 115.94 130.07 115.592 130.572 115.415 130.828 115.632 130.515 115.592 130.572zM108.39 131.773c-3.415 0.013-6.822-0.286-10.24-0.217 -1.874 0.038-3.745 0.139-5.617 0.219 -0.566 0.024-1.625-0.143-2.11 0.204 -0.466 0.334 1.182 0.807 1.325 0.852 3.306 1.039 6.829 1.78 10.304 1.346 1.704-0.214 3.382-0.632 5.023-1.13 0.64-0.195 1.439-0.341 1.987-0.743C109.635 131.883 108.656 131.773 108.39 131.773 107.333 131.777 109.492 131.771 108.39 131.773z" fill="#19011d" stroke-width="none" opacity="1" stroke="none"></path><path id="SvgjsPath8402" d="M99.901 138.136c-4.165 0-7.465-2.404-10.634-4.801 7.714 2.61 14.222 2.572 21.819-0.346C107.874 135.609 104.215 138.095 99.901 138.136zM93.601 130.478c5.567-0.262 11.102 0.228 16.657 0.047 -1.847-0.453-3.623-1.426-5.512-1.681 -1.452-0.142-2.984 0.918-4.481 0.918 -1.633-0.001-3.113-0.918-4.692-0.918 -2.024 0.27-3.923 1.229-5.881 1.771C90.996 130.593 92.299 130.547 93.601 130.478 95.469 130.39 92.18 130.543 93.601 130.478z" fill="#52275a" stroke-width="none" opacity="1" stroke="none"></path><path id="SvgjsPath8403" d="M95.134 136.031c1.596 0.319 3.265 0.525 4.987 0.525 1.453 0 3.029-0.222 4.598-0.563 -1.384 0.624-2.973 1.132-4.654 1.141C98.283 137.145 96.471 136.67 95.134 136.031z" fill="#62386a" stroke-width="none" opacity="1" stroke="none"></path></g><g id="svga-group-eyes-left" ><g id="svga-group-eyesback-left"><path id="SvgjsPath8310" d="M86.929 86.347c0.161 0.571 0.257 1.157 0.257 1.758 0 1.481-0.523 2.881-1.44 4.135 -4.077 0.038-16.966 0.706-18.935-0.303 -2.813-1.441-5.323-7.369-5.506-8.827C71.3 77.36 78.675 78.479 86.929 86.347z" fill="url(#SvgjsRadialGradient8311)" opacity="1"></path></g><g id="svga-group-eyesiriswrapper-left" transform="translate(0 0.5)"><g id="svga-group-eyesiriscontrol-left" ><g id="svga-group-eyesiris-left" ><path id="SvgjsPath8368" d="M83.199 89.25c-1.231 4.522-5.896 7.187-10.429 5.944 -4.528-1.241-7.203-5.918-5.97-10.442 1.23-4.526 5.905-7.19 10.434-5.947C81.761 80.045 84.433 84.723 83.199 89.25z" fill="#4e60a3" stroke="#152975" stroke-width="0.5" opacity="1"></path><path id="SvgjsPath8369" d="M82.994 87.526c-0.625 5.021-4.353 7.638-8.432 7.365 -3.765-0.253-7.131-3.031-7.443-7.828 1.302-0.374 3.031 0.234 4.549 0.002 -0.005 0.055-0.023 0.104-0.025 0.16 -0.12 1.842 1.357 3.446 3.299 3.577 1.946 0.13 3.62-1.263 3.74-3.104 0.013-0.24-0.002-0.476-0.038-0.702C79.997 87.2 81.648 86.999 82.994 87.526z" fill="#6777b2" stroke-width="none" opacity="1" stroke="none"></path><path id="SvgjsPath8370" d="M76.229 84.164c-1.869-0.535-3.777 0.533-4.26 2.396 -0.483 1.853 0.642 3.793 2.51 4.329 1.873 0.537 3.781-0.532 4.266-2.386C79.23 86.639 78.101 84.7 76.229 84.164z" fill="#000000" stroke-width="none" opacity="0.9"></path><path id="SvgjsPath8371" d="M76.229 84.164c-1.869-0.535-3.777 0.533-4.26 2.396 -0.483 1.853 0.642 3.793 2.51 4.329 1.873 0.537 3.781-0.532 4.266-2.386C79.23 86.639 78.101 84.7 76.229 84.164z" fill="none" stroke="#152975" stroke-width="0.75" opacity="1"></path><path id="SvgjsPath8372" d="M70.977 92.181c-0.177 0.619-1.142 0.356-0.965-0.266 0.171-0.6 0.633-0.967 0.926-1.495 0.313-0.564 1.177-0.06 0.863 0.505C71.56 91.36 71.114 91.696 70.977 92.181L70.977 92.181zM72.516 91.194c-0.266 0.31-0.614 1.458-0.766 1.834 -0.241 0.598 0.727 0.856 0.965 0.266 0.082-0.205 0.362-1.223 0.508-1.393C73.64 91.415 72.936 90.704 72.516 91.194L72.516 91.194zM74.598 94.151c0.522-0.602 0.47-1.292 0.459-2.041 -0.01-0.644-1.01-0.645-1 0 0.006 0.415 0.13 0.992-0.166 1.334C73.47 93.929 74.175 94.639 74.598 94.151L74.598 94.151zM75.619 91.985c0.008 0.621 0.084 1.226 0.268 1.82 0.19 0.614 1.155 0.352 0.965-0.266 -0.159-0.513-0.226-1.019-0.232-1.555C76.611 91.341 75.611 91.34 75.619 91.985L75.619 91.985z" fill="#ffffff" stroke-width="none" opacity="0.5"></path><path id="SvgjsPath8373" d="M80.946 85.543c-0.985 0.59-2.466 0.059-3.305-1.188 -0.838-1.248-0.713-2.739 0.273-3.328 0.984-0.593 2.467-0.061 3.301 1.187C82.053 83.462 81.932 84.952 80.946 85.543z" fill="#ffffff" stroke-width="none" opacity="0.8"></path></g></g></g><g id="svga-group-eyesfront-left"><path id="SvgjsPath8335" d="M56 88c0 13.808 8.06 24.999 18 24.999S92 101.808 92 88c0-13.809-8.06-25.001-18-25.001S56 74.191 56 88zM61.305 83.109c9.995-5.749 17.37-4.63 25.624 3.237 0.161 0.571 0.257 1.157 0.257 1.758 0 1.481-0.523 2.881-1.44 4.135 -4.077 0.038-16.966 0.706-18.935-0.303C63.998 90.496 61.487 84.568 61.305 83.109z" fill="#e9b995" stroke-width="none" opacity="1" stroke="none"></path><path id="SvgjsPath8336" d="M61.409 83.595c0.522 1.979 2.833 7.026 5.401 8.342 1.969 1.009 14.857 0.341 18.935 0.303 0.917-1.253 1.44-2.653 1.44-4.135 0-0.601-0.096-1.187-0.257-1.758 -8.166-7.784-15.476-8.95-25.31-3.407 1.968-5.724 8.522-9.952 16.34-9.987 9.393-0.04 17.018 5.981 17.041 13.451 0.023 7.469-7.572 13.554-16.961 13.596 -9.393 0.04-17.016-5.981-17.039-13.45C60.997 85.534 61.146 84.547 61.409 83.595z" fill="url(#SvgjsRadialGradient8337)" opacity="1"></path><path id="SvgjsPath8341" d="M66.811 91.937c-2.813-1.441-5.323-7.369-5.506-8.827 9.995-5.749 17.37-4.63 25.624 3.237 0.161 0.571 0.257 1.157 0.257 1.758 0 1.481-0.523 2.881-1.44 4.135C81.668 92.277 68.779 92.945 66.811 91.937z" fill="url(#SvgjsRadialGradient8342)" opacity="1"></path><path id="SvgjsPath8345" d="M61.338 79.989c3.414-1.34 14.297-4.254 19.581-1.339C73.348 76.293 65.782 78.817 61.338 79.989zM83.487 80.982c1.651 0.614 2.711 1.961 3.462 3.018C85.852 82.836 84.318 81.606 83.487 80.982z" fill="#bb7440" stroke-width="none" opacity="1" stroke="none"></path><path id="SvgjsPath8346" d="M84.061 80.665C75.721 78 69.195 78.032 60.873 81.46c-3.914 0.541-5.456 0.196-7.438-0.252 1.121 0.955 2.072 1.884 4.313 2.033 -1.188 0.298-1.629 0.301-2.938 0.361 1.983 0.619 3.232 1.038 5.29 1.375 -0.863 0.409-2.028 0.538-3.103 0.438 0.925 0.726 2.301 0.661 3.688 1.124 3.867 5.08 4.676 6.192 5.875 6.251 10.059 0.608 16.311-0.248 20.313-0.813 -1.499-0.19-17.826 0.781-20.063-0.313 -2.813-1.375-5.323-7.031-5.506-8.423 10.251-5.626 17.743-4.379 26.256 3.659 -1.948-2.957-4.397-4.875-7.75-6.485L84.061 80.665z" fill="#d6f7f4" stroke-width="none" opacity="1" stroke="none"></path></g></g><g id="svga-group-eyes-right" ><g id="svga-group-eyesback-right"><path id="SvgjsPath8318" d="M113.071 86.347c-0.161 0.571-0.257 1.157-0.257 1.758 0 1.481 0.523 2.881 1.44 4.135 4.077 0.038 16.966 0.706 18.935-0.303 2.813-1.441 5.323-7.369 5.506-8.827C128.7 77.36 121.325 78.479 113.071 86.347z" fill="url(#SvgjsRadialGradient8319)" opacity="1"></path></g><g id="svga-group-eyesiriswrapper-right" transform="translate(0 0.5)"><g id="svga-group-eyesiriscontrol-right" ><g id="svga-group-eyesiris-right" ><path id="SvgjsPath8374" d="M133.199 89.25c-1.231 4.522-5.896 7.187-10.429 5.944 -4.528-1.241-7.203-5.918-5.97-10.442 1.23-4.526 5.905-7.19 10.434-5.947C131.761 80.045 134.433 84.723 133.199 89.25z" fill="#4e60a3" stroke="#152975" stroke-width="0.5" opacity="1"></path><path id="SvgjsPath8375" d="M132.994 87.526c-0.625 5.021-4.353 7.638-8.432 7.365 -3.765-0.253-7.131-3.031-7.443-7.828 1.302-0.374 3.031 0.234 4.549 0.002 -0.005 0.055-0.023 0.104-0.025 0.16 -0.12 1.842 1.357 3.446 3.299 3.577 1.946 0.13 3.62-1.263 3.74-3.104 0.013-0.24-0.002-0.476-0.038-0.702C129.997 87.2 131.648 86.999 132.994 87.526z" fill="#6777b2" stroke-width="none" opacity="1" stroke="none"></path><path id="SvgjsPath8376" d="M126.229 84.164c-1.869-0.535-3.777 0.533-4.26 2.396 -0.483 1.853 0.642 3.793 2.51 4.329 1.873 0.537 3.781-0.532 4.266-2.386C129.23 86.639 128.101 84.7 126.229 84.164z" fill="#000000" stroke-width="none" opacity="0.9"></path><path id="SvgjsPath8377" d="M126.229 84.164c-1.869-0.535-3.777 0.533-4.26 2.396 -0.483 1.853 0.642 3.793 2.51 4.329 1.873 0.537 3.781-0.532 4.266-2.386C129.23 86.639 128.101 84.7 126.229 84.164z" fill="none" stroke="#152975" stroke-width="0.75" opacity="1"></path><path id="SvgjsPath8378" d="M120.977 92.181c-0.177 0.619-1.142 0.356-0.965-0.266 0.171-0.6 0.633-0.967 0.926-1.495 0.313-0.564 1.177-0.06 0.863 0.505C121.56 91.36 121.114 91.696 120.977 92.181L120.977 92.181zM122.516 91.194c-0.266 0.31-0.614 1.458-0.766 1.834 -0.241 0.598 0.727 0.856 0.965 0.266 0.082-0.205 0.362-1.223 0.508-1.393C123.64 91.415 122.936 90.704 122.516 91.194L122.516 91.194zM124.598 94.151c0.522-0.602 0.47-1.292 0.459-2.041 -0.01-0.644-1.01-0.645-1 0 0.006 0.415 0.13 0.992-0.166 1.334C123.47 93.929 124.175 94.639 124.598 94.151L124.598 94.151zM125.619 91.985c0.008 0.621 0.084 1.226 0.268 1.82 0.19 0.614 1.155 0.352 0.965-0.266 -0.159-0.513-0.226-1.019-0.232-1.555C126.611 91.341 125.611 91.34 125.619 91.985L125.619 91.985z" fill="#ffffff" stroke-width="none" opacity="0.5"></path><path id="SvgjsPath8379" d="M130.946 85.543c-0.985 0.59-2.466 0.059-3.305-1.188 -0.839-1.248-0.714-2.739 0.272-3.328 0.984-0.593 2.467-0.061 3.301 1.187C132.054 83.462 131.932 84.952 130.946 85.543z" fill="#ffffff" stroke-width="none" opacity="0.8"></path></g></g></g><g id="svga-group-eyesfront-right"><path id="SvgjsPath8356" d="M126 62.999c-9.94 0-18 11.193-18 25.001 0 13.808 8.06 24.999 18 24.999S144 101.808 144 88C144 74.191 135.94 62.999 126 62.999zM133.189 91.937c-1.969 1.009-14.857 0.341-18.935 0.303 -0.917-1.253-1.44-2.653-1.44-4.135 0-0.601 0.096-1.187 0.257-1.758 8.254-7.868 15.629-8.986 25.624-3.237C138.513 84.568 136.002 90.496 133.189 91.937z" fill="#e9b995" stroke-width="none" opacity="1" stroke="none"></path><path id="SvgjsPath8357" d="M138.591 83.595c-0.522 1.979-2.833 7.026-5.401 8.342 -1.969 1.009-14.857 0.341-18.935 0.303 -0.917-1.253-1.44-2.653-1.44-4.135 0-0.601 0.096-1.187 0.257-1.758 8.166-7.784 15.476-8.95 25.31-3.407 -1.968-5.724-8.522-9.952-16.34-9.987 -9.393-0.04-17.018 5.981-17.041 13.451 -0.023 7.469 7.572 13.554 16.961 13.596 9.393 0.04 17.016-5.981 17.039-13.45C139.003 85.534 138.854 84.547 138.591 83.595z" fill="url(#SvgjsRadialGradient8358)" opacity="1"></path><path id="SvgjsPath8362" d="M133.189 91.937c2.813-1.441 5.323-7.369 5.506-8.827 -9.995-5.749-17.37-4.63-25.624 3.237 -0.161 0.571-0.257 1.157-0.257 1.758 0 1.481 0.523 2.881 1.44 4.135C118.332 92.277 131.221 92.945 133.189 91.937z" fill="url(#SvgjsRadialGradient8363)" opacity="1"></path><path id="SvgjsPath8366" d="M119.081 78.65c5.284-2.915 16.167-0.001 19.581 1.339C134.218 78.817 126.652 76.293 119.081 78.65zM113.051 84c0.751-1.057 1.811-2.404 3.462-3.018C115.682 81.606 114.148 82.836 113.051 84z" fill="#bb7440" stroke-width="none" opacity="1" stroke="none"></path><path id="SvgjsPath8367" d="M115.939 80.665c8.34-2.665 14.865-2.633 23.188 0.795 3.914 0.541 5.456 0.196 7.438-0.252 -1.121 0.955-2.072 1.884-4.313 2.033 1.188 0.298 1.629 0.301 2.938 0.361 -1.983 0.619-3.232 1.038-5.29 1.375 0.863 0.409 2.028 0.538 3.103 0.438 -0.925 0.726-2.301 0.661-3.688 1.124 -3.867 5.08-4.676 6.192-5.875 6.251 -10.059 0.608-16.311-0.248-20.313-0.813 1.499-0.19 17.826 0.781 20.063-0.313 2.813-1.375 5.323-7.031 5.506-8.423 -10.251-5.626-17.743-4.379-26.256 3.659 1.948-2.957 4.397-4.875 7.75-6.485L115.939 80.665z" fill="#d6f7f4" stroke-width="none" opacity="1" stroke="none"></path></g></g><g id="svga-group-facehighlight-single" ><path id="SvgjsPath8117" d="M140.204 113.007c0.035 22.275-17.995 40.365-40.273 40.396 -22.274 0.036-40.361-17.993-40.396-40.272C59.501 90.857 77.53 72.77 99.808 72.735 122.083 72.701 140.171 90.73 140.204 113.007z" fill="url(#SvgjsRadialGradient8118)" opacity="1"></path><path id="SvgjsPath8121" d="M135,55.999c0,19.329-15.671,35-35,35c-19.329,0-35-15.671-35-35s15.671-35,35-35C119.329,20.999,135,36.67,135,55.999z" fill="url(#SvgjsRadialGradient8122)" opacity="1"></path></g><g id="svga-group-eyebrows-left" ><path id="SvgjsPath8380" d="M57.672 67.988c7.019 3.546 13.071 4.443 29.64 6.435 0.542 0.086 0.929 0.187 1.277 0.191 1.666-0.032 3.083-1.561 2.854-2.926C90.66 66.485 64.682 68.92 57.672 67.988z" fill="#d6c4c4" stroke-width="none" opacity="1" stroke="none"></path></g><g id="svga-group-eyebrows-right" ><path id="SvgjsPath8381" d="M142.328 67.988c-10.868 5.491-21.39 4.561-29.64 6.435 -1 0.159-1.385 0.356-2.354-0.054 -2.145-0.933-2.398-3.339-0.594-4.002C117.75 66.365 132.818 69.252 142.328 67.988z" fill="#d6c4c4" stroke-width="none" opacity="1" stroke="none"></path></g><g id="svga-group-nose-single" ><path id="SvgjsPath8259" d="M92.281 116.235c-0.745 2.063 5.028 4.289 7.218 4.426 2.374 0.147 9.024-2.899 7.896-4.991 -1.185-2.197-5.63-0.286-7.547-0.286C97.94 115.384 93.276 113.479 92.281 116.235z" fill="#daa075" stroke-width="none" opacity="1" stroke="none"></path><path id="SvgjsPath8260" d="M102.207 117.221c-0.243-0.522 1.194-1.333 1.748-1.493 0.777-0.226 2.505 0.238 2.438 0.831 -0.06 0.521-1.603-0.169-2.105-0.022C103.767 116.687 102.435 117.712 102.207 117.221zM95.214 116.742c0.706 0 1.753 0.457 1.945 0.057 0.229-0.479-1.56-1.065-2.086-1 -0.434 0.052-1.991 0.958-1.777 1.338C93.496 117.49 94.284 116.742 95.214 116.742z" fill="#bb7440" stroke-width="none" opacity="1" stroke="none"></path><path id="SvgjsPath8261" d="M99.857 113.479c0.669 0 1.807-0.637 1.978-1.9 0.754-5.575-0.521-20.246-1.978-20.246 -1.365 0-2.508 15.024-2.155 20.246C97.789 112.86 99.099 113.479 99.857 113.479" fill="#ffe8d6" stroke-width="none" opacity="0.2" stroke="none"></path></g><g id="svga-group-hair-front" ><path id="SvgjsPath8287" d="M142.198 28.734c-9.237-8.79-44.549-0.761-55.197 0.239C76.86 29.755 63.475-1.366 43.396 78.452c0.045 3.839 1.29 10.633 2.796 15.468 0.145-0.101 0.286-0.208 0.431-0.306 0 0-0.518 3.257 6.058 14.39 -0.348-8.073 1.212-13.893 2.492-21.414 15.709-19.987 30.389-24.674 41.56-28.155C89.233 67.19 81.814 75.225 78.568 84c13.647-9.576 32.409-28.884 32.409-28.884S109.574 59.819 83.292 84c10.943-2.679 31.345-13.679 45.636-34.951 2.746 4.5-12.4 30.794-12.827 31.801 7.663-6.086 18.079-14.636 20.755-24.62 0 0 1.571 4.043 2.662 8.635 2.878 12.162 2.904 27.281 3.429 31.125 1.665-8.721 1.925-18.482 1.922-18.355 3.905 17.893 0.419 30.394 0.352 34.724 5.198-10.435 10.604-22.897 12.177-34.534C157.396 77.824 145.779 27.134 142.198 28.734z" fill="#d6c4c4" stroke-width="none" opacity="0.1" stroke="none"></path><path id="SvgjsPath8288" d="M170.618 67.866c-0.08-5.39-1.12-13.92-2.921-18.78 3.28 3.39 7.41 7.39 10.78 9.5 -4.46-3.86-5.841-7.16-15.921-28.3 -6.189-12.98-10.287-26.75-22.378-28.37 -4.079-0.56-8.05 0.99-11.779 2.59 -9.61-8.79-21.59-12.331-32.67-11.331 -33.88 2.51-42.917 24.391-61.037 28.771 2.84 0.83 7.616-0.468 10.336-1.748 -3.75 5.06-2.422 4.531-10.692 12.801 -3.37 3.34-6.483 7.444-10.543 9.854 5.449-0.681 8.312-4.834 16.282-9.104 -1.15 1.84-5.249 8.094-11.929 14.494 -2.87 2.74-7.599 6.584-10.899 8.914 2.41-0.96 9.489-3.726 15.608-9.152 -3.169 4.531-12.261 12.94-8.145 29.881 0.832-7.406-0.001-16.415 7.048-20.895 -0.784 3.301-3.814 10.222-1.603 17.708H41.09c0.047 3.839 1.341 10.934 2.909 15.769 0.151-0.101 0.297-0.208 0.449-0.306 0 0 0.502 3.257 7.343 14.39 -0.364-8.073 0.222-13.893 1.553-21.414 16.345-19.987 31.619-24.674 43.241-28.155 -7.804 8.755-13.814 18.837-17.193 27.612 11.046-11.66 33.834-29.767 33.834-29.767s-0.364 4.866-27.712 29.046c9.449-5.795 29.698-15.006 44.566-36.278 2.858 4.5-10.819 30.794-11.264 31.801 7.974-6.086 14.646-16.636 17.435-26.62 0 0 3.716 6.043 4.847 10.635 2.995 12.162 1.984 22.281 2.528 26.125 1.732-8.721 3.042-13.482 3.039-13.355 4.066 17.893-0.604 32.394-0.672 36.724 5.406-10.434 12.072-24.997 13.709-36.634H171.3C170.631 69.944 171.127 69.932 170.618 67.866z" fill="#d6c4c4" stroke-width="none" opacity="1" stroke="none"></path><path id="SvgjsPath8289" d="M177.236 37.286c-3.811-0.17-5.876 0.099-10.356-0.261 -0.67-1.53-2.738-5.55-3.438-7.07C166.941 33.055 174.206 36.976 177.236 37.286z" fill="#b78383" stroke-width="none" opacity="1" stroke="none"></path><path id="SvgjsPath8290" d="M40.385 33.266c-7.787 4.224-11.305 8.458-15.656 9.179 4.06-2.41 6.46-5.99 9.83-9.33 8.27-8.27 7.26-8.3 11.01-13.36 -2.604 1.225-7.117 2.837-9.989 2.247C49.1 20.922 63.972 3.71 80 6 63.505 7.833 49.533 19.744 40.385 33.266zM118.817 77.397c11.188-23.146 11.904-26.578 11.264-31.801 -13.432 19.217-40.876 34.016-44.566 36.278 16.33-14.438 23.567-24.358 26.301-27.924C89.192 71.938 89.208 72.234 79.392 82.595c5.663-14.707 2.783-11.447 17.193-27.612 -6.263 1.876-11.361 3.689-15.442 5.618 0.567-1.342 0.738-2.05 2.64-4.833 7.124-4.361 21.086-15.032 31.086-18.481 -3.529 2.783-5.345 6.283-8.84 9.096 5.358-1.356 11.907-2.056 22.24-7.796 -0.553 0.442 17.922-8.631 11.935-19.03 3.684 2.625 0.95 13.336-0.784 23.305 3.888 5.373 4.755 11.915 6.033 18.583 0.121-2.193 0.47-7.496 0.016-9.648 2.284 5.926 5.567 13.815 5.526 22.481C155.411 62.569 152 52 152 41c3.791 6.331 5.29 17.906 6.192 25.033 0.916-4.582 1.52-8.026-0.544-14.033 1.302 1.624 3.089 2.834 4.352 5 -1.721-9.445-4.858-16.042-9.204-22.833C156.921 38.936 163 43 165 49c-1-11-5-22-12-31 3.743 4.367 7.097 8.734 10.061 13.343 9.618 20.183 11.033 23.448 15.417 27.242 -3.37-2.11-7.5-6.109-10.78-9.5 1.801 4.86 2.841 13.39 2.921 18.78 0.509 2.065 0.013 2.178 0.682 6.505h-11.597c-1.637 11.637-8.303 26.1-13.709 36.534 0.066-4.227 4.514-18.146 0.944-35.449 -0.088-0.424-0.175-0.847-0.272-1.275 0.003-0.127-1.307 4.635-3.039 13.355 -0.544-3.844 0.467-13.963-2.528-26.125 -1.131-4.592-4.847-10.635-4.847-10.635C128.832 69.641 120.864 76.769 118.817 77.397zM94.869 43.184C85.796 45.839 77 53 70 60c2-3 3-7 6-10 5-10 14-17 21-25 -15 9-24 22-35 35 3-6 6-14 11-19 -10 5-12 15-19 23 4-32 34-69 69-58C88.059-7.698 53.547 29.071 45.395 68.148 45.361 64.358 45.921 43.079 54 35c-8 6-10 16-15 23 -0.814-4.072 1.024-7.481 2.274-10.767 -1.054 1.576-3.016 2.758-4.23 4.512C39.577 43.671 42.073 35.284 50 30c-4.726 2.363-8.216 5.96-12.902 8.362 -2.15 2.944-5.13 6.637-8.769 10.124 -2.87 2.74-6.98 5.88-10.28 8.21 2.41-0.96 9.3-4.7 15.47-9.49 -2.95 4.77-12.27 12.74-8.9 29.41 0.33-7.42 0.52-15.68 7.57-20.16C31.405 59.757 28.145 67.514 30.356 75H41.09c0.047 3.839 1.341 10.633 2.909 15.468 0.151-0.101 0.297-0.208 0.449-0.306 0 0 0.318 1.985 3.66 8.081 0.96 1.751 2.157 3.824 3.684 6.309 -0.364-8.073 0.222-13.893 1.553-21.414 9.843-12.036 19.295-18.52 27.798-22.537C81.859 58.904 84.681 51.958 94.869 43.184z" fill="#c7a2a2" stroke-width="none" opacity="1" stroke="none"></path><path id="SvgjsPath8291" d="M39.14 35.028C50.711 12.323 73.942 5.8 82.235 5.829 64.286 9.892 51.536 17.819 39.14 35.028zM112.286 4.067C99.313 3.229 75.107 11.58 62.155 38.708 76.494 13.067 102.913 3.465 112.286 4.067zM144.313 7.883c-0.668-0.242-1.258-0.718-1.929-0.979 -7.811-3.035-14.957 2.381-15.565 7.654C127.992 9.383 135.786 4.803 144.313 7.883zM138.188 11.621c12.901-3.002 23.234 21.063 23.497 22.066C159.6 25.7 150.582 7.854 138.528 10.768c-3.965 0.959-7.038 3.953-9.309 7.198C131.586 15.113 134.468 12.47 138.188 11.621zM92.531 49.976c7.02-5.938 39.023-15.771 37.895-29.705C130.234 32.882 105.025 39.407 92.531 49.976zM123.893 16.667c-2.088-0.968-6.35-4.938-17.326 1.636C88.869 28.902 77.858 46.716 75.207 51.149 83.655 39.44 109.684 10.093 123.893 16.667z" fill="#b78383" stroke-width="none" opacity="1" stroke="none"></path><path id="SvgjsPath8292" d="M77.774 9.337C58.393 16.2 45.395 30.218 45.395 30.218 54.68 20.083 63.288 12.957 77.774 9.337zM52.747 32.614c1.826-3.136 16.3-19.207 24.673-22.069C68.571 12.888 57.47 24.503 52.747 32.614zM72.415 30.195c0 0 14.956-18.491 31.382-22.259C90.858 9.004 79.387 19.403 72.415 30.195zM91.168 35.718c0.92-1.296 18.853-16.116 26.805-18.162C109.279 18.78 93.755 32.075 91.168 35.718zM106.619 29.037c1.081-1.479 8.328-8.794 17.066-9.925C115.821 19.303 111.162 22.824 106.619 29.037zM98.693 39.328c4.613-6.021 17.328-8.604 25.865-17.449C116.765 29.092 105.065 31.012 98.693 39.328zM114.135 42.83c1.002 0 18.698-9.222 22.402-13.077 3.405-3.543 3.938-7.255 1.396-8.925 3.425 3.821-1.259 7.586-3.095 9.151C133.101 31.461 125.346 36.745 114.135 42.83 114.136 42.83 115.105 42.303 114.135 42.83zM133.194 36.025c6.469-4.646 10.608-13.196 6.736-16.54 -1.339-1.156-3.436-1.577-5.168-1.556 1.738-0.021 4.151 0.622 5.297 1.993 4.005 4.778-3.688 12.915-8.86 16.402 -7.433 5.012-16.3 7.966-24.96 10.046C115.538 44.373 125.367 41.646 133.194 36.025zM74.46 34.228c0 0 12.903-15.915 26.442-21.077 1.596-0.608 3.241-0.829 4.901-1.161C93.18 13.181 81.436 23.811 74.46 34.228zM71.001 43.084c1-0.716 18.004-20.675 33.561-26.663C91.336 19.74 78.568 31.611 71.001 43.084zM159.665 35.255c-0.596-1.001-5.457-18.448-15.779-16.404C150.81 18.188 156.162 28.076 159.665 35.255zM150.497 54.228c0.147-4.855 2.044-15.259-6.717-23.478C148.394 36.237 150.662 45.406 150.497 54.228z" fill="#e5e5e5" stroke-width="none" opacity="1" stroke="none"></path><path id="SvgjsPath8293" d="M183.02 61.345c-8.591-7.05-8.95-8.69-15.57-23.75 4.52 0.38 8.39 0.06 12.06-0.2 -7.56-0.74-13.149-6.29-16.029-8.68 -7.57-16.09-13.48-31.96-30.74-26.41 -1.36 0.44-2.71 0.96-4.04 1.57 -7.68-8.32-19.42-12.54-30.32-12.49 -31.79 0.12-46.83 23.91-60.24 29.1 -1.6 0.62-3.38 1.09-5.08 1.49 3.02 1.09 5.67 1.29 10.67-0.75 -6.2 8.24-3.19 3.92-10.56 11.66 -3.32 3.46-6.43 8.08-11.15 10.25 3.97 0.5 6.69-0.69 10.14-3.04 2.39-1.61 4.84-3.66 6.64-4.95 -7.24 11.04-24.31 23.26-24.31 23.26 5.59-1.06 11.42-4.38 16.11-8.14 -0.17 0.23-0.35 0.46-0.52 0.69 -2.46 3.25-4.83 6.75-5.96 10.71 -2.02 7.04-1.06 13.639 1.46 20.489 -0.64-6.07-0.74-18.58 5.67-24.379C30.026 61.248 27.022 68.061 29.164 75h0.875 0.317c-2.211-7.485 1.049-15.243 1.833-18.544 -7.05 4.48-7.24 12.74-7.57 20.16 -3.37-16.67 5.95-24.64 8.9-29.41 -6.17 4.79-13.06 8.53-15.47 9.49 3.3-2.33 7.41-5.47 10.28-8.21 6.68-6.4 11.16-13.52 12.31-15.36 -7.97 4.27-11.51 8.59-15.91 9.32 4.06-2.41 6.46-5.99 9.83-9.33 8.27-8.27 7.26-8.3 11.01-13.36 -2.72 1.28-7.53 2.99-10.37 2.16 18.12-4.38 26.65-25.73 60.53-28.24 11.081-1 23.06 2.04 32.67 10.83 3.729-1.6 7.7-2.95 11.779-2.39 12.091 1.62 15.591 15.19 21.78 28.17 10.08 21.14 11.66 24.14 16.12 28 -3.37-2.11-7.5-6.41-10.78-9.8 1.801 4.86 3.04 13.19 3.12 18.58 -2.05-6.78-5.83-12.26-9.87-17.39 0.851 1.22 8.21 10.8 10.021 22.35 -3.05-6.02-6.92-11.45-11.21-16.62 6.775 9.128 9.306 14.798 11.318 19.136 0.264 0 0.029-0.217 1.079 0.006 -0.079-0.174-0.238-0.532-0.317-0.703 -0.061-1 1.05-12.39-2.931-23.38C173.339 55.875 175.669 58.795 183.02 61.345zM176.439 37.186c-3.811-0.17-4.88-0.2-9.36-0.56 -0.67-1.53-2.34-4.35-3.04-5.87C167.539 33.855 173.409 36.875 176.439 37.186zM156.85 87.045c-2.49 9.14-6.841 19.28-11.99 26.3 1.87-13.8 3.479-27.76 1.779-37.28 -0.569 5.73-1.899 11.2-3.64 16.67 0.41-7.11-0.35-14.37-1.02-21.44 -0.341-3.52-0.83-7.01-1.57-10.47 -0.7-3.29-2.34-6.27-3.84-9.25 -1.78 5.84-4.65 10.85-7.84 16.03 -3.07 4.99-6.88 9.18-11.92 12.14 3.25-5.36 6.229-12.75 8.229-16.96 1.84-3.88 5.39-10.32 4.9-16.33 -5.561 8.7-14.36 16.58-22.58 22.81 -7.86 5.96-24.62 14.67-25.62 15.05 0.2-0.22 9.54-8.66 15.53-14.51 11.36-11.08 13.21-13.3 14.78-15.65 -5.8 5.05-11.42 10.3-17.24 15.33 -5.66 4.89-11.44 9.71-16.74 15.01 1.5-5.41 3.99-10.33 6.6-15.03 2.85-5.11 6.46-9.39 10.58-13.51 -23.378 7.551-39.08 24.38-41.29 27.14 -0.51 4.42-1.17 19.86-0.71 26.4 -5.932-10.697-18.602-27.757-11.658-54.876 -2.687 13.262 0.833 34.105 9.848 48.787 -0.29-6.43 0.32-13.03 1.44-19.36 -1.86 1.91-3.76 3.72-5.87 5.34 1.09-6.52 4.68-12.63 7.9-18.31 3.06-5.37 6.49-10.68 11.13-14.84 -3.67 4.46-6.98 9.89-9.99 15.14 -3.3 5.75-6.98 12.73-8.18 16.9 6.77-6.6 10.3-14.29 26.97-24.64 9.7-6.02 15.45-7.08 21.66-8.94 1.07-1.1 2.13-2.19 3.17-3.32 1.99-2.16 3.74-4.46 5.47-6.83 -6.689 10.42-8.76 10.79-13.779 17.45 -7.61 10.09-8.34 13.08-11.13 19.26 6.1-6.44 9.41-8.49 15.85-14.6 5.07-4.82 16.58-13.46 16.89-13.98 1.25-2.11 2.46-5.22 4.15-8.13 -1.7 3.56-2.63 7.37-4.78 10.7 -2.16 3.34-5.29 6.29-7.97 9.21 -4.42 4.81-10.89 10.75-17.41 16.21 4.99-3.06 10.19-5.66 15.03-8.99 4.7-3.23 9.27-6.71 13.56-10.48 8.301-7.28 15.11-15.79 20.34-25.49 -1.63 3.43-3.42 6.79-5.46 9.99 0.631 3.72-0.199 7.31-1.569 10.78 -0.41 1.04-7.29 16.5-9.37 20.14 2.96-2.26 5.1-5.08 7.16-8.15 6.95-10.4 10.42-17.72 12.35-30.55 -0.399 4.22-0.979 8.44-2.11 12.54 2.061 5.1 3.341 6.48 4.5 10.88 2.12 8.04 2.54 16.39 2.32 24.67 2.26-11.38 3.4-22.64 1.76-34.21 2.41 13.95 1.49 22.32 1.49 22.32 0.5 2.2 0.88 4.42 1.16 6.66 1.21 9.68 0.1 19.31-1.81 28.82 9.399-18.14 11.949-43.65 7.229-63.271 2.04 6.83 3.16 13.82 3.34 20.95 0.181 6.9-0.05 14.01-1.229 20.82 2.29-5.99 4.412-15.707 4.412-17.556C160.342 74.499 158.489 81.005 156.85 87.045z" fill="#a86868" stroke-width="none" opacity="1" stroke="none"></path></g><g id="svga-group-glasses-single" ><path id="SvgjsPath8382" d="M110.76 95.32c-2.96-2.35-4.68-4.17-6.61-9.09 -0.04-0.35 0.23-1.11 0.52-1.31 0.31-0.21 1.19-0.23 1.49 0L110.76 95.32zM89.24 95.32c2.96-2.35 4.68-4.17 6.6-9.09 0.04-0.35-0.23-1.11-0.52-1.31 -0.31-0.21-1.19-0.23-1.48 0L89.24 95.32z" fill="#b26801" stroke-width="none" opacity="0.2"></path><path id="SvgjsPath8383" d="M132.33 106.33c-17.81 0-27.13-17.83-27.13-27.39 0-6.3 6.57-10.16 17.57-10.32 0.11 0 11.18-0.16 11.34-0.16 3.72 0 10.26 1.36 12.85 3.91 4.21 4.15 4.15 8.86 4.11 11.66 0 0.24-0.01 0.47-0.01 0.68C151.07 94.71 142.88 106.33 132.33 106.33z" fill="url(#SvgjsLinearGradient8384)" opacity="1"></path><path id="SvgjsPath8387" d="M67.67 106.33c17.81 0 27.12-17.83 27.12-27.39 0-6.3-6.57-10.16-17.57-10.32 -0.11 0-11.18-0.16-11.34-0.16 -3.72 0-10.26 1.36-12.85 3.91 -4.21 4.15-4.15 8.86-4.11 11.66 0 0.24 0.01 0.47 0.01 0.68C48.93 94.71 57.12 106.33 67.67 106.33z" fill="url(#SvgjsLinearGradient8388)" opacity="1"></path><path id="SvgjsPath8391" d="M151.08 84.03c0 0.22-0.01 0.43-0.01 0.62 -13.36-3.33-29.38-5.57-45.75-7.07 0.89-5.5 7.26-8.82 17.45-8.97 0.11 0 11.18-0.16 11.34-0.16 3.72 0 10.26 1.36 12.85 3.91C151.18 76.52 151.12 81.22 151.08 84.03zM77.23 68.61c-0.11 0-11.18-0.16-11.34-0.16 -3.72 0-10.26 1.36-12.85 3.91 -0.83 0.82-1.49 1.65-2.02 2.49 13.08 0.21 28.2 0.73 43.48 1.84C93.09 71.73 86.85 68.75 77.23 68.61z" fill="#ffffff" stroke-width="none" opacity="0.05"></path><path id="SvgjsPath8392" d="M155 80.98c0 0.23-0.15 0.44-0.37 0.53 -1.13 0.43-1.98 0.48-3.43 0.45v-2.51c1.17 0.07 2.04-0.05 3.15-0.38 0.15-0.05 0.32-0.02 0.45 0.08 0.13 0.1 0.2 0.25 0.2 0.4V80.98zM45 80.98c0 0.23 0.15 0.44 0.37 0.53 1.14 0.43 1.98 0.48 3.43 0.45v-2.51c-1.17 0.07-2.04-0.05-3.15-0.38 -0.15-0.05-0.32-0.02-0.45 0.08 -0.13 0.1-0.2 0.25-0.2 0.4V80.98zM151.59 82.16c0-3.82-1.53-7.49-4.26-10.17s-9.61-4.12-13.44-4.06l-11.13 0.16c-10.48 0.15-18.08 3.78-18.08 10.85v0.27c0 8.65 8.91 27.65 27.65 27.65 10.64 0 19.26-11.51 19.26-22.14V82.16zM150.55 84.71c0 9.76-7.96 21.1-18.21 21.1 -17.46 0-26.6-17.57-26.6-26.87 0-5.98 6.37-9.64 17.05-9.8 0.16 0 11.18-0.16 11.33-0.16 3.54 0 10.03 1.34 12.49 3.76C151.02 77.1 150.55 82.15 150.55 84.71zM48.41 84.71c0 10.64 8.62 22.14 19.26 22.14 18.74 0 27.65-19 27.65-27.65v-0.27c0-7.07-7.6-10.69-18.08-10.85L66.1 67.93c-3.82-0.06-10.71 1.38-13.44 4.06 -2.72 2.68-4.26 6.35-4.26 10.17V84.71zM53.4 72.74c2.46-2.42 8.94-3.76 12.48-3.76 0.15 0 11.18 0.16 11.33 0.16 10.68 0.15 17.05 3.82 17.05 9.8 0 9.3-9.14 26.87-26.6 26.87 -10.26 0-18.21-11.34-18.21-21.1C49.45 82.15 48.98 77.1 53.4 72.74zM100 77.08c-2.36 0-4.75 1.21-4.75 1.21v2.47h0.42c0.26 0 0.48-0.23 0.48-0.51v-0.87c0-0.34 0.19-0.64 0.48-0.76 0.8-0.33 2.4-0.64 3.37-0.64 0.97 0.01 2.57 0.31 3.37 0.64 0.29 0.12 0.49 0.42 0.49 0.76v0.87c0 0.28 0.21 0.51 0.48 0.51h0.42V78.3C104.75 78.3 102.36 77.08 100 77.08zM127.88 67.6c0-0.12-0.05-0.24-0.14-0.33 -0.09-0.09-0.21-0.13-0.33-0.13 -10.86 0.33-16.63 1.08-27.41 1.34 -10.78-0.26-16.55-1.01-27.41-1.34 -0.12 0-0.24 0.04-0.33 0.13 -0.09 0.09-0.14 0.2-0.14 0.33v0.45c2.82 0.05 21.84 1.5 27.88 1.49 6.26-0.01 17.04-1.3 27.88-1.49V67.6z" fill="#ca8100" stroke-width="none" opacity="1"></path><path id="SvgjsPath8393" d="M151.4 81.66v-2.1c0.14 0.01 0.28 0.01 0.41 0.01 0.87 0 1.63-0.12 2.59-0.41 0.03 0 0.06 0 0.08 0 0.1 0 0.14 0.02 0.19 0.05 0.08 0.06 0.12 0.15 0.12 0.24v1.44c0 0.15-0.09 0.29-0.24 0.34 -0.99 0.37-1.73 0.44-2.75 0.44C151.68 81.66 151.54 81.66 151.4 81.66zM48.19 81.66c-1.02 0-1.76-0.07-2.75-0.44 -0.14-0.05-0.24-0.19-0.24-0.34v-1.44c0-0.1 0.05-0.19 0.12-0.24 0.05-0.04 0.12-0.06 0.18-0.06 1.06 0.31 1.81 0.42 2.68 0.42 0.13 0 0.27 0 0.41-0.01v2.1C48.46 81.66 48.32 81.66 48.19 81.66zM132.33 106.55c-19.28 0-27.45-19.64-27.45-27.45v-0.27c0-6.5 6.69-10.48 17.89-10.65l11.35-0.16c3.78 0 10.43 1.39 13.08 4.01 2.67 2.63 4.2 6.28 4.2 10.03v2.54C151.39 94.76 143.07 106.55 132.33 106.55zM122.78 68.84c-10.8 0.16-17.25 3.89-17.25 10 0 9.45 9.21 27.07 26.8 27.07 10.37 0 18.41-11.45 18.41-21.3l0.01-0.68c0.04-2.76 0.1-7.37-4.01-11.43 -2.5-2.46-9.05-3.82-12.63-3.82C133.97 68.68 122.87 68.84 122.78 68.84zM67.67 106.55c-10.74 0-19.06-11.8-19.06-21.94v-2.54c0-3.74 1.53-7.4 4.2-10.03 2.65-2.61 9.3-4.01 13.08-4.01l11.35 0.16c11.2 0.16 17.89 4.14 17.89 10.65v0.27C95.12 86.92 86.95 106.55 67.67 106.55zM65.88 68.68c-3.58 0-10.13 1.36-12.63 3.82 -4.12 4.06-4.05 8.67-4.01 11.43l0.01 0.68c0 9.85 8.04 21.3 18.41 21.3 17.6 0 26.8-17.62 26.8-27.07 0-6.1-6.45-9.84-17.25-10C77.13 68.84 66.03 68.68 65.88 68.68zM104.55 80.46v-2.14c-0.49-0.23-2.54-1.14-4.55-1.14 -2.01 0-4.06 0.91-4.55 1.14v2.14h0.22c0.15 0 0.28-0.14 0.28-0.31v-0.87c0-0.42 0.24-0.79 0.61-0.95 0.82-0.34 2.46-0.65 3.45-0.66 0.98 0.01 2.63 0.32 3.45 0.66 0.36 0.15 0.61 0.53 0.61 0.95v0.87c0 0.17 0.12 0.31 0.28 0.31H104.55zM100 69.24c2.9 0 6.73-0.28 11.18-0.6 5.05-0.36 10.76-0.78 16.51-0.89V67.5c0-0.07-0.03-0.14-0.08-0.19 -0.05-0.05-0.11-0.07-0.19-0.07h0c-5.19 0.16-9.26 0.42-13.19 0.66 -4.42 0.28-8.6 0.54-14.23 0.68 -5.63-0.14-9.8-0.4-14.23-0.68 -3.93-0.25-8-0.5-13.2-0.66 -0.07 0-0.13 0.03-0.18 0.07 -0.05 0.05-0.08 0.12-0.08 0.19v0.25c1.2 0.04 4.22 0.23 7.99 0.47 6.67 0.43 15.8 1.01 19.65 1.01H100z" fill="#fed922" stroke-width="none" opacity="1"></path><path id="SvgjsPath8394" d="M151.6 81.26v-1.7c0.07 0 0.14 0 0.21 0 0.9 0 1.66-0.12 2.65-0.42l0.13 0.1v1.44c0 0.07-0.04 0.13-0.11 0.15 -0.96 0.36-1.68 0.43-2.68 0.43L151.6 81.26zM48.19 81.26c-1 0-1.72-0.07-2.68-0.43 -0.06-0.02-0.11-0.09-0.11-0.15v-1.44l0.05-0.11c1.08 0.31 1.85 0.43 2.74 0.43 0.07 0 0.14 0 0.21 0v1.7L48.19 81.26zM132.33 106.15c-19.14 0-27.25-19.49-27.25-27.25v-0.27c0-6.38 6.61-10.29 17.69-10.45l11.35-0.16c3.74 0 10.32 1.37 12.93 3.95 2.63 2.59 4.14 6.19 4.14 9.89v2.54C151.19 94.46 142.95 106.15 132.33 106.15zM122.77 68.44c-10.92 0.16-17.44 3.97-17.44 10.2 0 9.52 9.27 27.27 27 27.27 10.48 0 18.61-11.56 18.61-21.5l0.01-0.68c0.04-2.79 0.11-7.46-4.07-11.57 -2.53-2.5-9.16-3.88-12.77-3.88C133.97 68.28 122.87 68.44 122.77 68.44zM67.67 106.15c-10.62 0-18.86-11.69-18.86-21.75v-2.54c0-3.69 1.51-7.3 4.14-9.89 2.61-2.58 9.19-3.95 12.94-3.95l11.35 0.16c11.08 0.16 17.69 4.07 17.69 10.45v0.27C94.92 86.66 86.81 106.15 67.67 106.15zM65.88 68.28c-3.61 0-10.23 1.38-12.77 3.88 -4.18 4.12-4.11 8.79-4.07 11.57l0.01 0.68c0 9.94 8.13 21.5 18.61 21.5 17.73 0 27-17.75 27-27.27 0-6.23-6.52-10.04-17.44-10.2C77.13 68.44 66.04 68.28 65.88 68.28zM104.35 80.06v-1.81c-0.59-0.27-2.5-1.07-4.35-1.07 -1.84 0-3.76 0.8-4.35 1.07v1.81h0.02c0.04 0 0.08-0.05 0.08-0.11v-0.87c0-0.5 0.29-0.95 0.73-1.13 0.84-0.35 2.52-0.67 3.52-0.67 1 0.01 2.68 0.33 3.52 0.67 0.44 0.18 0.73 0.64 0.73 1.13v0.87c0 0.07 0.04 0.11 0.08 0.11H104.35zM100 68.84c2.89 0 6.72-0.28 11.17-0.6 4.97-0.36 10.6-0.77 16.28-0.88l-0.02-0.11c-5.18 0.16-9.23 0.42-13.2 0.67 -4.42 0.28-8.59 0.54-14.24 0.68 -5.62-0.14-9.8-0.4-14.26-0.68 -3.92-0.25-7.98-0.5-13.22-0.6v0.06c1.31 0.05 4.19 0.23 7.81 0.47 6.66 0.43 15.77 1.01 19.64 1.01H100z" fill="#f8fbb1" stroke-width="none" opacity="1"></path></g></g></g><rect id="SvgjsRect8102" width="200" height="15" x="0" y="185" fill="#ecf0f1" opacity="0.5" style="display:none;"></rect><text id="SvgjsText8103" font-family="&quot;Roboto&quot;, &quot;Helvetica Neue&quot;, Helvetica, Arial, sans-serif" style="font-size:0.84em;font-family:&quot;Roboto&quot;, &quot;Helvetica Neue&quot;, Helvetica, Arial, sans-serif;text-anchor:middle;font-weight:400;display:none;" font-size="0.84em" text-anchor="middle" font-weight="400" fill="#000000" x="100" y="185"><tspan id="SvgjsTspan8104" dy="1.2em" x="100" style="font-size:0.84em;font-family:&quot;Roboto&quot;, &quot;Helvetica Neue&quot;, Helvetica, Arial, sans-serif;text-anchor:middle;font-weight:400;">Created on AvatarMaker.com</tspan></text></g><defs id="SvgjsDefs8070"><radialGradient id="SvgjsRadialGradient8118" cx="100" cy="113" r="40" gradientUnits="userSpaceOnUse" class="svga-on-canvas-facehighlight-gradient-single-0"><stop id="SvgjsStop8119" stop-opacity="0.5" stop-color="#f8d3b8" offset="0" ></stop><stop id="SvgjsStop8120" stop-opacity="0" stop-color="#e9b995" offset="0.9" ></stop></radialGradient><radialGradient id="SvgjsRadialGradient8122" cx="100" cy="57" r="36" gradientUnits="userSpaceOnUse" class="svga-on-canvas-facehighlight-gradient-single-1"><stop id="SvgjsStop8123" stop-opacity="0.5" stop-color="#f8d3b8" offset="0" ></stop><stop id="SvgjsStop8124" stop-opacity="0" stop-color="#e9b995" offset="0.9" ></stop></radialGradient><radialGradient id="SvgjsRadialGradient8203" cx="-558.588" cy="-490.918" r="84.646" gradientTransform="matrix(0.096 -0.0248 0.0245 0.0961 140.5478 120.3577)" gradientUnits="userSpaceOnUse" class="svga-on-canvas-eyesiris-gradient-left-1"><stop id="SvgjsStop8204" stop-opacity="0.8" stop-color="#ffffff" offset="0" ></stop><stop id="SvgjsStop8205" stop-opacity="0" stop-color="#ffffff" offset="1" ></stop></radialGradient><radialGradient id="SvgjsRadialGradient8207" cx="-565.337" cy="-492.691" r="84.644" gradientTransform="matrix(0.0991 8.856325e-004 -0.0011 0.0991 130.3774 136.3533)" gradientUnits="userSpaceOnUse" class="svga-on-canvas-eyesiris-gradient-left-2"><stop id="SvgjsStop8208" stop-opacity="0.8" stop-color="#ffffff" offset="0" ></stop><stop id="SvgjsStop8209" stop-opacity="0" stop-color="#ffffff" offset="1" ></stop></radialGradient><linearGradient id="SvgjsLinearGradient8213" x1="122.283" y1="93.047" x2="123.61" y2="91.466" gradientTransform="matrix(1 0 0 1 -52 0)" gradientUnits="userSpaceOnUse" class="svga-on-canvas-eyesiris-gradient-left-5"><stop id="SvgjsStop8214" stop-opacity="1" stop-color="#ffffff" offset="0" ></stop><stop id="SvgjsStop8215" stop-opacity="0" stop-color="#ffffff" offset="1" ></stop></linearGradient><linearGradient id="SvgjsLinearGradient8217" x1="127" y1="85" x2="125" y2="87" gradientTransform="matrix(1 0 0 1 -50 0)" gradientUnits="userSpaceOnUse" class="svga-on-canvas-eyesiris-gradient-left-6"><stop id="SvgjsStop8218" stop-opacity="1" stop-color="#ffffff" offset="0" ></stop><stop id="SvgjsStop8219" stop-opacity="0" stop-color="#ffffff" offset="1" ></stop></linearGradient><linearGradient id="SvgjsLinearGradient8221" x1="130" y1="81" x2="126" y2="85" gradientTransform="matrix(1 0 0 1 -50 0)" gradientUnits="userSpaceOnUse" class="svga-on-canvas-eyesiris-gradient-left-7"><stop id="SvgjsStop8222" stop-opacity="1" stop-color="#ffffff" offset="0" ></stop><stop id="SvgjsStop8223" stop-opacity="0" stop-color="#ffffff" offset="1" ></stop></linearGradient><radialGradient id="SvgjsRadialGradient8226" cx="-578.76" cy="-490.73" r="84.646" gradientTransform="matrix(0.096 -0.0248 0.0245 0.0961 192.4794 119.8404)" gradientUnits="userSpaceOnUse" class="svga-on-canvas-eyesiris-gradient-right-1"><stop id="SvgjsStop8227" stop-opacity="0.8" stop-color="#ffffff" offset="0" ></stop><stop id="SvgjsStop8228" stop-opacity="0" stop-color="#ffffff" offset="1" ></stop></radialGradient><radialGradient id="SvgjsRadialGradient8230" cx="-584.778" cy="-487.329" r="84.644" gradientTransform="matrix(0.0991 8.856325e-004 -0.0011 0.0991 182.3104 135.839)" gradientUnits="userSpaceOnUse" class="svga-on-canvas-eyesiris-gradient-right-2"><stop id="SvgjsStop8231" stop-opacity="0.8" stop-color="#ffffff" offset="0" ></stop><stop id="SvgjsStop8232" stop-opacity="0" stop-color="#ffffff" offset="1" ></stop></radialGradient><linearGradient id="SvgjsLinearGradient8236" x1="120.284" y1="93.047" x2="121.611" y2="91.467" gradientUnits="userSpaceOnUse" class="svga-on-canvas-eyesiris-gradient-right-5"><stop id="SvgjsStop8237" stop-opacity="1" stop-color="#ffffff" offset="0" ></stop><stop id="SvgjsStop8238" stop-opacity="0" stop-color="#ffffff" offset="1" ></stop></linearGradient><linearGradient id="SvgjsLinearGradient8240" x1="127" y1="85" x2="125" y2="87" gradientUnits="userSpaceOnUse" class="svga-on-canvas-eyesiris-gradient-right-6"><stop id="SvgjsStop8241" stop-opacity="1" stop-color="#ffffff" offset="0" ></stop><stop id="SvgjsStop8242" stop-opacity="0" stop-color="#ffffff" offset="1" ></stop></linearGradient><linearGradient id="SvgjsLinearGradient8244" x1="130" y1="81" x2="126" y2="85" gradientUnits="userSpaceOnUse" class="svga-on-canvas-eyesiris-gradient-right-7"><stop id="SvgjsStop8245" stop-opacity="1" stop-color="#ffffff" offset="0" ></stop><stop id="SvgjsStop8246" stop-opacity="0" stop-color="#ffffff" offset="1" ></stop></linearGradient><radialGradient id="SvgjsRadialGradient8311" cx="126.485" cy="86.435" r="13.37" gradientTransform="matrix(-1.0172 0 0 1.0172 202.565 -1.469)" gradientUnits="userSpaceOnUse" class="svga-on-canvas-eyesback-gradient-left-0"><stop id="SvgjsStop8312" stop-opacity="1" stop-color="#ffffff" offset="0" ></stop><stop id="SvgjsStop8313" stop-opacity="1" stop-color="#fdfefe" offset="0.544" ></stop><stop id="SvgjsStop8314" stop-opacity="1" stop-color="#f6f8f9" offset="0.74" ></stop><stop id="SvgjsStop8315" stop-opacity="1" stop-color="#eaeff2" offset="0.879" ></stop><stop id="SvgjsStop8316" stop-opacity="1" stop-color="#d9e3e8" offset="0.992" ></stop><stop id="SvgjsStop8317" stop-opacity="1" stop-color="#d8e2e7" offset="1" ></stop></radialGradient><radialGradient id="SvgjsRadialGradient8319" cx="126.484" cy="86.435" r="13.371" gradientTransform="matrix(1.0172 0 0 1.0172 -2.565 -1.469)" gradientUnits="userSpaceOnUse" class="svga-on-canvas-eyesback-gradient-right-0"><stop id="SvgjsStop8320" stop-opacity="1" stop-color="#ffffff" offset="0" ></stop><stop id="SvgjsStop8321" stop-opacity="1" stop-color="#fdfefe" offset="0.544" ></stop><stop id="SvgjsStop8322" stop-opacity="1" stop-color="#f6f8f9" offset="0.74" ></stop><stop id="SvgjsStop8323" stop-opacity="1" stop-color="#eaeff2" offset="0.879" ></stop><stop id="SvgjsStop8324" stop-opacity="1" stop-color="#d9e3e8" offset="0.992" ></stop><stop id="SvgjsStop8325" stop-opacity="1" stop-color="#d8e2e7" offset="1" ></stop></radialGradient><radialGradient id="SvgjsRadialGradient8327" cx="126.485" cy="86.435" r="13.37" gradientTransform="matrix(-1.0172 0 0 1.0172 202.565 -1.469)" gradientUnits="userSpaceOnUse" class="svga-on-canvas-eyesfront-gradient-left-0"><stop id="SvgjsStop8328" stop-opacity="1" stop-color="#ffffff" offset="0" ></stop><stop id="SvgjsStop8329" stop-opacity="1" stop-color="#fdfefe" offset="0.544" ></stop><stop id="SvgjsStop8330" stop-opacity="1" stop-color="#f6f8f9" offset="0.74" ></stop><stop id="SvgjsStop8331" stop-opacity="1" stop-color="#eaeff2" offset="0.879" ></stop><stop id="SvgjsStop8332" stop-opacity="1" stop-color="#d9e3e8" offset="0.992" ></stop><stop id="SvgjsStop8333" stop-opacity="1" stop-color="#d8e2e7" offset="1" ></stop></radialGradient><radialGradient id="SvgjsRadialGradient8337" cx="121.915" cy="85.945" fx="133.772" fy="85.978" r="16.863" gradientTransform="matrix(0.9998 0.0208 0.0166 -0.7998 -45.2343 152.149)" gradientUnits="userSpaceOnUse" class="svga-on-canvas-eyesfront-gradient-left-3"><stop id="SvgjsStop8338" stop-opacity="1" stop-color="#daa075" offset="0" ></stop><stop id="SvgjsStop8339" stop-opacity="0.3" stop-color="#daa075" offset="0.7" ></stop><stop id="SvgjsStop8340" stop-opacity="0" stop-color="#e9b995" offset="1" ></stop></radialGradient><radialGradient id="SvgjsRadialGradient8342" cx="72.994" cy="103.619" r="22.097" gradientTransform="matrix(1.0455 -0.0545 0.0548 1.0391 -8.9357 0.7632)" gradientUnits="userSpaceOnUse" class="svga-on-canvas-eyesfront-gradient-left-4"><stop id="SvgjsStop8343" stop-opacity="0" stop-color="#000000" offset="0.95" ></stop><stop id="SvgjsStop8344" stop-opacity="0.3" stop-color="#000000" offset="1" ></stop></radialGradient><radialGradient id="SvgjsRadialGradient8348" cx="126.484" cy="86.435" r="13.371" gradientTransform="matrix(1.0172 0 0 1.0172 -2.565 -1.469)" gradientUnits="userSpaceOnUse" class="svga-on-canvas-eyesfront-gradient-right-0"><stop id="SvgjsStop8349" stop-opacity="1" stop-color="#ffffff" offset="0" ></stop><stop id="SvgjsStop8350" stop-opacity="1" stop-color="#fdfefe" offset="0.544" ></stop><stop id="SvgjsStop8351" stop-opacity="1" stop-color="#f6f8f9" offset="0.74" ></stop><stop id="SvgjsStop8352" stop-opacity="1" stop-color="#eaeff2" offset="0.879" ></stop><stop id="SvgjsStop8353" stop-opacity="1" stop-color="#d9e3e8" offset="0.992" ></stop><stop id="SvgjsStop8354" stop-opacity="1" stop-color="#d8e2e7" offset="1" ></stop></radialGradient><radialGradient id="SvgjsRadialGradient8358" cx="121.915" cy="85.945" fx="133.772" fy="85.978" r="16.863" gradientTransform="matrix(-0.9998 0.0208 -0.0166 -0.7998 245.2343 152.149)" gradientUnits="userSpaceOnUse" class="svga-on-canvas-eyesfront-gradient-right-3"><stop id="SvgjsStop8359" stop-opacity="1" stop-color="#daa075" offset="0" ></stop><stop id="SvgjsStop8360" stop-opacity="0.3" stop-color="#daa075" offset="0.7" ></stop><stop id="SvgjsStop8361" stop-opacity="0" stop-color="#e9b995" offset="1" ></stop></radialGradient><radialGradient id="SvgjsRadialGradient8363" cx="72.994" cy="103.619" r="22.097" gradientTransform="matrix(-1.0455 -0.0545 -0.0548 1.0391 208.9357 0.7632)" gradientUnits="userSpaceOnUse" class="svga-on-canvas-eyesfront-gradient-right-4"><stop id="SvgjsStop8364" stop-opacity="0" stop-color="#000000" offset="0.95" ></stop><stop id="SvgjsStop8365" stop-opacity="0.3" stop-color="#000000" offset="1" ></stop></radialGradient><linearGradient id="SvgjsLinearGradient8384" x1="128" y1="106" x2="128" y2="69" gradientUnits="userSpaceOnUse" class="svga-on-canvas-glasses-gradient-single-1"><stop id="SvgjsStop8385" stop-opacity="0.95" stop-color="#000000" offset="0" ></stop><stop id="SvgjsStop8386" stop-opacity="1" stop-color="#000000" offset="1" ></stop></linearGradient><linearGradient id="SvgjsLinearGradient8388" x1="72" y1="106" x2="72" y2="69" gradientUnits="userSpaceOnUse" class="svga-on-canvas-glasses-gradient-single-2"><stop id="SvgjsStop8389" stop-opacity="0.95" stop-color="#000000" offset="0" ></stop><stop id="SvgjsStop8390" stop-opacity="1" stop-color="#000000" offset="1" ></stop></linearGradient><linearGradient id="SvgjsLinearGradient8396" x1="100" y1="141" x2="100" y2="137" gradientUnits="userSpaceOnUse" class="svga-on-canvas-mouth-gradient-single-0"><stop id="SvgjsStop8397" stop-opacity="1" stop-color="#e1ac85" offset="0.1" ></stop><stop id="SvgjsStop8398" stop-opacity="1" stop-color="#daa075" offset="1" ></stop></linearGradient><linearGradient id="SvgjsLinearGradient8425" x1="99.98" y1="171.27" x2="99.98" y2="136.351" gradientUnits="userSpaceOnUse" class="svga-on-canvas-chinshadow-gradient-single-0"><stop id="SvgjsStop8426" stop-opacity="0.8" stop-color="#daa075" offset="0" ></stop><stop id="SvgjsStop8427" stop-opacity="1" stop-color="#bb7440" offset="0.7" ></stop></linearGradient></defs></svg>