<?xml version="1.0" encoding="UTF-8" standalone="no"?>
<svg
   xmlns:dc="http://purl.org/dc/elements/1.1/"
   xmlns:cc="http://creativecommons.org/ns#"
   xmlns:rdf="http://www.w3.org/1999/02/22-rdf-syntax-ns#"
   xmlns:svg="http://www.w3.org/2000/svg"
   xmlns="http://www.w3.org/2000/svg"
   viewBox="0 0 358.93332 58.293331"
   height="58.293331"
   width="358.93332"
   xml:space="preserve"
   id="svg2"
   version="1.1"><metadata
     id="metadata8"><rdf:RDF><cc:Work
         rdf:about=""><dc:format>image/svg+xml</dc:format><dc:type
           rdf:resource="http://purl.org/dc/dcmitype/StillImage" /></cc:Work></rdf:RDF></metadata><defs
     id="defs6" /><g
     transform="matrix(1.3333333,0,0,-1.3333333,0,58.293333)"
     id="g10"><g
       transform="scale(0.1)"
       id="g12"><path
         id="path14"
         style="fill:#13366d;fill-opacity:1;fill-rule:nonzero;stroke:none"
         d="m 395.551,184.629 h -14.106 v 100.238 h -26.867 v 12.906 h 67.824 V 284.867 H 395.551 V 184.629" /><path
         id="path16"
         style="fill:#13366d;fill-opacity:1;fill-rule:nonzero;stroke:none"
         d="m 501.766,252.16 v 45.613 h 14.109 V 184.629 h -14.109 v 54.332 h -53.86 v -54.332 h -14.093 v 113.144 h 14.093 V 252.16 h 53.86" /><path
         id="path18"
         style="fill:#13366d;fill-opacity:1;fill-rule:nonzero;stroke:none"
         d="m 537.789,297.773 h 60.762 v -12.906 h -46.672 v -31.656 h 45.324 v -12.902 h -45.324 v -42.758 h 46.672 v -12.922 h -60.762 v 113.144" /><path
         id="path20"
         style="fill:#13366d;fill-opacity:1;fill-rule:nonzero;stroke:none"
         d="m 729.082,252.16 v 45.613 h 14.094 V 184.629 h -14.094 v 54.332 h -53.863 v -54.332 h -14.106 v 113.144 h 14.106 V 252.16 h 53.863" /><path
         id="path22"
         style="fill:#13366d;fill-opacity:1;fill-rule:nonzero;stroke:none"
         d="m 875.668,241.199 c 0,-33.601 -26.559,-58.972 -59.266,-58.972 -32.711,0 -59.269,25.371 -59.269,58.972 0,32.418 26.851,58.977 59.269,58.977 32.403,0 59.266,-26.559 59.266,-58.977 z m -14.105,0 c 0,24.918 -18.602,45.778 -45.161,45.778 -26.558,0 -45.164,-20.86 -45.164,-45.778 0,-25.793 20.7,-45.758 45.164,-45.758 24.45,0 45.161,19.965 45.161,45.758" /><path
         id="path24"
         style="fill:#13366d;fill-opacity:1;fill-rule:nonzero;stroke:none"
         d="m 889.469,303.18 84.918,-88.977 v 83.57 h 14.105 V 180 l -84.918,88.961 V 184.629 H 889.469 V 303.18" /><path
         id="path26"
         style="fill:#13366d;fill-opacity:1;fill-rule:nonzero;stroke:none"
         d="m 1113.16,241.656 v -4.496 c 0,-31.055 -21.89,-54.933 -53.55,-54.933 -31.66,0 -57.17,27.324 -57.17,58.683 0,32.563 26.11,59.266 58.66,59.266 17.57,0 34.97,-7.953 46.07,-21.914 l -9.9,-9.449 c -8.1,11.105 -21.77,18.457 -35.57,18.457 -25.35,0 -45.16,-20.551 -45.16,-45.907 0,-23.715 19.51,-46.215 43.96,-46.215 17.57,0 36.46,15.145 37.06,33.602 h -29.25 v 12.906 h 44.85" /><path
         id="path28"
         style="fill:#13366d;fill-opacity:1;fill-rule:nonzero;stroke:none"
         d="m 1235.6,297.773 h 18.45 l -50.86,-50.859 51.76,-62.285 h -19.05 l -42.61,52.676 -5.7,-5.407 v -47.269 h -14.11 v 113.144 h 14.11 v -49.058 l 48.01,49.058" /><path
         id="path30"
         style="fill:#13366d;fill-opacity:1;fill-rule:nonzero;stroke:none"
         d="m 1375.56,241.199 c 0,-33.601 -26.54,-58.972 -59.24,-58.972 -32.71,0 -59.27,25.371 -59.27,58.972 0,32.418 26.86,58.977 59.27,58.977 32.41,0 59.24,-26.559 59.24,-58.977 z m -14.06,0 c 0,24.918 -18.62,45.778 -45.18,45.778 -26.55,0 -45.16,-20.86 -45.16,-45.778 0,-25.793 20.7,-45.758 45.16,-45.758 24.45,0 45.18,19.965 45.18,45.758" /><path
         id="path32"
         style="fill:#13366d;fill-opacity:1;fill-rule:nonzero;stroke:none"
         d="m 1389.39,303.18 84.9,-88.977 v 83.57 h 14.12 V 180 l -84.93,88.961 v -84.332 h -14.09 V 303.18" /><path
         id="path34"
         style="fill:#13366d;fill-opacity:1;fill-rule:nonzero;stroke:none"
         d="m 1613.1,241.656 v -4.496 c 0,-31.055 -21.91,-54.933 -53.55,-54.933 -31.7,0 -57.19,27.324 -57.19,58.683 0,32.563 26.1,59.266 58.65,59.266 17.58,0 34.98,-7.953 46.08,-21.914 l -9.9,-9.449 c -8.11,11.105 -21.76,18.457 -35.56,18.457 -25.34,0 -45.15,-20.551 -45.15,-45.907 0,-23.715 19.51,-46.215 43.95,-46.215 17.54,0 36.44,15.145 37.05,33.602 h -29.26 v 12.906 h 44.88" /><path
         id="path36"
         style="fill:#13366d;fill-opacity:1;fill-rule:nonzero;stroke:none"
         d="m 1685.55,297.773 v -66.769 c 0,-18.453 5.54,-35.563 27.31,-35.563 21.77,0 27.33,17.11 27.33,35.563 v 66.769 h 14.06 v -71.574 c 0,-24.898 -15.44,-43.972 -41.39,-43.972 -25.96,0 -41.4,19.074 -41.4,43.972 v 71.574 h 14.09" /><path
         id="path38"
         style="fill:#13366d;fill-opacity:1;fill-rule:nonzero;stroke:none"
         d="m 1773.94,303.18 84.9,-88.977 v 83.57 h 14.12 V 180 l -84.93,88.961 v -84.332 h -14.09 V 303.18" /><path
         id="path40"
         style="fill:#13366d;fill-opacity:1;fill-rule:nonzero;stroke:none"
         d="m 1894.12,184.629 h 14.0898 V 297.774 H 1894.12 Z" /><path
         id="path42"
         style="fill:#13366d;fill-opacity:1;fill-rule:nonzero;stroke:none"
         d="m 1968.24,214.059 33.6,83.714 h 15.44 l -49.04,-119.121 -49.22,119.121 h 15.47 l 33.75,-83.714" /><path
         id="path44"
         style="fill:#13366d;fill-opacity:1;fill-rule:nonzero;stroke:none"
         d="m 2028.38,297.773 h 60.8 v -12.906 h -46.7 v -31.656 h 45.32 v -12.902 h -45.32 v -42.758 h 46.7 v -12.922 h -60.8 v 113.144" /><path
         id="path46"
         style="fill:#13366d;fill-opacity:1;fill-rule:nonzero;stroke:none"
         d="m 2178.41,184.629 h -17.11 l -33.28,47.871 h -5.86 v -47.871 h -14.12 v 113.144 h 17.11 c 10.08,0 20.86,-0.148 29.89,-5.242 9.43,-5.554 14.82,-16.218 14.82,-27.011 0,-16.204 -10.78,-29.707 -27.13,-31.657 z m -56.25,59.574 h 4.52 c 14.41,0 30,2.711 30,20.715 0,17.695 -16.82,20.258 -30.77,20.258 h -3.75 v -40.973" /><path
         id="path48"
         style="fill:#13366d;fill-opacity:1;fill-rule:nonzero;stroke:none"
         d="m 2241.29,276.313 c -4.2,7.062 -9.61,10.664 -18.17,10.664 -8.96,0 -18.87,-6.153 -18.87,-16.055 0,-8.859 8.68,-13.504 15.73,-16.215 l 8.12,-3.148 c 16.06,-6.301 28.07,-15.149 28.07,-34.059 0,-20.547 -15.94,-35.273 -36.19,-35.273 -18.3,0 -32.54,13.515 -34.94,31.671 l 14.23,3 c -0.14,-12.445 9.76,-21.457 21.92,-21.457 12.15,0 20.86,10.204 20.86,22.059 0,12.16 -9.76,17.402 -19.51,21.461 l -7.8,3.293 c -12.89,5.555 -24.61,12.906 -24.61,28.668 0,18.297 16.2,29.254 33.31,29.254 12.6,0 22.94,-6.153 29.1,-17.11 l -11.25,-6.753" /><path
         id="path50"
         style="fill:#13366d;fill-opacity:1;fill-rule:nonzero;stroke:none"
         d="m 2272.63,184.629 h 14.1211 V 297.774 H 2272.63 Z" /><path
         id="path52"
         style="fill:#13366d;fill-opacity:1;fill-rule:nonzero;stroke:none"
         d="m 2339.87,184.629 h -14.09 v 100.238 h -26.87 v 12.906 h 67.82 v -12.906 h -26.86 V 184.629" /><path
         id="path54"
         style="fill:#13366d;fill-opacity:1;fill-rule:nonzero;stroke:none"
         d="m 2367.61,297.773 h 16.23 l 27.75,-48.312 27.74,48.312 h 16.23 l -36.91,-63.91 v -49.234 h -14.12 v 49.234 l -36.92,63.91" /><path
         id="path56"
         style="fill:#13366d;fill-opacity:1;fill-rule:nonzero;stroke:none"
         d="m 2622.23,241.199 c 0,-33.601 -26.57,-58.972 -59.27,-58.972 -32.69,0 -59.26,25.371 -59.26,58.972 0,32.418 26.86,58.977 59.26,58.977 32.41,0 59.27,-26.559 59.27,-58.977 z m -14.09,0 c 0,24.918 -18.63,45.778 -45.18,45.778 -26.54,0 -45.17,-20.86 -45.17,-45.778 0,-25.793 20.74,-45.758 45.17,-45.758 24.47,0 45.18,19.965 45.18,45.758" /><path
         id="path58"
         style="fill:#13366d;fill-opacity:1;fill-rule:nonzero;stroke:none"
         d="m 2651.32,284.867 v -31.801 h 39.32 V 240.16 h -39.32 v -55.531 h -14.09 v 113.144 h 54.76 v -12.906 h -40.67" /><path
         id="path60"
         style="fill:#13366d;fill-opacity:1;fill-rule:nonzero;stroke:none"
         d="m 415.355,96.3281 c -4.203,7.0309 -9.609,10.6639 -18.164,10.6639 -8.992,0 -18.894,-6.152 -18.894,-16.0545 0,-8.875 8.699,-13.5352 15.746,-16.2305 l 8.102,-3.164 c 16.054,-6.2696 28.066,-15.1172 28.066,-34.043 0,-20.5664 -15.91,-35.27344 -36.168,-35.27344 -18.297,0 -32.551,13.53514 -34.949,31.67184 l 14.25,3.0157 c -0.145,-12.4805 9.758,-21.4727 21.898,-21.4727 12.16,0 20.86,10.2227 20.86,22.0586 0,12.1602 -9.754,17.4023 -19.508,21.4453 l -7.793,3.3125 c -12.906,5.5352 -24.613,12.918 -24.613,28.6797 0,18.2815 16.203,29.2385 33.312,29.2385 12.598,0 22.953,-6.153 29.105,-17.11 l -11.25,-6.7379" /><path
         id="path62"
         style="fill:#13366d;fill-opacity:1;fill-rule:nonzero;stroke:none"
         d="m 529.527,96.1523 c -8.101,7.2067 -19.207,11.1327 -29.855,11.1327 -25.356,0 -44.707,-21.1522 -44.707,-46.2303 0,-24.7539 19.207,-45.9063 44.398,-45.9063 11.106,0 21.77,4.1875 30.164,11.6875 V 10.1953 C 520.824,5.09766 509.723,2.22656 499.82,2.22656 c -32.257,0 -58.961,25.66404 -58.961,58.39064 0,33.457 26.852,59.5588 60.161,59.5588 9.902,0 19.953,-2.403 28.507,-7.645 V 96.1523" /><path
         id="path64"
         style="fill:#13366d;fill-opacity:1;fill-rule:nonzero;stroke:none"
         d="m 547.383,4.62891 h 14.1055 v 113.145 H 547.383 Z" /><path
         id="path66"
         style="fill:#13366d;fill-opacity:1;fill-rule:nonzero;stroke:none"
         d="m 584.137,117.773 h 60.773 v -12.89 H 598.242 V 73.2148 h 45.321 V 60.293 H 598.242 V 17.5508 H 644.91 V 4.62891 H 584.137 V 117.773" /><path
         id="path68"
         style="fill:#13366d;fill-opacity:1;fill-rule:nonzero;stroke:none"
         d="m 662.461,123.164 84.918,-88.9452 v 83.5542 h 14.105 V 0 L 676.566,88.9453 V 4.62891 H 662.461 V 123.164" /><path
         id="path70"
         style="fill:#13366d;fill-opacity:1;fill-rule:nonzero;stroke:none"
         d="m 865.461,96.1523 c -8.102,7.2067 -19.207,11.1327 -29.856,11.1327 -25.355,0 -44.707,-21.1522 -44.707,-46.2303 0,-24.7539 19.204,-45.9063 44.399,-45.9063 11.105,0 21.769,4.1875 30.164,11.6875 V 10.1953 c -8.703,-5.09764 -19.809,-7.96874 -29.707,-7.96874 -32.258,0 -58.961,25.66404 -58.961,58.39064 0,33.457 26.848,59.5588 60.16,59.5588 9.902,0 19.949,-2.403 28.508,-7.645 V 96.1523" /><path
         id="path72"
         style="fill:#13366d;fill-opacity:1;fill-rule:nonzero;stroke:none"
         d="m 883.77,117.773 h 60.761 v -12.89 H 897.875 V 73.2148 h 45.309 V 60.293 H 897.875 V 17.5508 h 46.656 V 4.62891 H 883.77 V 117.773" /><path
         id="path74"
         style="fill:#13366d;fill-opacity:1;fill-rule:nonzero;stroke:none"
         d="M 1024.35,32.9883 1011.45,4.62891 H 996.285 L 1050.31,122.578 1104.32,4.62891 h -15.15 l -12.9,28.35939 z m 25.96,58.6836 -20.11,-45.7617 h 40.21 l -20.1,45.7617" /><path
         id="path76"
         style="fill:#13366d;fill-opacity:1;fill-rule:nonzero;stroke:none"
         d="m 1113.93,123.164 84.91,-88.9452 v 83.5542 h 14.11 V 0 l -84.93,88.9453 V 4.62891 h -14.09 V 123.164" /><path
         id="path78"
         style="fill:#13366d;fill-opacity:1;fill-rule:nonzero;stroke:none"
         d="m 1233.36,117.773 h 23.39 c 34.67,0 63.47,-18.3082 63.47,-55.9566 0,-38.5547 -28.21,-57.18749 -63.91,-57.18749 h -22.95 z m 14.09,-100.2222 h 4.95 c 28.81,0 53.71,10.8086 53.71,43.6484 0,33.0196 -24.9,43.6838 -53.71,43.6838 h -4.95 V 17.5508" /><path
         id="path80"
         style="fill:#13366d;fill-opacity:1;fill-rule:nonzero;stroke:none"
         d="m 1411.13,4.62891 h -14.09 V 104.883 h -26.87 v 12.89 h 67.82 v -12.89 h -26.86 V 4.62891" /><path
         id="path82"
         style="fill:#13366d;fill-opacity:1;fill-rule:nonzero;stroke:none"
         d="m 1450.62,117.773 h 60.76 v -12.89 h -46.7 V 73.2148 h 45.36 V 60.293 h -45.36 V 17.5508 h 46.7 V 4.62891 h -60.76 V 117.773" /><path
         id="path84"
         style="fill:#13366d;fill-opacity:1;fill-rule:nonzero;stroke:none"
         d="m 1612.63,96.1523 c -8.08,7.2067 -19.19,11.1327 -29.85,11.1327 -25.34,0 -44.71,-21.1522 -44.71,-46.2303 0,-24.7539 19.19,-45.9063 44.41,-45.9063 11.11,0 21.77,4.1875 30.15,11.6875 V 10.1953 c -8.67,-5.09764 -19.8,-7.96874 -29.7,-7.96874 -32.26,0 -58.95,25.66404 -58.95,58.39064 0,33.457 26.84,59.5588 60.15,59.5588 9.93,0 19.95,-2.403 28.5,-7.645 V 96.1523" /><path
         id="path86"
         style="fill:#13366d;fill-opacity:1;fill-rule:nonzero;stroke:none"
         d="m 1697.71,72.1602 v 45.6128 h 14.12 V 4.62891 h -14.12 V 58.9453 h -53.85 V 4.62891 h -14.12 V 117.773 h 14.12 V 72.1602 h 53.85" /><path
         id="path88"
         style="fill:#13366d;fill-opacity:1;fill-rule:nonzero;stroke:none"
         d="m 1732.37,123.164 84.93,-88.9452 v 83.5542 h 14.09 V 0 l -84.93,88.9453 V 4.62891 h -14.09 V 123.164" /><path
         id="path90"
         style="fill:#13366d;fill-opacity:1;fill-rule:nonzero;stroke:none"
         d="m 1963.58,61.1992 c 0,-33.6015 -26.57,-58.97264 -59.27,-58.97264 -32.69,0 -59.27,25.37114 -59.27,58.97264 0,32.4336 26.87,58.9768 59.27,58.9768 32.4,0 59.27,-26.5432 59.27,-58.9768 z m -14.09,0 c 0,24.9336 -18.63,45.7928 -45.18,45.7928 -26.54,0 -45.17,-20.8592 -45.17,-45.7928 0,-25.8086 20.71,-45.7578 45.17,-45.7578 24.46,0 45.18,19.9492 45.18,45.7578" /><path
         id="path92"
         style="fill:#13366d;fill-opacity:1;fill-rule:nonzero;stroke:none"
         d="m 1992.85,17.5508 h 34.33 V 4.62891 h -48.45 V 117.773 h 14.12 V 17.5508" /><path
         id="path94"
         style="fill:#13366d;fill-opacity:1;fill-rule:nonzero;stroke:none"
         d="m 2148.59,61.1992 c 0,-33.6015 -26.57,-58.97264 -59.3,-58.97264 -32.69,0 -59.24,25.37114 -59.24,58.97264 0,32.4336 26.84,58.9768 59.24,58.9768 32.41,0 59.3,-26.5432 59.3,-58.9768 z m -14.12,0 c 0,24.9336 -18.61,45.7928 -45.18,45.7928 -26.54,0 -45.15,-20.8592 -45.15,-45.7928 0,-25.8086 20.72,-45.7578 45.15,-45.7578 24.46,0 45.18,19.9492 45.18,45.7578" /><path
         id="path96"
         style="fill:#13366d;fill-opacity:1;fill-rule:nonzero;stroke:none"
         d="m 2266.8,61.6406 v -4.4804 c 0,-31.0547 -21.91,-54.93364 -53.58,-54.93364 -31.64,0 -57.13,27.30474 -57.13,58.68364 0,32.5468 26.07,59.2658 58.65,59.2658 17.55,0 34.95,-7.969 46.06,-21.9143 l -9.91,-9.4336 c -8.08,11.0742 -21.73,18.4569 -35.56,18.4569 -25.35,0 -45.15,-20.5662 -45.15,-45.9373 0,-23.6993 19.48,-46.1993 43.98,-46.1993 17.52,0 36.44,15.1446 37.03,33.6016 h -29.24 v 12.8906 h 44.85" /><path
         id="path98"
         style="fill:#13366d;fill-opacity:1;fill-rule:nonzero;stroke:none"
         d="m 2270.55,117.773 h 16.2 l 27.78,-48.3082 27.74,48.3082 h 16.2 L 2321.56,53.8477 V 4.62891 h -14.1 V 53.8477 l -36.91,63.9253" /><path
         id="path100"
         style="fill:#9e7d26;fill-opacity:1;fill-rule:nonzero;stroke:none"
         d="m 199.602,347.887 c 2.078,2.578 2.781,7.148 2.781,7.148 H 78.8086 c 0,0 1.5234,-5.097 2.8125,-7.148 H 199.602" /><path
         id="path102"
         style="fill:#9e7d26;fill-opacity:1;fill-rule:nonzero;stroke:none"
         d="m 192.422,337.398 c 2.312,2.051 4.629,6.153 4.629,6.153 H 83.9336 c 0,0 1.2617,-3.078 4.0742,-6.153 H 192.422" /><path
         id="path104"
         style="fill:#9e7d26;fill-opacity:1;fill-rule:nonzero;stroke:none"
         d="m 183.516,327.906 c 2.785,1.524 5.097,4.629 5.097,4.629 H 91.8477 c 0,0 2.3125,-2.578 4.5976,-4.629 h 87.0707" /><path
         id="path106"
         style="fill:#9e7d26;fill-opacity:1;fill-rule:nonzero;stroke:none"
         d="m 172.207,318.941 c 2.781,1.055 5.891,3.633 5.891,3.633 h -75.442 c 0,0 0,-0.586 5.332,-3.633 h 64.219" /><path
         id="path108"
         style="fill:#9e7d26;fill-opacity:1;fill-rule:nonzero;stroke:none"
         d="m 116.66,313.344 c 0,0 7.969,-4.656 23.555,-4.656 15.644,0 25.605,4.656 25.605,4.656 h -49.16" /><path
         id="path110"
         style="fill:#13366d;fill-opacity:1;fill-rule:nonzero;stroke:none"
         d="m 115.398,302.828 c 0,0 9.465,-0.469 15.09,-4.836 5.391,-4.629 9.492,-12.273 9.492,-12.273 0,0 3.309,7.383 8.704,11.219 5.359,4.132 14.089,5.89 14.089,5.89 h 97.5 l 19.192,-28.418 h -87.57 c 0,0 -6.125,-0.234 -15.325,-5.625 -4.89,-2.785 -8.465,-7.676 -8.465,-7.676 0,0 -0.761,-2.285 -1.789,-3.546 -1.023,-1.317 -1.785,-2.372 -3.046,-2.84 -1.317,-0.528 -1.024,-0.235 -1.024,-0.235 H 116.66 c 0,0 -1.816,0.703 -2.812,2.285 -0.996,1.524 -0.262,1.024 -1.258,2.286 -0.766,1.257 -2.578,4.629 -9.465,9.199 -7.1484,4.687 -14.0937,5.156 -14.0937,5.156 H 0 l 19.3945,29.414 h 96.0035" /><path
         id="path112"
         style="fill:#13366d;fill-opacity:1;fill-rule:nonzero;stroke:none"
         d="M 46.5234,262.691 V 117.305 c 0,0 0.5274,-12.832 11.2813,-30.1761 C 68.5547,69.668 84.1406,61.7578 84.1406,61.7578 L 96.4453,80.918 c 0,0 -10.7226,6.4453 -18.9258,18.6914 -7.9101,12.3046 -7.9101,22.7926 -7.9101,22.7926 v 140.289 h -23.086" /><path
         id="path114"
         style="fill:#13366d;fill-opacity:1;fill-rule:nonzero;stroke:none"
         d="M 211.348,263.16 V 122.93 c 0,0 -1.789,-14.063 -8.438,-24.0823 -6.648,-10.1954 -17.668,-18.3985 -17.668,-18.3985 l 11.809,-18.9258 c 0,0 17.898,13.0079 26.601,26.836 8.7,13.8286 10.782,34.5706 10.782,34.5706 v 140.23 h -23.086" /><path
         id="path116"
         style="fill:#13366d;fill-opacity:1;fill-rule:nonzero;stroke:none"
         d="M 9.96094,262.691 V 116.777 c 0,0 1.52346,-22.5582 15.58596,-46.1129 C 39.668,47.168 65.2148,30.7617 65.2148,30.7617 l 12.0704,19.2188 c 0,0 -16.4063,8.6718 -29.4141,28.6523 C 34.5117,98.8477 33.7773,117.305 33.7773,117.305 V 262.691 H 9.96094" /><path
         id="path118"
         style="fill:#9e7d26;fill-opacity:1;fill-rule:nonzero;stroke:none"
         d="M 115.398,247.309 V 93.2227 c 0,0 -0.554,-0.5274 -0.757,-2.8125 -0.266,-2.2852 -1.789,-3.8672 -1.789,-3.8672 L 61.4063,1.34766 H 219.082 l -51.445,87.01174 -1.551,3.8672 -0.527,4.1015 V 247.047 H 146.367 V 90.6445 c 0,0 0,-2.2851 0.789,-4.1015 0.473,-1.8164 1.528,-4.5703 1.528,-4.5703 L 180.41,29.7656 h -80.39 l 31.23,51.9727 c 0,0 1.023,1.7578 1.816,4.3359 0.528,2.2852 0.735,4.5703 0.735,4.5703 V 247.309 h -18.403" /><path
         id="path120"
         style="fill:#13366d;fill-opacity:1;fill-rule:nonzero;stroke:none"
         d="M 246.941,263.16 V 119.824 c 0,0 -0.23,-18.398 -13.796,-39.6677 C 219.578,58.8867 203.934,49.9805 203.934,49.9805 l 11.574,-19.4532 c 0,0 23.496,14.8829 38.379,38.379 14.558,23.5546 16.347,50.9177 16.347,50.9177 V 263.16 h -23.293" /><path
         id="path122"
         style="fill:#9e7d26;fill-opacity:1;fill-rule:nonzero;stroke:none"
         d="m 78.0156,359.137 c 0,0 -7.8789,43.242 23.8204,64.773 0,0 14.324,13.274 37.617,13.274 24.844,0 39.141,-13.008 39.141,-13.008 34.543,-25.313 24.316,-65.039 24.316,-65.039 H 78.0156" /></g></g></svg>